<svg width="30" height="30" viewBox="0 0 30 30" fill="none" xmlns="http://www.w3.org/2000/svg">
<path d="M6.83571 19.544L6.83547 19.5437C4.63365 16.8982 3.14694 14.4163 2.16088 11.74C1.51814 10.009 1.26585 8.56551 1.37438 7.2003L1.37443 7.19966C1.46693 6.09545 1.91329 5.13927 2.69903 4.35353L4.79145 2.26111L4.79398 2.25857L4.79401 2.25861C5.41574 1.66593 6.134 1.35 6.88922 1.35C7.64915 1.35 8.362 1.66524 8.96205 2.25298C9.3451 2.60796 9.73293 3.00147 10.1019 3.38165L10.1171 3.39727C10.3021 3.58768 10.4813 3.77219 10.671 3.9619L12.3377 5.62863C12.3378 5.6287 12.3379 5.62877 12.3379 5.62884C12.9703 6.25547 13.3109 6.99135 13.3109 7.74927C13.3109 8.50782 12.9642 9.24348 12.3382 9.86943C12.1646 10.043 11.9921 10.2156 11.8252 10.388L11.8247 10.3885C11.3731 10.8507 10.904 11.3256 10.4044 11.7823C10.7702 12.6001 11.2885 13.4129 12.0526 14.3802C13.6272 16.3107 15.2713 17.8095 17.0792 18.9575L17.0794 18.9576C17.2567 19.0704 17.4574 19.1737 17.6813 19.2856L17.683 19.2865C17.8295 19.3597 17.9865 19.4382 18.1425 19.5242L20.065 17.6018C20.6753 16.9914 21.4 16.6571 22.1627 16.6571C22.9253 16.6571 23.6449 16.9913 24.2392 17.6084C24.2395 17.6087 24.2398 17.6091 24.2402 17.6094L27.6006 20.9698C28.2258 21.595 28.5465 22.3268 28.548 23.0721C28.5495 23.8171 28.232 24.558 27.614 25.2022C27.614 25.2022 27.6139 25.2023 27.6139 25.2023L27.5057 25.0984C27.2483 25.367 26.9798 25.6299 26.7168 25.8817L6.83571 19.544ZM6.83571 19.544C9.51221 22.7434 12.7348 25.2632 16.4131 27.0461L16.4143 27.0467C17.8109 27.7085 19.6953 28.5023 21.8006 28.6385L21.8006 28.6385L21.8038 28.6387L21.8204 28.6394C21.9426 28.6447 22.0639 28.65 22.1907 28.65C23.6228 28.65 24.7815 28.1534 25.7224 27.133C25.7278 27.1278 25.7447 27.1107 25.7596 27.0879C26.0546 26.7331 26.3874 26.4102 26.7432 26.0651C26.769 26.04 26.795 26.0149 26.821 25.9896L6.83571 19.544ZM7.78929 3.46258L7.78916 3.4627L7.79439 3.46753C8.11659 3.76569 8.42206 4.07629 8.74642 4.4061C8.79606 4.45657 8.84614 4.50749 8.89679 4.55889C8.99223 4.65713 9.089 4.75531 9.18602 4.85373L9.18797 4.8557C9.2846 4.95372 9.38148 5.052 9.47832 5.1516L9.47831 5.15161L9.4798 5.1531L11.147 6.82032C11.4781 7.15142 11.629 7.46798 11.629 7.76046C11.629 8.05295 11.4781 8.36951 11.147 8.70061C11.0598 8.78781 10.9727 8.87635 10.886 8.96439L10.886 8.96441C10.7992 9.0526 10.7129 9.14029 10.6267 9.22651L10.6261 9.22708C10.5871 9.26659 10.5482 9.30592 10.5095 9.34507C10.032 9.82812 9.58185 10.2835 9.08921 10.7196L9.08902 10.7194L9.08258 10.7259L9.05461 10.7539C8.80107 11.0074 8.68617 11.2641 8.65583 11.5109C8.62596 11.7539 8.67992 11.9732 8.73863 12.1494C8.743 12.1625 8.74733 12.1732 8.75006 12.18C8.75127 12.1831 8.7522 12.1854 8.75295 12.1874C8.75399 12.19 8.75471 12.192 8.75542 12.1941L8.75504 12.1943L8.75924 12.2043C9.1966 13.2551 9.80335 14.2517 10.7441 15.4346L10.7441 15.4346L10.7449 15.4357C12.4319 17.5164 14.2114 19.1334 16.1735 20.3795C16.381 20.5146 16.6012 20.6259 16.8051 20.729C16.8458 20.7495 16.8858 20.7698 16.9249 20.7898L16.9262 20.7904C17.1501 20.9024 17.3508 21.0056 17.5281 21.1185L17.5347 21.1226L17.5416 21.1261C17.5446 21.1276 17.5476 21.1292 17.5508 21.1309C17.5549 21.1332 17.5594 21.1357 17.565 21.1389L17.5659 21.1394C17.5751 21.1447 17.5877 21.1519 17.6023 21.1592C17.8055 21.2638 18.0077 21.3154 18.2129 21.3154C18.7256 21.3154 19.0547 20.9889 19.1526 20.891L21.245 18.7986C21.5514 18.4922 21.8679 18.3446 22.1627 18.3446C22.5259 18.3446 22.8356 18.5712 23.0431 18.7946L23.043 18.7946L23.047 18.7987L26.4205 22.1666C26.4206 22.1666 26.4206 22.1666 26.4206 22.1667C26.7373 22.4834 26.8783 22.7966 26.8759 23.0992C26.8735 23.4031 26.7264 23.7278 26.4016 24.0658L26.4002 24.0674C26.1682 24.3159 25.9245 24.5542 25.662 24.8055L25.6612 24.8062C25.6394 24.8274 25.6176 24.8486 25.5956 24.8699C25.2258 25.2289 24.8375 25.6058 24.4838 26.0287C23.8709 26.6882 23.1458 26.9961 22.1963 26.9961C22.1063 26.9961 22.0099 26.9908 21.9146 26.9852C20.1099 26.8695 18.4254 26.1644 17.1476 25.5562C13.6873 23.8816 10.6497 21.5061 8.12885 18.49C6.05073 15.9884 4.65626 13.6644 3.7346 11.1771L3.73442 11.1766C3.16302 9.65098 2.95144 8.43762 3.03848 7.34237C3.10263 6.6332 3.37286 6.04532 3.88464 5.53354L5.96492 3.45326C6.26888 3.16013 6.59106 3.0207 6.88922 3.0207C7.18009 3.0207 7.49055 3.1586 7.78929 3.46258Z" fill="#0D5785" stroke="#0D5785" stroke-width="0.3"/>
</svg>
