<svg width="11" height="6" viewBox="0 0 11 6" fill="none" xmlns="http://www.w3.org/2000/svg">
<path fill-rule="evenodd" clip-rule="evenodd" d="M5.32514 4.38247L9.52047 0.187141C9.64621 0.0657025 9.81461 -0.00149374 9.98941 2.52018e-05C10.1642 0.00154415 10.3314 0.0716566 10.455 0.195262C10.5786 0.318867 10.6487 0.486076 10.6503 0.660874C10.6518 0.835672 10.5846 1.00407 10.4631 1.12981L5.79647 5.79647C5.73462 5.85844 5.66115 5.9076 5.58027 5.94114C5.49939 5.97468 5.4127 5.99194 5.32514 5.99194C5.23759 5.99194 5.15089 5.97468 5.07001 5.94114C4.98914 5.9076 4.91567 5.85844 4.85381 5.79647L0.187142 1.12981C0.0657028 1.00407 -0.00149374 0.835672 2.52016e-05 0.660874C0.00154415 0.486076 0.0716569 0.318867 0.195262 0.195262C0.318868 0.0716566 0.486076 0.00154415 0.660874 2.52018e-05C0.835672 -0.00149374 1.00407 0.0657025 1.12981 0.187141L5.32514 4.38247Z" fill="#C9EBFF"/>
</svg>
