<svg width="23" height="23" viewBox="0 0 23 23" fill="none" xmlns="http://www.w3.org/2000/svg">
<g clip-path="url(#clip0_1053_3293)">
<mask id="mask0_1053_3293" style="mask-type:luminance" maskUnits="userSpaceOnUse" x="0" y="0" width="24" height="23">
<path d="M0.920166 0.914062H23.0002V22.9941H0.920166V0.914062Z" fill="white"/>
</mask>
<g mask="url(#mask0_1053_3293)">
<path d="M17.0206 12.8741C16.8986 12.8741 16.7816 12.9225 16.6953 13.0088C16.609 13.0951 16.5606 13.2121 16.5606 13.3341V17.9341C16.5606 18.6949 15.9414 19.3141 15.1806 19.3141H11.0406V5.14054C11.0406 4.34474 10.5677 3.62806 9.8363 3.31526L6.38078 1.83406H15.1806C15.9414 1.83406 16.5606 2.45322 16.5606 3.21406V7.81406C16.5606 7.93606 16.609 8.05307 16.6953 8.13933C16.7816 8.2256 16.8986 8.27406 17.0206 8.27406C17.1426 8.27406 17.2596 8.2256 17.3458 8.13933C17.4321 8.05307 17.4806 7.93606 17.4806 7.81406V3.21406C17.4806 1.9463 16.4483 0.914062 15.1806 0.914062H4.14058C4.10378 0.914062 4.07066 0.926943 4.0357 0.935223C3.9667 0.927863 3.8977 0.914062 3.82686 0.914062C2.73206 0.914062 1.84058 1.80554 1.84058 2.90034V18.7676C1.84058 19.5634 2.31346 20.2801 3.04578 20.5929L8.27138 22.8331C8.57357 22.9621 8.90303 23.0143 9.2303 22.9849C9.55758 22.9555 9.87247 22.8455 10.1469 22.6647C10.4212 22.4839 10.6466 22.238 10.8027 21.9488C10.9588 21.6597 11.0408 21.3364 11.0415 21.0078V20.2341H15.1815C16.4483 20.2341 17.4815 19.2018 17.4815 17.9341V13.3341C17.4815 13.2121 17.433 13.0951 17.3468 13.0088C17.2605 12.9225 17.1435 12.8741 17.0215 12.8741H17.0206ZM10.1206 21.0078C10.1205 21.1843 10.0766 21.358 9.99294 21.5133C9.90925 21.6687 9.78833 21.8009 9.64102 21.8981C9.49371 21.9952 9.3246 22.0544 9.14883 22.0701C8.97306 22.0859 8.79612 22.0579 8.63386 21.9885L3.40826 19.7483C3.21615 19.6662 3.05238 19.5295 2.93725 19.3551C2.82212 19.1808 2.76069 18.9765 2.76058 18.7676V2.90034C2.76082 2.72395 2.80479 2.55036 2.88854 2.39511C2.9723 2.23987 3.09323 2.1078 3.24052 2.01074C3.3878 1.91367 3.55686 1.85462 3.73255 1.83888C3.90824 1.82314 4.0851 1.8512 4.2473 1.92054L9.47382 4.15982C9.86666 4.32818 10.1206 4.71366 10.1206 5.14054V21.0078ZM8.74058 11.0341C8.61858 11.0341 8.50157 11.0825 8.41531 11.1688C8.32904 11.2551 8.28058 11.3721 8.28058 11.4941V13.3341C8.28058 13.4561 8.32904 13.5731 8.41531 13.6593C8.50157 13.7456 8.61858 13.7941 8.74058 13.7941C8.86258 13.7941 8.97958 13.7456 9.06585 13.6593C9.15211 13.5731 9.20058 13.4561 9.20058 13.3341V11.4941C9.20058 11.3721 9.15211 11.2551 9.06585 11.1688C8.97958 11.0825 8.86258 11.0341 8.74058 11.0341ZM22.0557 10.4526C22.0511 10.4361 22.0521 10.4177 22.0465 10.4011C22.0226 10.3419 21.9862 10.2886 21.9398 10.2447L19.1853 7.49022C19.0986 7.40643 18.9824 7.36006 18.8618 7.36111C18.7412 7.36216 18.6258 7.41054 18.5405 7.49583C18.4552 7.58111 18.4068 7.69649 18.4058 7.8171C18.4047 7.93771 18.4511 8.05391 18.5349 8.14066L20.5083 10.1141H12.4215C12.2995 10.1141 12.1825 10.1625 12.0962 10.2488C12.01 10.3351 11.9615 10.4521 11.9615 10.5741C11.9615 10.6961 12.01 10.8131 12.0962 10.8993C12.1825 10.9856 12.2995 11.0341 12.4215 11.0341H20.5101L18.5349 13.0093C18.4921 13.052 18.4582 13.1027 18.435 13.1586C18.4119 13.2144 18.3999 13.2742 18.3999 13.3347C18.3998 13.3951 18.4117 13.455 18.4348 13.5108C18.4579 13.5667 18.4917 13.6174 18.5344 13.6602C18.5771 13.703 18.6279 13.7369 18.6837 13.7601C18.7395 13.7832 18.7994 13.7952 18.8598 13.7952C18.9202 13.7953 18.9801 13.7834 19.0359 13.7603C19.0918 13.7372 19.1426 13.7034 19.1853 13.6607L21.9453 10.9007C21.9582 10.8878 21.9637 10.8712 21.9739 10.8583C22.0015 10.8252 22.0291 10.7912 22.0447 10.7507C22.0613 10.7111 22.0649 10.6688 22.0695 10.6274C22.0723 10.609 22.0806 10.5925 22.0806 10.5741C22.0806 10.5308 22.0668 10.4922 22.0557 10.4526Z" fill="#0D5785"/>
</g>
</g>
<defs>
<clipPath id="clip0_1053_3293">
<rect width="23" height="23" fill="white"/>
</clipPath>
</defs>
</svg>
