<svg width="20" height="20" viewBox="0 0 20 20" fill="none" xmlns="http://www.w3.org/2000/svg">
<path d="M19.915 9.65996C17.8746 6.13271 14.074 3.94568 10 3.94568C5.92599 3.94568 2.12535 6.13271 0.0850142 9.65996C-0.0283381 9.86667 -0.0283381 10.12 0.0850142 10.3267C2.12535 13.8607 5.92599 16.0544 10 16.0544C14.074 16.0544 17.8746 13.8607 19.915 10.3267C20.0283 10.12 20.0283 9.86667 19.915 9.65996ZM10 14.1674C7.69962 14.1674 5.83264 12.3004 5.83264 10C5.83264 7.69964 7.69962 5.83266 10 5.83266C12.3004 5.83266 14.1674 7.69964 14.1674 10C14.1674 12.3004 12.3004 14.1674 10 14.1674Z" fill="#BBBBBB"/>
<path d="M10.0001 12.8338C11.5651 12.8338 12.8339 11.5651 12.8339 10C12.8339 8.43497 11.5651 7.16623 10.0001 7.16623C8.435 7.16623 7.16626 8.43497 7.16626 10C7.16626 11.5651 8.435 12.8338 10.0001 12.8338Z" fill="#BBBBBB"/>
</svg>
