<svg width="38" height="38" viewBox="0 0 38 38" fill="none" xmlns="http://www.w3.org/2000/svg">
<g clip-path="url(#clip0_1064_1895)">
<path d="M14.8102 21.5765C14.6705 21.5765 11.7403 21.5774 10.3889 21.5761C9.69312 21.5756 9.4449 21.3256 9.4449 20.6254C9.44378 18.8269 9.44378 17.0284 9.4449 15.2299C9.44534 14.5386 9.7078 14.2748 10.3946 14.2744C11.7461 14.2735 14.6603 14.2739 14.8102 14.2739V10.3584C14.8111 8.5906 15.1265 6.89841 16.0246 5.34902C16.9441 3.76314 18.2822 2.67683 19.9971 2.04871C21.0954 1.64613 22.2355 1.48554 23.401 1.48465C24.8592 1.48376 26.3174 1.48509 27.7761 1.48776C28.4028 1.48865 28.6809 1.76579 28.6822 2.39703C28.6849 4.08877 28.6849 5.78051 28.6822 7.47181C28.6813 8.10972 28.4149 8.36595 27.7738 8.37307C26.5785 8.38597 25.3823 8.37796 24.1884 8.42601C22.9824 8.42601 22.3481 9.01498 22.3481 10.2632C22.3191 11.5835 22.336 12.9051 22.336 14.2735C22.449 14.2735 25.881 14.273 27.4851 14.2735C28.2138 14.2735 28.4629 14.5239 28.4629 15.2566C28.4629 17.0453 28.4625 18.8345 28.4611 20.6232C28.4607 21.3452 28.2267 21.5756 27.4936 21.5761C25.8895 21.577 22.4708 21.5765 22.3214 21.5765V36.054C22.3214 36.8258 22.0785 37.0718 21.3169 37.0718H15.7461C15.0731 37.0718 14.8106 36.8102 14.8106 36.1372L14.8102 21.5765Z" fill="#3D6AD6"/>
</g>
<defs>
<clipPath id="clip0_1064_1895">
<rect width="37" height="37" fill="white" transform="translate(0.564087 0.773438)"/>
</clipPath>
</defs>
</svg>
