<svg width="451" height="458" viewBox="0 0 451 458" fill="none" xmlns="http://www.w3.org/2000/svg">
<g clip-path="url(#clip0_1064_2840)">
<g opacity="0.1">
<path d="M156.553 191.888C167.417 200.339 183.075 198.379 191.526 187.504C199.977 176.64 198.017 160.982 187.143 152.531C177.849 145.302 165.046 145.702 156.258 152.762L156.247 152.752L150.778 148.505L142.654 151.034L143.581 142.91L136.732 137.589L128.608 140.118L129.535 131.993L123.644 127.42L118.692 128.958L119.261 124.006L115.836 121.34L108.06 122.109L107.016 134.059L147.754 165.723C145.257 175.133 148.397 185.544 156.553 191.888ZM186.237 183.395C183.813 186.514 179.324 187.072 176.205 184.649C173.086 182.225 172.527 177.736 174.951 174.617C177.375 171.498 181.864 170.939 184.983 173.363C188.091 175.787 188.66 180.276 186.237 183.395Z" fill="#0D5785"/>
</g>
<g opacity="0.1">
<path d="M189.387 96.6538C194.055 90.9426 193.201 82.5442 187.501 77.8762C181.789 73.2081 173.381 74.0616 168.723 79.7624C164.729 84.6412 164.782 91.501 168.449 96.2956L166.099 99.1723L167.353 103.556L163.022 102.955L160.082 106.548L161.336 110.932L157.005 110.331L154.476 113.429L155.235 116.095L152.59 115.727L151.115 117.528L151.421 121.701L157.796 122.418L175.277 101.027C180.272 102.481 185.878 100.943 189.387 96.6538ZM185.225 80.658C186.858 81.9963 187.1 84.4094 185.762 86.0427C184.424 87.676 182.011 87.9183 180.377 86.5801C178.744 85.2418 178.502 82.8287 179.84 81.1954C181.168 79.5621 183.581 79.3198 185.225 80.658Z" fill="#0D5785"/>
</g>
<path d="M133.023 6.13672V83.4708H21.9478L17.9541 6.67413L133.023 6.13672Z" fill="#E0E0E0"/>
<path d="M17.9532 6.67666L17.9532 83.3047H129.028V6.67666H17.9532Z" fill="#7DA9C5"/>
<path d="M129.545 83.8302H17.4272V6.14844H129.556V83.8302H129.545ZM18.481 82.7765H128.502V7.20218H18.481V82.7765Z" fill="#E0E0E0"/>
<path d="M116.985 16.1992H29.9773V73.7862H116.985V16.1992Z" fill="white"/>
<path d="M116.995 16.2021C116.995 16.2021 116.847 16.2127 116.563 16.2127C116.268 16.2127 115.857 16.2232 115.33 16.2232C114.224 16.2337 112.622 16.2443 110.546 16.2548C106.363 16.2653 100.293 16.297 92.6114 16.318C77.269 16.3496 55.5514 16.3918 29.9771 16.4445L30.23 16.1916C30.2405 33.7891 30.2405 53.2833 30.2511 73.768V73.7785L29.9771 73.5045C62.8011 73.5256 93.0645 73.5467 116.984 73.5572L116.763 73.7785C116.816 56.2548 116.847 41.8818 116.879 31.8818C116.9 26.8765 116.921 22.9777 116.932 20.2906C116.942 18.9629 116.953 17.9513 116.953 17.2453C116.974 16.5604 116.995 16.2021 116.995 16.2021C116.995 16.2021 117.006 16.5393 117.016 17.2137C117.027 17.9092 117.027 18.9102 117.037 20.2169C117.048 22.8828 117.069 26.7711 117.09 31.7553C117.121 41.7975 117.153 56.2127 117.206 73.7891V74.0103H116.984C93.054 74.0209 62.7906 74.042 29.9771 74.063H29.7031V73.7891V73.7785C29.7137 53.2833 29.7137 33.7891 29.7242 16.2021V15.9492H29.9771C55.6146 16.0019 77.3954 16.0441 92.78 16.0757C100.43 16.1073 106.489 16.1284 110.651 16.1389C112.706 16.1494 114.287 16.16 115.383 16.1705C115.899 16.181 116.3 16.181 116.595 16.181C116.858 16.1916 116.995 16.2021 116.995 16.2021Z" fill="#E0E0E0"/>
<path d="M17.9542 6.46645C17.9963 6.40323 18.7234 6.88795 19.8614 7.69933C20.9995 8.52125 22.5485 9.68036 24.2134 11.0186C25.8888 12.3569 27.3535 13.6214 28.3862 14.5697C29.4189 15.5181 30.03 16.1398 29.9774 16.1925C29.872 16.3084 27.206 14.1061 23.8657 11.4401C20.5358 8.78468 17.8488 6.5929 17.9542 6.46645Z" fill="#E0E0E0"/>
<path d="M129.018 6.67269C129.113 6.7886 126.5 9.02253 123.17 11.6463C119.851 14.2807 117.08 16.3144 116.985 16.188C116.89 16.0721 119.503 13.8381 122.833 11.2143C126.163 8.5905 128.934 6.55678 129.018 6.67269Z" fill="#E0E0E0"/>
<path d="M128.935 83.3078C124.804 79.9569 120.684 76.6165 116.553 73.2656L128.935 83.3078Z" fill="white"/>
<path d="M116.553 73.2818C116.648 73.1659 119.493 75.3155 122.918 78.0869C126.342 80.8582 129.029 83.1975 128.934 83.324C128.84 83.4399 125.994 81.2902 122.57 78.5189C119.156 75.737 116.458 73.3977 116.553 73.2818Z" fill="#E0E0E0"/>
<path d="M17.9538 83.2984C17.859 83.1825 20.4512 80.9696 23.7389 78.3774C27.0265 75.7747 29.7662 73.762 29.8611 73.8885C29.9559 74.0044 27.3637 76.2067 24.076 78.8094C20.7884 81.4122 18.0487 83.4248 17.9538 83.2984Z" fill="#E0E0E0"/>
<path d="M47.6436 34.1384V53.4219H102.396V34.1384H47.6436Z" fill="#B2DAF2"/>
<path d="M408.755 445.364C408.755 445.511 318.26 445.638 206.647 445.638C94.993 445.638 4.5188 445.511 4.5188 445.364C4.5188 445.216 95.0035 445.09 206.647 445.09C318.26 445.09 408.755 445.216 408.755 445.364Z" fill="#263238"/>
<path d="M324.245 407.225L350.335 445.149L359.65 445.37L342.559 406.371L324.245 407.225Z" fill="#263238"/>
<path d="M49.0395 409.164L35.2987 444.981H42.1691L66.1733 409.322L49.0395 409.164Z" fill="#263238"/>
<path d="M43.149 278.983L44.1606 325.337C44.3081 331.891 49.5768 337.17 56.1311 337.318L315.552 343.092C322.422 343.25 328.081 337.718 328.081 330.848V275.01C328.081 258.53 315.931 244.567 299.598 242.312C252.106 235.779 154.161 225.737 75.0036 240.005C56.2365 243.398 42.7381 259.931 43.149 278.983Z" fill="#0D5785"/>
<path d="M41.9899 295.18C41.9899 295.18 20.62 285.285 16.247 295.18C11.874 305.074 16.7317 317.213 21.5895 324.01C26.4472 330.807 26.3629 414.358 26.3629 414.358L350.473 410.891L354.308 330.522C354.308 330.522 369.851 311.376 368.881 303.125C367.912 294.864 354.793 282.851 339.735 295.18C324.677 307.498 320.789 333.241 320.789 333.241L62.3798 335.18C62.3903 335.19 63.2438 299.015 41.9899 295.18Z" fill="#0D5785"/>
<path d="M317.49 349.297C317.49 349.445 260.072 349.571 189.261 349.571C118.428 349.571 61.0203 349.445 61.0203 349.297C61.0203 349.15 118.428 349.023 189.261 349.023C260.082 349.023 317.49 349.15 317.49 349.297Z" fill="#263238"/>
<path d="M61.0309 384.671C61.0204 384.671 61.0099 384.587 60.9993 384.418C60.9888 384.218 60.9783 383.976 60.9677 383.67C60.9466 383.017 60.9256 382.047 60.915 380.804C60.9045 378.264 60.9045 374.671 60.894 370.245C60.8834 361.331 60.9572 349.023 60.5462 335.44C60.2933 328.654 60.051 322.163 59.0604 316.389C58.8708 315.693 58.6811 314.998 58.502 314.323C58.2385 313.659 57.9856 313.006 57.7011 312.363C57.1426 311.088 56.5736 309.866 55.9519 308.717C54.7296 306.41 53.3913 304.376 52.0109 302.648C50.6305 300.92 49.1869 299.508 47.8276 298.401C46.4472 297.316 45.1511 296.515 44.0446 295.967C41.8212 294.871 40.4408 294.608 40.4725 294.534C40.4725 294.523 40.5568 294.545 40.7254 294.576C40.915 294.629 41.1574 294.692 41.4524 294.766C42.0952 294.924 43.012 295.251 44.15 295.777C45.2881 296.304 46.6158 297.084 48.0383 298.169C49.4398 299.276 50.915 300.677 52.3376 302.416C53.7601 304.144 55.13 306.199 56.3839 308.517C57.0162 309.666 57.6063 310.899 58.1753 312.184C58.4598 312.827 58.7232 313.491 58.9972 314.155C59.1869 314.861 59.3871 315.577 59.5873 316.294C60.62 322.142 60.8729 328.633 61.1258 335.43C61.5367 349.033 61.3997 361.352 61.3049 370.256C61.2417 374.671 61.189 378.264 61.1574 380.814C61.1363 382.026 61.1258 382.985 61.1152 383.68C61.1047 383.986 61.0942 384.228 61.0942 384.429C61.052 384.587 61.0415 384.671 61.0309 384.671Z" fill="#263238"/>
<path d="M39.4608 313.836C39.4503 313.815 39.7348 313.636 40.3249 313.573C40.9044 313.509 41.8106 313.625 42.7063 314.237C43.1384 314.542 43.5704 314.974 43.8654 315.554C44.15 316.123 44.2975 316.839 44.171 317.556C43.9603 318.968 42.8433 320.454 41.1468 320.791C39.4397 321.075 37.8697 320.106 37.1426 318.884C36.7632 318.272 36.6052 317.566 36.6262 316.924C36.6579 316.281 36.8475 315.712 37.1004 315.238C37.6168 314.289 38.3438 313.762 38.8812 313.531C39.4187 313.288 39.7559 313.288 39.7559 313.309C39.7664 313.351 39.4608 313.436 38.9866 313.72C38.5124 313.994 37.8802 314.542 37.4587 315.417C37.0372 316.27 36.8897 317.545 37.5851 318.61C38.2385 319.663 39.6399 320.496 41.0625 320.243C42.4745 319.969 43.4861 318.683 43.6863 317.472C43.9287 316.218 43.2543 315.111 42.485 314.553C41.7158 313.963 40.8939 313.794 40.3459 313.794C39.7769 313.773 39.4713 313.878 39.4608 313.836Z" fill="#263238"/>
<path d="M40.9254 334.642C40.8832 334.684 40.2088 334.115 39.4607 332.914C38.7125 331.723 37.9749 329.837 37.9538 327.656C37.9328 325.475 38.6282 323.567 39.3448 322.356C40.0613 321.133 40.7252 320.554 40.7673 320.596C40.8411 320.649 40.2826 321.323 39.682 322.545C39.0813 323.757 38.4807 325.58 38.5018 327.656C38.5229 329.721 39.1656 331.534 39.7979 332.735C40.4301 333.926 40.9991 334.579 40.9254 334.642Z" fill="#263238"/>
<path d="M37.543 303.357C37.6273 303.388 37.3954 303.968 37.2163 304.927C37.0372 305.886 36.9634 307.245 37.269 308.699C37.5851 310.153 38.1963 311.365 38.7548 312.166C39.3027 312.967 39.7453 313.41 39.6926 313.473C39.6504 313.515 39.113 313.188 38.4492 312.398C37.7853 311.618 37.0688 310.354 36.7421 308.815C36.4155 307.277 36.563 305.823 36.8475 304.843C37.1215 303.852 37.4903 303.325 37.543 303.357Z" fill="#263238"/>
<path d="M31.2311 315.008C31.3471 314.902 32.3376 315.893 33.8233 316.652C35.3091 317.442 36.679 317.674 36.6579 317.832C36.6579 317.969 35.1616 317.969 33.5705 317.136C31.9688 316.314 31.1152 315.082 31.2311 315.008Z" fill="#263238"/>
<path d="M351.727 384.672C351.727 384.82 278.618 384.946 188.46 384.946C98.2702 384.946 25.1722 384.82 25.1722 384.672C25.1722 384.525 98.2597 384.398 188.46 384.398C278.618 384.398 351.727 384.525 351.727 384.672Z" fill="#263238"/>
<path d="M316.363 333.52C316.511 333.52 316.637 344.963 316.637 359.083C316.637 373.203 316.511 384.647 316.363 384.647C316.216 384.647 316.089 373.203 316.089 359.083C316.089 344.963 316.216 333.52 316.363 333.52Z" fill="#263238"/>
<path d="M208.133 245.1C208.133 245.1 207.964 245.121 207.627 245.143C207.269 245.153 206.784 245.174 206.152 245.195C204.835 245.237 202.927 245.29 200.483 245.353C195.541 245.469 188.428 245.627 179.65 245.838C162.032 246.196 137.732 246.681 110.904 247.218C104.192 247.376 97.6271 247.355 91.3257 247.777C85.0349 248.198 78.9443 249.073 73.4964 251.033C68.0275 252.909 63.3067 256.049 59.9348 259.916C58.2593 261.855 56.8473 263.92 55.783 266.059C54.645 268.167 53.8968 270.337 53.2014 272.413C51.9474 276.618 51.3889 280.569 51.0728 284.036C50.7462 287.513 50.7145 290.527 50.6935 292.982C50.6829 295.438 50.7356 297.355 50.7672 298.641C50.7778 299.273 50.7883 299.758 50.7988 300.116C50.7988 300.453 50.7883 300.622 50.7883 300.622C50.7883 300.622 50.7672 300.453 50.7356 300.127C50.7145 299.768 50.6829 299.284 50.6513 298.651C50.5881 297.355 50.5038 295.448 50.4722 292.982C50.4511 290.517 50.4616 287.503 50.7567 284.015C51.0517 280.527 51.5892 276.555 52.822 272.308C53.507 270.211 54.2551 268.009 55.3932 265.87C56.4574 263.699 57.88 261.602 59.5765 259.621C62.9801 255.669 67.7746 252.466 73.3067 250.559C78.8178 248.567 84.9506 247.672 91.273 247.239C97.606 246.818 104.171 246.829 110.883 246.67C137.722 246.196 162.021 245.764 179.64 245.448C188.417 245.322 195.53 245.216 200.483 245.143C202.927 245.121 204.824 245.1 206.152 245.09C206.784 245.09 207.269 245.09 207.627 245.09C207.964 245.09 208.133 245.1 208.133 245.1Z" fill="#263238"/>
<path d="M125.172 281.189C125.193 281.242 124.824 281.369 124.276 281.78C123.739 282.18 123.033 282.928 122.643 284.066C122.243 285.173 122.243 286.753 123.233 287.986C124.16 289.208 125.952 290.072 127.701 289.672C129.44 289.24 130.652 287.659 130.936 286.153C131.263 284.604 130.546 283.202 129.693 282.391C128.829 281.558 127.87 281.211 127.206 281.095C126.542 280.979 126.152 281.021 126.141 280.979C126.131 280.958 126.521 280.831 127.227 280.884C127.933 280.937 128.976 281.242 129.945 282.117C130.42 282.549 130.873 283.118 131.168 283.834C131.452 284.551 131.579 285.404 131.421 286.258C131.136 287.944 129.819 289.714 127.817 290.22C125.804 290.673 123.834 289.693 122.822 288.313C122.295 287.628 122.021 286.806 121.958 286.037C121.895 285.267 122.053 284.551 122.274 283.95C122.748 282.738 123.549 281.99 124.15 281.621C124.761 281.221 125.162 281.168 125.172 281.189Z" fill="#263238"/>
<path d="M120.726 308.497C120.662 308.507 120.283 307.337 119.925 305.378C119.588 303.439 119.282 300.604 120.093 297.601C120.915 294.598 122.896 292.353 124.635 291.342C125.51 290.825 126.289 290.551 126.837 290.446C127.385 290.33 127.701 290.33 127.701 290.362C127.733 290.478 126.458 290.583 124.835 291.668C123.223 292.722 121.4 294.882 120.61 297.748C119.841 300.625 120.062 303.386 120.304 305.325C120.557 307.274 120.81 308.476 120.726 308.497Z" fill="#263238"/>
<path d="M124.561 264.916C124.635 264.99 123.802 265.717 123.012 267.245C122.211 268.741 121.558 271.154 122.127 273.694C122.717 276.233 124.361 278.13 125.731 279.12C127.111 280.153 128.175 280.448 128.133 280.543C128.123 280.575 127.849 280.532 127.385 280.385C126.911 280.237 126.247 279.942 125.509 279.447C124.034 278.488 122.232 276.539 121.6 273.82C120.989 271.101 121.758 268.562 122.685 267.055C123.138 266.286 123.613 265.738 123.971 265.39C124.319 265.053 124.54 264.895 124.561 264.916Z" fill="#263238"/>
<path d="M123.602 286.003C123.613 286.171 120.947 286.245 117.891 287.288C114.825 288.3 112.654 289.86 112.559 289.712C112.464 289.617 114.54 287.815 117.712 286.762C120.873 285.697 123.613 285.876 123.602 286.003Z" fill="#263238"/>
<g opacity="0.3">
<path d="M89.5552 350.26C99.6395 358.058 112.653 361.978 125.372 361.061C122.706 373.453 120.05 385.835 117.384 398.227C116.678 401.535 116.015 405.213 117.743 408.111C120.166 412.189 125.804 412.589 130.535 412.526C135.814 412.452 141.315 412.326 145.994 409.881C152.622 406.414 156.183 399.091 158.754 392.073C161.325 385.055 163.549 377.531 168.839 372.252C174.834 379.122 183.201 383.896 192.179 385.54C194.824 386.024 197.806 386.172 199.924 384.517C202.021 382.874 202.632 379.86 202.095 377.247C201.557 374.633 200.082 372.326 198.638 370.092C193.496 362.115 188.354 354.138 183.222 346.172C181.136 342.937 178.849 339.523 175.33 337.984C172.558 336.772 169.418 336.899 166.404 337.068C141.231 338.532 116.204 342.315 91.7259 348.364" fill="black"/>
</g>
<g opacity="0.3">
<path d="M171.969 231.675C165.731 248.156 142.443 251.939 134.266 267.545C126.184 282.982 136.205 303.414 127.87 318.714C124.783 324.383 119.493 328.609 116.479 334.31C114.445 338.156 113.402 342.719 110.125 345.574C106.31 348.904 100.399 348.841 95.8152 346.691C91.2314 344.541 87.7014 340.685 84.4453 336.818C78.3336 329.568 72.5907 321.728 69.7351 312.676C64.8141 297.102 69.3241 279.505 79.1872 266.491C89.0502 253.477 103.708 244.71 119.166 239.462C134.624 234.215 150.989 232.213 167.238 230.695" fill="black"/>
</g>
<path d="M97.0476 188.34C99.4712 184.736 102.622 181.543 106.5 179.573C110.377 177.613 115.003 176.96 119.134 178.308C123.265 179.657 126.753 183.156 127.585 187.413C128.249 190.785 127.353 194.568 129.092 197.529C131.094 200.943 135.931 202.028 137.638 205.6C138.66 207.76 138.249 210.374 137.132 212.481C136.004 214.589 134.255 216.275 132.506 217.897C133.57 218.646 134.645 219.425 135.393 220.49C136.141 221.554 136.51 222.976 136.004 224.178C135.478 225.442 134.15 226.169 132.885 226.707C127.048 229.183 120.441 229.805 114.245 228.456C112.58 228.098 110.672 227.645 109.303 228.656" fill="#263238"/>
<path d="M139.229 200.84L135.825 211.167L158.871 224.244L135.71 224.992L137.438 243.78L182.053 232.832C182.053 232.821 184.73 214.623 139.229 200.84L136.026 200.092C134.867 199.818 133.918 198.996 133.476 197.89C133.128 197.015 132.485 196.299 131.653 195.856L127.849 193.875L127.87 196.889L129.956 199.344L129.619 205.171C129.44 207.753 131.157 210.071 133.665 210.672L135.794 211.177" fill="#B78876"/>
<path d="M88.7651 238.146C87.8483 238.146 79.3446 240.212 74.4764 246.408C69.6186 252.604 62.5691 275.839 62.5691 275.839L80.5038 278.937L88.2382 298.367C88.2382 298.367 134.023 292.372 131.589 289.959C129.155 287.546 124.16 283.826 124.16 283.826L134.719 248.726L147.385 241.898L143.128 224.363L117.648 227.809L88.7651 238.146Z" fill="#FAFAFA"/>
<path d="M132.538 256.825C132.538 256.972 118.26 257.099 100.662 257.099C83.054 257.099 68.7864 256.972 68.7864 256.825C68.7864 256.677 83.054 256.551 100.662 256.551C118.27 256.551 132.538 256.677 132.538 256.825Z" fill="#0D5785"/>
<path d="M129.682 267.149C129.682 267.296 115.404 267.423 97.8063 267.423C80.1983 267.423 65.9307 267.296 65.9307 267.149C65.9307 267.001 80.1983 266.875 97.8063 266.875C115.404 266.875 129.682 267.001 129.682 267.149Z" fill="#0D5785"/>
<path d="M129.682 278.301C129.682 278.449 118.87 278.575 105.54 278.575C92.2001 278.575 81.3887 278.449 81.3887 278.301C81.3887 278.154 92.2001 278.027 105.54 278.027C118.87 278.027 129.682 278.143 129.682 278.301Z" fill="#0D5785"/>
<path d="M133.391 289.028C133.391 289.175 122.579 289.302 109.25 289.302C95.9093 289.302 85.0979 289.175 85.0979 289.028C85.0979 288.88 95.9093 288.754 109.25 288.754C122.579 288.754 133.391 288.88 133.391 289.028Z" fill="#0D5785"/>
<path d="M144.813 242.965C144.813 243.113 137.669 243.239 128.86 243.239C120.05 243.239 112.906 243.113 112.906 242.965C112.906 242.818 120.05 242.691 128.86 242.691C137.679 242.691 144.813 242.807 144.813 242.965Z" fill="#0D5785"/>
<path d="M145.973 232.025C145.973 232.173 138.86 232.468 130.083 232.668C121.305 232.868 114.182 232.921 114.182 232.763C114.182 232.615 121.294 232.32 130.072 232.12C138.85 231.909 145.973 231.867 145.973 232.025Z" fill="#0D5785"/>
<path d="M84.2233 262.2C84.3708 262.231 83.6016 266.098 82.5163 270.819C81.4204 275.55 80.4193 279.354 80.2718 279.312C80.1243 279.281 80.8935 275.424 81.9789 270.693C83.0642 265.961 84.0758 262.157 84.2233 262.2Z" fill="#263238"/>
<path d="M134.055 393.746L120.715 435.833L136.805 437.445L151.905 400.89L134.055 393.746Z" fill="#B78876"/>
<path d="M145.826 421.077L138.165 440.076C138.165 440.076 154.909 454.248 153.834 457.894L116.458 444.364L127.185 414.27L145.826 421.077Z" fill="#455A64"/>
<path d="M127.195 434.273C126.405 434.21 125.604 434.842 125.509 435.632C125.414 436.422 126.046 437.234 126.837 437.318C127.627 437.392 128.607 436.665 128.617 435.864C128.628 435.063 127.827 434.157 127.037 434.262" fill="#E0E0E0"/>
<path d="M116.458 444.356L117.659 441.363L153.043 455.462C153.043 455.462 154.445 456.79 153.834 457.896L116.458 444.356Z" fill="#E0E0E0"/>
<path d="M138.839 440.11C138.765 440.289 137.827 440.046 136.71 440.299C135.593 440.531 134.845 441.153 134.698 441.026C134.54 440.931 135.214 439.941 136.563 439.646C137.912 439.34 138.944 439.962 138.839 440.11Z" fill="#263238"/>
<path d="M142.169 443.148C142.148 443.338 141.242 443.359 140.346 443.907C139.429 444.423 138.976 445.203 138.797 445.129C138.618 445.097 138.871 443.98 140.009 443.316C141.126 442.663 142.232 442.969 142.169 443.148Z" fill="#263238"/>
<path d="M142.696 448.651C142.517 448.63 142.59 447.629 143.423 446.796C144.245 445.964 145.246 445.879 145.278 446.058C145.33 446.248 144.582 446.585 143.908 447.27C143.223 447.945 142.886 448.693 142.696 448.651Z" fill="#263238"/>
<path d="M140.103 435.586C139.966 435.723 139.218 435.164 138.164 434.869C137.111 434.543 136.183 434.595 136.152 434.406C136.099 434.237 137.121 433.847 138.365 434.216C139.598 434.585 140.251 435.47 140.103 435.586Z" fill="#263238"/>
<path d="M141.579 431.715C141.558 431.788 140.788 431.641 139.714 431.03C139.176 430.724 138.565 430.292 137.975 429.723C137.68 429.438 137.385 429.112 137.111 428.764C136.974 428.595 136.816 428.406 136.7 428.121C136.563 427.858 136.626 427.331 136.963 427.12C137.258 426.899 137.638 426.899 137.912 426.994C138.186 427.089 138.396 427.226 138.576 427.342C138.955 427.594 139.292 427.868 139.598 428.163C140.198 428.743 140.63 429.365 140.915 429.923C141.494 431.04 141.537 431.83 141.463 431.841C141.357 431.873 141.147 431.146 140.504 430.166C140.188 429.681 139.745 429.133 139.176 428.617C138.892 428.364 138.576 428.121 138.217 427.9C137.859 427.658 137.522 427.531 137.353 427.668C137.29 427.721 137.279 427.742 137.322 427.889C137.364 428.026 137.49 428.195 137.617 428.364C137.87 428.701 138.133 429.006 138.396 429.291C138.934 429.849 139.471 430.292 139.956 430.64C140.936 431.314 141.621 431.62 141.579 431.715Z" fill="#263238"/>
<path d="M141.252 431.897C141.178 431.897 141.052 431.117 141.41 429.906C141.589 429.305 141.905 428.62 142.411 427.946C142.664 427.609 142.959 427.282 143.296 426.987C143.644 426.692 144.097 426.302 144.835 426.47C145.214 426.586 145.414 426.987 145.425 427.271C145.456 427.566 145.404 427.798 145.372 428.03C145.288 428.494 145.119 428.915 144.919 429.294C144.518 430.043 143.949 430.591 143.423 430.938C142.337 431.644 141.505 431.581 141.505 431.518C141.473 431.402 142.242 431.286 143.138 430.559C143.581 430.201 144.044 429.684 144.371 429.01C144.529 428.673 144.655 428.304 144.729 427.914C144.814 427.493 144.782 427.124 144.613 427.113C144.424 427.04 144.002 427.229 143.739 427.493C143.423 427.756 143.149 428.041 142.906 428.336C142.432 428.926 142.095 429.537 141.863 430.074C141.41 431.149 141.357 431.908 141.252 431.897Z" fill="#263238"/>
<path d="M184.687 354.136L204.603 388.752L220.894 378.299L200.894 343.156L184.687 354.136Z" fill="#B78876"/>
<path d="M215.278 368.406L225.562 386.12C225.562 386.12 247.027 381.61 249.25 384.708L215.615 405.888L198.449 378.944L215.278 368.406Z" fill="#455A64"/>
<path d="M214.245 391.214C213.707 391.804 213.718 392.815 214.287 393.384C214.856 393.943 215.889 393.943 216.437 393.363C216.985 392.784 217.006 391.561 216.384 391.066C215.762 390.571 214.55 390.644 214.15 391.329" fill="#E0E0E0"/>
<path d="M215.604 405.882L213.981 403.1L246.837 383.838C246.837 383.838 248.744 383.543 249.24 384.712L215.604 405.882Z" fill="#E0E0E0"/>
<path d="M225.994 385.598C226.088 385.767 225.319 386.357 224.845 387.389C224.339 388.411 224.371 389.391 224.181 389.413C224.013 389.476 223.633 388.338 224.234 387.094C224.824 385.851 225.941 385.429 225.994 385.598Z" fill="#263238"/>
<path d="M230.441 384.851C230.578 384.988 230.041 385.715 229.925 386.758C229.777 387.801 230.104 388.644 229.935 388.739C229.798 388.866 229.082 387.97 229.25 386.674C229.419 385.367 230.346 384.693 230.441 384.851Z" fill="#263238"/>
<path d="M235.109 387.798C234.982 387.924 234.234 387.25 234.086 386.08C233.928 384.91 234.487 384.078 234.645 384.162C234.824 384.236 234.624 385.037 234.761 385.985C234.866 386.955 235.256 387.682 235.109 387.798Z" fill="#263238"/>
<path d="M223.201 381.84C223.223 382.029 222.327 382.282 221.442 382.925C220.536 383.557 220.009 384.316 219.84 384.232C219.671 384.169 219.988 383.125 221.052 382.377C222.106 381.618 223.201 381.661 223.201 381.84Z" fill="#263238"/>
<path d="M221.063 378.293C221.105 378.356 220.525 378.873 219.377 379.347C218.808 379.579 218.091 379.8 217.269 379.916C216.858 379.979 216.426 380.011 215.983 380.011C215.762 380.011 215.52 380.021 215.225 379.937C214.94 379.884 214.561 379.505 214.603 379.115C214.614 378.746 214.845 378.441 215.088 378.283C215.33 378.114 215.562 378.04 215.773 377.977C216.205 377.83 216.637 377.735 217.048 377.682C217.87 377.566 218.628 377.608 219.24 377.724C220.472 377.956 221.126 378.398 221.094 378.472C221.052 378.578 220.346 378.293 219.176 378.198C218.597 378.146 217.891 378.167 217.143 378.293C216.763 378.367 216.373 378.462 215.983 378.599C215.573 378.725 215.267 378.915 215.267 379.136C215.267 379.22 215.277 379.241 215.425 379.305C215.562 379.357 215.762 379.357 215.983 379.357C216.405 379.368 216.805 379.347 217.195 379.305C217.965 379.231 218.649 379.073 219.218 378.904C220.346 378.557 221.01 378.198 221.063 378.293Z" fill="#263238"/>
<path d="M220.999 378.661C220.957 378.724 220.262 378.335 219.535 377.312C219.176 376.807 218.829 376.132 218.607 375.321C218.502 374.92 218.418 374.488 218.396 374.025C218.386 373.572 218.344 372.971 218.934 372.497C219.261 372.276 219.703 372.36 219.935 372.528C220.188 372.686 220.335 372.866 220.493 373.034C220.799 373.393 221.041 373.782 221.21 374.172C221.558 374.952 221.642 375.732 221.589 376.364C221.484 377.65 220.915 378.282 220.873 378.229C220.767 378.176 221.136 377.502 221.115 376.354C221.105 375.785 220.978 375.1 220.651 374.436C220.493 374.099 220.272 373.772 220.009 373.477C219.735 373.15 219.419 372.95 219.303 373.066C219.134 373.171 219.018 373.614 219.06 373.993C219.081 374.404 219.134 374.794 219.218 375.173C219.387 375.911 219.661 376.554 219.945 377.06C220.504 378.082 221.073 378.577 220.999 378.661Z" fill="#263238"/>
<path d="M125.414 349.258L164.518 322.661L189.186 370.68L211.62 358.541C211.62 358.541 185.793 295.559 176.52 293.525C171.325 292.387 111.747 303.768 111.747 303.768L105.087 300.417L88.238 298.362L87.1632 301.091C81.2095 316.16 81.8945 333.041 89.0388 347.582L89.8607 349.247H125.414V349.258Z" fill="#263238"/>
<path d="M111.684 315.999C111.979 317.316 144.307 347.59 144.307 347.59L125.656 410.277L153.496 415.598L181.452 340.087L130.356 289.961L107.026 299.782L111.684 315.999Z" fill="#263238"/>
<path d="M164.518 322.65C164.602 322.777 155.919 328.836 145.119 336.17C134.318 343.515 125.498 349.363 125.414 349.236C125.329 349.11 134.012 343.061 144.813 335.717C155.603 328.383 164.434 322.524 164.518 322.65Z" fill="#455A64"/>
<path d="M184.592 361.739C184.56 361.76 184.223 361.244 183.644 360.285C183.064 359.336 182.263 357.945 181.283 356.207C179.334 352.74 176.742 347.893 174.002 342.477C171.252 337.06 168.849 332.129 167.153 328.525C166.299 326.723 165.625 325.269 165.172 324.247C164.718 323.235 164.487 322.656 164.518 322.645C164.55 322.624 164.845 323.172 165.361 324.152C165.909 325.227 166.626 326.639 167.49 328.346C169.323 331.981 171.779 336.839 174.487 342.213C177.226 347.619 179.766 352.487 181.62 356.007C182.516 357.693 183.264 359.094 183.833 360.158C184.35 361.159 184.624 361.718 184.592 361.739Z" fill="#455A64"/>
<path d="M150.145 336.392C150.282 336.465 148.944 339.469 147.153 343.104C145.361 346.739 143.802 349.648 143.665 349.584C143.528 349.521 144.866 346.518 146.657 342.872C148.449 339.226 150.008 336.328 150.145 336.392Z" fill="#455A64"/>
<path d="M62.5692 275.844L56.2889 299.195C55.4775 302.219 55.8463 305.433 57.3321 308.183C59.9559 313.041 65.4986 315.559 70.8832 314.305L120.989 301.966L115.751 291.566L76.2784 294.99L80.5039 278.942L62.5692 275.844Z" fill="#B78876"/>
<path d="M84.7927 311.288L85.446 307.895L112.601 303.016L120.493 261.151L170.925 255.145L162.453 299.834L84.7927 311.288Z" fill="#455A64"/>
<path d="M143.139 283.693C141.821 283.44 140.978 281.996 141.274 280.468C141.569 278.94 142.875 277.918 144.203 278.171C145.52 278.424 146.363 279.868 146.068 281.396C145.773 282.913 144.456 283.946 143.139 283.693Z" fill="#EBEBEB"/>
<path d="M92.1792 191.235L92.274 194.259L93.4121 239.581C93.5385 244.839 98.175 248.917 103.802 248.738C109.492 248.548 114.065 244.091 114.013 238.78C113.96 233.195 114.013 227.326 114.013 227.326C114.013 227.326 121.189 226.051 122.569 216.651C123.254 211.983 122.927 204.333 122.464 198.084C122.042 192.457 117.037 188.316 111.431 188.98L92.1792 191.235Z" fill="#B78876"/>
<path d="M118.828 203.293C118.86 203.925 118.343 204.473 117.679 204.515C117.016 204.558 116.457 204.083 116.425 203.441C116.394 202.808 116.91 202.26 117.574 202.208C118.238 202.187 118.807 202.661 118.828 203.293Z" fill="#263238"/>
<path d="M120.851 202.056C120.703 202.214 119.786 201.55 118.49 201.571C117.194 201.571 116.256 202.246 116.109 202.088C116.035 202.014 116.183 201.729 116.594 201.424C116.994 201.118 117.689 200.823 118.49 200.812C119.302 200.812 119.976 201.097 120.376 201.392C120.787 201.698 120.924 201.982 120.851 202.056Z" fill="#263238"/>
<path d="M106.057 203.759C106.089 204.391 105.573 204.939 104.909 204.981C104.245 205.023 103.686 204.549 103.655 203.906C103.623 203.274 104.139 202.726 104.803 202.673C105.467 202.642 106.026 203.116 106.057 203.759Z" fill="#263238"/>
<path d="M108.133 202.47C107.985 202.628 107.068 201.964 105.772 201.985C104.476 201.985 103.538 202.66 103.391 202.502C103.317 202.428 103.465 202.143 103.876 201.838C104.276 201.532 104.971 201.237 105.772 201.227C106.584 201.227 107.258 201.511 107.658 201.806C108.069 202.112 108.206 202.396 108.133 202.47Z" fill="#263238"/>
<path d="M112.939 212.011C112.928 211.937 113.74 211.79 115.036 211.611C115.362 211.568 115.678 211.505 115.731 211.273C115.805 211.031 115.668 210.683 115.499 210.293C115.183 209.493 114.846 208.66 114.488 207.785C113.086 204.213 112.075 201.284 112.212 201.231C112.359 201.179 113.603 204.024 115.004 207.596C115.341 208.47 115.668 209.313 115.973 210.114C116.1 210.494 116.321 210.915 116.163 211.41C116.079 211.663 115.837 211.842 115.626 211.895C115.415 211.958 115.225 211.969 115.067 211.979C113.761 212.064 112.949 212.085 112.939 212.011Z" fill="#263238"/>
<path d="M114.012 227.293C114.012 227.293 107.711 227.778 101.41 224.09C101.41 224.09 104.529 230.497 113.907 229.506L114.012 227.293Z" fill="#AA6550"/>
<path d="M108.649 200.322C108.501 200.67 107.226 200.438 105.698 200.554C104.171 200.638 102.927 201.028 102.737 200.702C102.653 200.544 102.885 200.227 103.391 199.911C103.897 199.595 104.697 199.311 105.614 199.248C106.531 199.195 107.353 199.374 107.901 199.627C108.449 199.859 108.712 200.154 108.649 200.322Z" fill="#263238"/>
<path d="M120.315 197.568C120.094 197.863 119.198 197.568 118.123 197.568C117.048 197.525 116.142 197.789 115.931 197.483C115.837 197.336 115.974 197.041 116.374 196.756C116.764 196.472 117.417 196.24 118.155 196.25C118.892 196.261 119.535 196.524 119.915 196.819C120.283 197.114 120.41 197.42 120.315 197.568Z" fill="#263238"/>
<path d="M112.801 216.685C112.432 216.791 112.043 216.664 111.674 216.569C111.305 216.464 110.957 216.369 110.662 216.274C110.367 216.18 110.03 216.043 109.672 215.916C109.324 215.769 108.924 215.642 108.702 215.337C108.481 215.042 108.523 214.536 109.029 214.083C109.514 213.64 110.494 213.324 111.526 213.672C112.559 214.019 113.16 214.852 113.275 215.495C113.423 216.158 113.16 216.591 112.801 216.685Z" fill="#AA6550"/>
<path d="M112.98 216.577C112.854 216.662 112.222 215.376 110.715 214.986C109.197 214.596 108.028 215.429 107.964 215.292C107.922 215.239 108.133 214.944 108.649 214.681C109.155 214.417 109.977 214.228 110.852 214.449C111.726 214.67 112.359 215.239 112.675 215.713C112.991 216.188 113.043 216.546 112.98 216.577Z" fill="#263238"/>
<path d="M103.023 185.111C106.026 189.579 105.257 196.175 101.326 199.842C99.0817 201.929 95.7414 203.562 95.5201 206.618C95.2672 210 99.1871 212.529 99.1976 215.933C99.2082 219.421 95.1723 221.644 94.3926 225.048C93.7603 227.787 95.3936 230.527 97.2904 232.603C99.1871 234.679 101.463 236.512 102.601 239.083C103.855 241.918 103.497 245.258 102.285 248.114C101.063 250.959 99.0606 253.393 96.9848 255.701C94.1818 254.7 91.263 254.047 88.302 253.773C88.4916 252.656 88.6708 251.539 88.8604 250.411C88.9237 251.718 87.8278 252.845 86.5949 253.256C85.362 253.667 84.0132 253.509 82.7171 253.309C78.7656 252.687 74.8773 251.686 71.126 250.327C72.7277 248.715 74.361 247.071 75.362 245.037C76.3631 242.993 76.6265 240.453 75.4779 238.504C74.5506 236.934 72.8436 235.922 71.99 234.299C70.715 231.876 71.7688 228.799 73.5812 226.744C75.3936 224.689 77.8594 223.351 80.009 221.665C82.1692 219.979 84.1502 217.703 84.3293 214.963C84.5506 211.412 81.6845 208.188 82.0427 204.647C82.4432 200.622 86.7003 198.156 88.3757 194.479C89.5875 191.813 89.4189 188.525 91.284 186.259C92.6539 184.584 94.9405 183.825 97.1112 183.941C99.2714 184.057 101.337 184.942 103.181 186.08" fill="#263238"/>
<path d="M114.803 228.311C113.107 229.249 113.212 231.82 114.234 233.453C115.267 235.087 116.921 236.256 117.943 237.9C119.766 240.84 118.976 245.097 116.226 247.184L120.272 248.711L121.157 248.216L123.644 246.815L122.474 249.681H125.067C127.796 249.712 130.472 248.1 131.726 245.687C132.98 243.264 132.748 240.155 131.157 237.942C130.093 236.467 128.439 235.297 128.08 233.506C127.648 231.356 129.271 229.407 130.072 227.363C131.4 223.949 130.188 219.712 127.248 217.531" fill="#263238"/>
<path d="M34.9506 143.038C35.4248 143.27 35.7515 143.744 35.7515 144.313V151.331C35.7515 151.773 35.5407 152.184 35.193 152.458C34.8452 152.722 34.3816 152.806 33.9601 152.69C32.8431 152.374 31.5892 152.564 30.5249 153.217C29.5449 153.818 28.86 154.724 28.6492 155.725C28.4385 156.716 28.7019 157.832 29.3658 158.791C30.0718 159.814 31.1571 160.53 32.2636 160.709C34.5291 161.067 37.0476 159.434 37.7852 157.137C38.017 156.399 38.8178 155.988 39.5555 156.22C40.3142 156.463 40.704 157.253 40.4722 157.991C39.3236 161.594 35.4459 164.06 31.821 163.491C29.9453 163.196 28.2067 162.058 27.0476 160.393C25.9517 158.802 25.5302 156.895 25.8884 155.156C26.2572 153.396 27.4058 151.816 29.0602 150.815C30.2509 150.087 31.5997 149.719 32.9274 149.729V144.324C32.9274 143.544 33.5597 142.911 34.3394 142.911C34.5607 142.901 34.7715 142.954 34.9506 143.038Z" fill="#0D5785"/>
<path d="M33.0119 140.091C32.9908 139.459 33.4966 138.921 34.1394 138.911C34.7716 138.89 35.309 139.396 35.3196 140.038C35.3406 140.671 34.8348 141.208 34.1921 141.218C33.5598 141.24 33.0224 140.734 33.0119 140.091Z" fill="#0D5785"/>
<path d="M67.3956 177.656C67.4062 177.687 67.0479 177.708 66.4683 177.951C65.8993 178.183 65.109 178.688 64.5084 179.626C64.2133 180.09 63.9815 180.659 63.9078 181.302C63.8445 181.934 63.9288 182.64 64.2555 183.283C64.8772 184.568 66.3524 185.675 68.0279 185.59C69.7033 185.474 71.0416 184.199 71.5052 182.851C71.7581 182.176 71.7687 181.46 71.6211 180.838C71.4736 180.216 71.168 179.679 70.8203 179.247C70.1248 178.383 69.2713 177.972 68.6812 177.814C68.0806 177.645 67.7223 177.666 67.7223 177.635C67.7223 177.624 67.8066 177.614 67.9752 177.614C68.0595 177.603 68.1649 177.614 68.2808 177.635C68.4072 177.645 68.5442 177.666 68.7023 177.708C69.324 177.845 70.2197 178.235 70.9784 179.12C71.3472 179.563 71.6844 180.121 71.853 180.785C72.0216 181.449 72.011 182.218 71.7581 182.945C71.5158 183.673 71.0416 184.379 70.3988 184.916C69.7666 185.464 68.9341 185.833 68.0279 185.896C67.1322 185.938 66.2576 185.664 65.5621 185.2C64.8561 184.747 64.3082 184.105 63.9815 183.409C63.6338 182.714 63.5495 181.955 63.6338 181.281C63.7286 180.596 63.9921 180.005 64.3082 179.521C64.951 178.551 65.8045 178.056 66.4051 177.845C66.5526 177.782 66.6896 177.75 66.8161 177.729C66.932 177.698 67.0374 177.677 67.1217 177.677C67.3008 177.656 67.3851 177.645 67.3956 177.656Z" fill="#263238"/>
<path d="M77.6377 187.856C77.6377 187.887 77.4164 187.908 77.0581 188.056C76.7104 188.203 76.2152 188.53 75.8569 189.11C75.4881 189.679 75.2984 190.564 75.7094 191.365C76.0887 192.155 77.0055 192.84 78.0381 192.787C79.0603 192.713 79.8927 191.934 80.1772 191.101C80.4933 190.248 80.1983 189.394 79.7663 188.878C79.3342 188.34 78.8074 188.077 78.4491 187.972C78.0803 187.866 77.8484 187.866 77.8484 187.835C77.8484 187.824 78.0697 187.771 78.4702 187.856C78.86 187.929 79.4396 188.182 79.9243 188.741C80.1667 189.015 80.3774 189.373 80.4933 189.805C80.5987 190.227 80.5987 190.722 80.4406 191.196C80.1351 192.123 79.2289 193.008 78.0487 193.093C76.8685 193.145 75.8674 192.376 75.4565 191.491C75.2352 191.048 75.1825 190.553 75.2352 190.121C75.2984 189.689 75.467 189.31 75.6672 189.004C76.0887 188.393 76.6261 188.077 77.0055 187.95C77.4164 187.813 77.6377 187.835 77.6377 187.856Z" fill="#263238"/>
<path d="M65.6884 156.766C65.6884 156.766 65.6778 156.587 65.6884 156.239C65.6989 155.881 65.6989 155.365 65.72 154.69C65.7305 154.353 65.7305 153.974 65.741 153.552C65.7305 153.131 65.6778 152.678 65.6462 152.182C65.6041 151.687 65.5619 151.15 65.5198 150.581C65.5092 150.296 65.4671 150.001 65.4038 149.706C65.3512 149.411 65.2985 149.095 65.2352 148.779C64.8664 146.229 63.9181 143.162 62.3164 139.875C60.6936 136.597 58.2595 133.11 54.8032 130.043C54.3712 129.664 53.9286 129.285 53.486 128.895C53.0224 128.536 52.5271 128.199 52.0424 127.841C51.8001 127.662 51.5472 127.493 51.3048 127.314C51.0624 127.135 50.8095 126.956 50.5356 126.808C49.9982 126.503 49.4608 126.187 48.9233 125.87C48.6494 125.712 48.3754 125.554 48.1014 125.396C47.8169 125.27 47.5219 125.133 47.2268 124.996C46.6473 124.732 46.0572 124.458 45.4565 124.195C44.8559 123.942 44.2131 123.763 43.5914 123.531C43.2753 123.426 42.9592 123.32 42.643 123.204C42.485 123.152 42.3269 123.089 42.1689 123.046L41.6736 122.93C40.3564 122.635 39.0182 122.256 37.6167 122.14C36.9212 122.066 36.2258 121.94 35.5198 121.898C34.8138 121.877 34.0972 121.856 33.3701 121.845C33.0119 121.845 32.643 121.813 32.2848 121.835C31.9265 121.866 31.5577 121.887 31.1889 121.919C30.4618 121.982 29.7242 122.014 28.9866 122.098C27.5324 122.372 26.0256 122.551 24.5714 123.025C24.2026 123.131 23.8338 123.236 23.465 123.331C23.2858 123.384 23.0962 123.426 22.917 123.489L22.3796 123.7C21.6631 123.984 20.936 124.258 20.2089 124.543C19.4924 124.859 18.8074 125.238 18.1014 125.586C17.7537 125.776 17.3849 125.923 17.0582 126.134L16.0466 126.766C14.6662 127.567 13.4228 128.6 12.1373 129.601C11.5472 130.159 10.9465 130.718 10.3564 131.287L9.90332 131.708C9.76634 131.856 9.62935 132.014 9.49236 132.172L8.67045 133.099L7.84853 134.037L7.11091 135.048L6.37329 136.071L6.00448 136.587C5.88857 136.766 5.79373 136.945 5.68836 137.135C5.26686 137.862 4.83483 138.6 4.41333 139.327C4.05506 140.096 3.70733 140.876 3.34905 141.655C2.04242 144.817 1.20996 148.22 0.883302 151.719C0.651479 155.228 0.957063 158.726 1.75791 162.045C1.98973 162.867 2.22155 163.689 2.44284 164.511C2.74842 165.301 3.05401 166.092 3.35959 166.871L3.59142 167.462L3.87593 168.02L4.44495 169.137L5.01397 170.254L5.67782 171.308L6.34168 172.351L6.67888 172.867L7.05822 173.352C7.56402 174.005 8.05928 174.648 8.56507 175.291C9.68204 176.471 10.7463 177.693 11.9897 178.694L12.8854 179.485C13.1805 179.748 13.5177 179.959 13.8338 180.191C14.4766 180.644 15.0983 181.129 15.7516 181.55C16.426 181.94 17.1004 182.33 17.7642 182.72L18.2595 183.015C18.4281 183.099 18.6072 183.173 18.7758 183.257C19.1236 183.415 19.4713 183.573 19.819 183.731C21.1783 184.427 22.6325 184.838 24.034 185.333C24.7505 185.544 25.4671 185.681 26.1836 185.86C26.5419 185.944 26.9002 186.028 27.2479 186.113C27.6062 186.187 27.9644 186.218 28.3227 186.271C29.0393 186.366 29.7453 186.46 30.4513 186.545C31.1573 186.608 31.8633 186.597 32.5693 186.629C33.9708 186.734 35.3406 186.555 36.7 186.471L37.2057 186.439C37.3743 186.418 37.5429 186.387 37.701 186.355C38.0277 186.302 38.3649 186.239 38.6915 186.187C39.3448 186.06 39.9982 185.976 40.6409 185.828C41.2732 185.649 41.8949 185.481 42.5166 185.301C42.8222 185.217 43.1383 185.133 43.4439 185.048C43.7389 184.933 44.034 184.827 44.329 184.711C44.9191 184.479 45.4987 184.258 46.0677 184.037C46.3628 183.932 46.6367 183.795 46.9002 183.658C47.1741 183.521 47.4481 183.384 47.7115 183.247C48.2489 182.973 48.7864 182.72 49.3027 182.435C49.7979 182.119 50.2932 181.813 50.7779 181.497C54.6662 179 57.6167 175.944 59.7242 172.952C59.9876 172.583 60.2616 172.214 60.5145 171.856C60.7358 171.476 60.9571 171.097 61.1678 170.728C61.3786 170.359 61.5893 170.001 61.8001 169.643C61.9054 169.464 62.0108 169.295 62.1056 169.116C62.1899 168.937 62.2742 168.758 62.3585 168.579C62.6852 167.862 63.0013 167.188 63.2964 166.534C63.5809 165.881 63.7705 165.217 63.9918 164.616C64.0972 164.311 64.2026 164.016 64.2974 163.731C64.4028 163.447 64.4976 163.162 64.5503 162.878C64.6873 162.319 64.8032 161.803 64.9191 161.318C65.0245 160.834 65.1509 160.391 65.2247 159.98C65.2774 159.569 65.3301 159.19 65.3828 158.852C65.4776 158.189 65.5514 157.672 65.5935 157.314C65.6567 156.945 65.6884 156.766 65.6884 156.766C65.6884 156.766 65.6778 156.945 65.6357 157.293C65.5935 157.651 65.5303 158.157 65.4565 158.831C65.4144 159.169 65.3722 159.548 65.3195 159.969C65.2458 160.38 65.1299 160.834 65.0245 161.318C64.9086 161.803 64.7927 162.33 64.6662 162.888C64.6135 163.173 64.5292 163.457 64.4239 163.742C64.329 164.026 64.2237 164.332 64.1183 164.638C63.897 165.249 63.7179 165.913 63.4334 166.576C63.1383 167.23 62.8222 167.915 62.4955 168.642C62.4112 168.821 62.3269 169 62.2532 169.19C62.1689 169.369 62.053 169.537 61.9581 169.727C61.7474 170.085 61.5472 170.444 61.3259 170.812C61.1151 171.181 60.8938 171.561 60.6726 171.95C60.4197 172.319 60.1562 172.678 59.8822 173.057C57.7748 176.071 54.8243 179.158 50.9149 181.687C50.4197 182.003 49.9244 182.309 49.4291 182.635C48.9128 182.92 48.3649 183.183 47.8274 183.457C47.5535 183.594 47.2795 183.731 47.0055 183.868C46.7316 184.005 46.4576 184.153 46.1625 184.258C45.583 184.479 45.0034 184.711 44.4133 184.943C44.1183 185.059 43.8232 185.175 43.5177 185.291C43.2121 185.375 42.8959 185.459 42.5904 185.554C41.9687 185.733 41.3364 185.902 40.7042 186.081C40.0614 186.239 39.4081 186.324 38.7442 186.45C38.4175 186.513 38.0804 186.566 37.7537 186.629C37.5851 186.661 37.4165 186.692 37.2479 186.713L36.7421 186.756C35.3828 186.84 33.9918 187.019 32.5798 186.924C31.8738 186.893 31.1573 186.914 30.4513 186.84C29.7453 186.745 29.0287 186.661 28.3016 186.566C27.9434 186.513 27.5746 186.492 27.2163 186.408C26.858 186.324 26.4997 186.239 26.1415 186.155C25.4249 185.976 24.6978 185.839 23.9708 185.628C22.5587 185.122 21.094 184.722 19.7242 184.016C19.3764 183.858 19.0287 183.7 18.6704 183.531C18.4913 183.447 18.3122 183.373 18.1436 183.289L17.6378 182.994C16.9634 182.604 16.289 182.214 15.6041 181.814C14.9402 181.392 14.3185 180.897 13.6652 180.444C13.3491 180.201 13.0013 179.991 12.7063 179.727L11.8001 178.937C10.5461 177.925 9.47129 176.692 8.34379 175.502C7.83799 174.848 7.33219 174.205 6.8264 173.552L6.44705 173.057L6.10986 172.53L5.43546 171.476L4.76107 170.412L4.19205 169.285L3.62303 168.157L3.33852 167.588L3.10669 166.998C2.80111 166.208 2.48499 165.407 2.1794 164.606C1.94758 163.784 1.71576 162.952 1.48393 162.119C0.672553 158.758 0.377506 155.238 0.609329 151.698C0.935989 148.168 1.77898 144.732 3.09616 141.54C3.45443 140.76 3.8127 139.969 4.17097 139.19C4.60301 138.452 5.03504 137.714 5.45654 136.977C5.56191 136.798 5.66728 136.608 5.7832 136.429L6.15201 135.913L6.88962 134.88L7.62724 133.858L8.4597 132.909L9.28162 131.972C9.4186 131.813 9.55559 131.655 9.69257 131.508L10.1457 131.086C10.7463 130.517 11.3469 129.959 11.9476 129.39C13.2437 128.389 14.4976 127.346 15.8991 126.534L16.9212 125.891C17.2584 125.681 17.6272 125.523 17.975 125.333C18.6915 124.985 19.387 124.595 20.1035 124.279C20.8412 123.995 21.5682 123.71 22.2953 123.426L22.8433 123.215C23.0224 123.152 23.2121 123.11 23.4017 123.057C23.7705 122.952 24.1499 122.846 24.5187 122.741C25.9834 122.267 27.5008 122.087 28.9655 121.813C29.7031 121.719 30.4513 121.698 31.1889 121.634C31.5577 121.603 31.9265 121.582 32.2848 121.55C32.6536 121.529 33.0119 121.561 33.3807 121.571C34.1077 121.592 34.8348 121.613 35.5514 121.634C36.2679 121.677 36.9634 121.803 37.6694 121.887C39.0814 122.014 40.4197 122.393 41.7474 122.699L42.2426 122.815C42.4112 122.857 42.5693 122.92 42.7273 122.973C43.0435 123.078 43.3701 123.194 43.6862 123.299C44.3185 123.531 44.9613 123.71 45.5619 123.963C46.1625 124.237 46.7526 124.511 47.3427 124.775C47.6378 124.911 47.9328 125.048 48.2173 125.175C48.5018 125.333 48.7653 125.491 49.0498 125.649C49.5977 125.965 50.1351 126.281 50.6726 126.597C50.9465 126.745 51.1994 126.924 51.4418 127.114C51.6947 127.293 51.937 127.472 52.1899 127.651C52.6747 128.009 53.1805 128.347 53.6441 128.715C54.0867 129.105 54.5292 129.495 54.9718 129.875C58.4386 132.973 60.8728 136.482 62.4955 139.79C64.0972 143.11 65.0245 146.187 65.3722 148.747C65.4249 149.063 65.4776 149.379 65.5303 149.674C65.5935 149.98 65.6357 150.264 65.6462 150.56C65.6884 151.129 65.72 151.666 65.7621 152.161C65.7937 152.656 65.8359 153.12 65.8464 153.542C65.8359 153.963 65.8148 154.342 65.8043 154.68C65.7832 155.354 65.7621 155.87 65.7516 156.229C65.6989 156.587 65.6884 156.766 65.6884 156.766Z" fill="#263238"/>
<path d="M424.803 0.601562H207.259V330.833H424.803V0.601562Z" fill="white"/>
<path d="M424.413 17.418H206.805V159.536H424.413V17.418Z" fill="#F3F6F9"/>
<path d="M259.967 179.578V182.813H264.614V183.951H259.967V187.703H258.639V178.43H265.183V179.578H259.967Z" fill="#263238"/>
<path d="M266.005 184.182C266.005 182.085 267.554 180.609 269.661 180.609C271.769 180.609 273.307 182.095 273.307 184.182C273.307 186.279 271.769 187.775 269.661 187.775C267.554 187.775 266.005 186.279 266.005 184.182ZM272.011 184.182C272.011 182.685 270.999 181.716 269.651 181.716C268.302 181.716 267.28 182.685 267.28 184.182C267.28 185.678 268.302 186.658 269.651 186.658C271.01 186.658 272.011 185.678 272.011 184.182Z" fill="#263238"/>
<path d="M278.839 180.609V181.842C278.734 181.832 278.639 181.832 278.544 181.832C277.185 181.832 276.331 182.664 276.331 184.203V187.701H275.056V180.683H276.278V181.863C276.732 181.031 277.606 180.609 278.839 180.609Z" fill="#263238"/>
<path d="M287.058 180.673V186.742C287.058 189.218 285.804 190.346 283.412 190.346C282.127 190.346 280.831 189.988 280.061 189.303L280.673 188.323C281.326 188.881 282.337 189.24 283.381 189.24C285.035 189.24 285.794 188.47 285.794 186.879V186.321C285.183 187.048 284.266 187.406 283.265 187.406C281.242 187.406 279.703 186.026 279.703 184.002C279.703 181.979 281.242 180.609 283.265 180.609C284.308 180.609 285.267 180.989 285.857 181.758V180.673H287.058ZM285.804 183.992C285.804 182.622 284.793 181.716 283.391 181.716C281.969 181.716 280.968 182.633 280.968 183.992C280.968 185.341 281.979 186.289 283.391 186.289C284.803 186.289 285.804 185.351 285.804 183.992Z" fill="#263238"/>
<path d="M288.829 184.182C288.829 182.085 290.378 180.609 292.485 180.609C294.593 180.609 296.131 182.095 296.131 184.182C296.131 186.279 294.593 187.775 292.485 187.775C290.378 187.775 288.829 186.279 288.829 184.182ZM294.845 184.182C294.845 182.685 293.834 181.716 292.485 181.716C291.136 181.716 290.114 182.685 290.114 184.182C290.114 185.678 291.136 186.658 292.485 186.658C293.834 186.658 294.845 185.678 294.845 184.182Z" fill="#263238"/>
<path d="M301.842 187.278C301.463 187.605 300.873 187.773 300.304 187.773C298.881 187.773 298.081 186.994 298.081 185.571V181.714H296.89V180.671H298.081V179.133H299.356V180.671H301.368V181.714H299.356V185.518C299.356 186.277 299.756 186.699 300.452 186.699C300.82 186.699 301.179 186.583 301.442 186.372L301.842 187.278Z" fill="#263238"/>
<path d="M314.213 184.182C314.213 186.342 312.717 187.775 310.662 187.775C309.672 187.775 308.797 187.395 308.207 186.637V190.262H306.932V180.673H308.154V181.79C308.723 181.01 309.629 180.609 310.662 180.609C312.717 180.609 314.213 182.032 314.213 184.182ZM312.928 184.182C312.928 182.696 311.906 181.716 310.557 181.716C309.219 181.716 308.196 182.696 308.196 184.182C308.196 185.678 309.219 186.658 310.557 186.658C311.916 186.658 312.928 185.678 312.928 184.182Z" fill="#263238"/>
<path d="M321.473 183.454V187.691H320.272V186.763C319.851 187.395 319.071 187.775 317.965 187.775C316.373 187.775 315.372 186.932 315.372 185.709C315.372 184.582 316.099 183.655 318.196 183.655H320.209V183.402C320.209 182.327 319.587 181.705 318.323 181.705C317.49 181.705 316.637 182 316.099 182.464L315.573 181.505C316.3 180.926 317.343 180.609 318.47 180.609C320.388 180.609 321.473 181.537 321.473 183.454ZM320.209 185.551V184.571H318.249C316.985 184.571 316.637 185.067 316.637 185.657C316.637 186.363 317.216 186.795 318.186 186.795C319.134 186.795 319.893 186.352 320.209 185.551Z" fill="#263238"/>
<path d="M322.949 186.956L323.476 185.944C324.076 186.366 325.025 186.671 325.941 186.671C327.122 186.671 327.606 186.313 327.606 185.712C327.606 184.132 323.17 185.501 323.17 182.709C323.17 181.455 324.298 180.602 326.099 180.602C327.016 180.602 328.049 180.844 328.66 181.234L328.112 182.245C327.48 181.834 326.774 181.687 326.089 181.687C324.972 181.687 324.435 182.098 324.435 182.656C324.435 184.311 328.881 182.962 328.881 185.691C328.881 186.966 327.712 187.767 325.847 187.767C324.687 187.778 323.539 187.419 322.949 186.956Z" fill="#263238"/>
<path d="M329.587 186.956L330.114 185.944C330.715 186.366 331.663 186.671 332.58 186.671C333.76 186.671 334.245 186.313 334.245 185.712C334.245 184.132 329.808 185.501 329.808 182.709C329.808 181.455 330.936 180.602 332.738 180.602C333.655 180.602 334.687 180.844 335.298 181.234L334.75 182.245C334.118 181.834 333.412 181.687 332.727 181.687C331.61 181.687 331.073 182.098 331.073 182.656C331.073 184.311 335.52 182.962 335.52 185.691C335.52 186.966 334.35 187.767 332.485 187.767C331.326 187.778 330.167 187.419 329.587 186.956Z" fill="#263238"/>
<path d="M347.606 180.676L344.982 187.694H343.76L341.737 182.372L339.682 187.694H338.46L335.846 180.676H337.048L339.092 186.271L341.21 180.676H342.285L344.361 186.292L346.458 180.676H347.606Z" fill="#263238"/>
<path d="M348.049 184.182C348.049 182.085 349.598 180.609 351.705 180.609C353.813 180.609 355.351 182.095 355.351 184.182C355.351 186.279 353.813 187.775 351.705 187.775C349.598 187.775 348.049 186.279 348.049 184.182ZM354.065 184.182C354.065 182.685 353.064 181.716 351.705 181.716C350.356 181.716 349.334 182.685 349.334 184.182C349.334 185.678 350.356 186.658 351.705 186.658C353.054 186.658 354.065 185.678 354.065 184.182Z" fill="#263238"/>
<path d="M360.884 180.609V181.842C360.778 181.832 360.683 181.832 360.588 181.832C359.219 181.832 358.376 182.664 358.376 184.203V187.701H357.101V180.683H358.323V181.863C358.776 181.031 359.651 180.609 360.884 180.609Z" fill="#263238"/>
<path d="M369.008 177.859V187.691H367.785V186.574C367.216 187.364 366.31 187.765 365.277 187.765C363.223 187.765 361.726 186.321 361.726 184.171C361.726 182.022 363.223 180.599 365.277 180.599C366.268 180.599 367.143 180.968 367.733 181.727V177.859H369.008ZM367.754 184.182C367.754 182.686 366.732 181.716 365.393 181.716C364.045 181.716 363.022 182.686 363.022 184.182C363.022 185.678 364.045 186.658 365.393 186.658C366.732 186.658 367.754 185.678 367.754 184.182Z" fill="#263238"/>
<path d="M375.562 180.873C375.562 180.03 374.856 179.44 373.665 179.44C372.59 179.44 371.821 179.809 371.294 180.483L370.325 179.798C371.052 178.86 372.211 178.312 373.76 178.312C375.667 178.312 376.9 179.198 376.9 180.673C376.9 182.886 374.55 183.033 374.55 184.761H373.222C373.233 182.686 375.562 182.39 375.562 180.873ZM373.054 186.922C373.054 186.447 373.412 186.079 373.918 186.079C374.413 186.079 374.761 186.447 374.761 186.922C374.761 187.385 374.403 187.765 373.918 187.765C373.412 187.775 373.054 187.385 373.054 186.922Z" fill="#263238"/>
<path d="M402.032 206.735C402.032 206.882 364.751 207.009 318.776 207.009C272.78 207.009 235.509 206.882 235.509 206.735C235.509 206.587 272.78 206.461 318.776 206.461C364.761 206.461 402.032 206.577 402.032 206.735Z" fill="black"/>
<path d="M366.5 215.629C366.5 215.777 345.13 215.903 318.786 215.903C292.422 215.903 271.062 215.777 271.062 215.629C271.062 215.482 292.422 215.355 318.786 215.355C345.13 215.355 366.5 215.482 366.5 215.629Z" fill="black"/>
<path d="M351.441 102.788C361.684 93.2306 362.242 77.1715 352.685 66.9292C343.127 56.6868 327.068 56.1283 316.826 65.6858C308.059 73.8628 306.394 86.7817 312.074 96.7711L306.91 101.587L308.143 110.154L300.135 107.909L293.675 113.937L294.908 122.503L286.9 120.259L281.346 125.443L282.095 130.67L277.216 129.3L273.981 132.314L273.496 140.248L285.33 143.231L323.738 107.403C332.78 111.439 343.749 109.964 351.441 102.788ZM347.69 71.5973C350.43 74.5372 350.272 79.142 347.332 81.8818C344.392 84.6215 339.787 84.4634 337.047 81.5235C334.307 78.5836 334.466 73.9787 337.405 71.239C340.345 68.4887 344.95 68.6573 347.69 71.5973Z" fill="#263238"/>
<path d="M347.69 71.585C347.648 71.6376 347.216 71.1424 346.246 70.5418C345.298 69.9622 343.675 69.3089 341.662 69.5407C339.692 69.7304 337.342 70.9949 336.151 73.3763C334.929 75.6946 335.161 79.0665 337.279 81.3005C339.355 83.566 342.716 84.0402 345.108 82.9759C347.563 81.9538 348.997 79.6988 349.313 77.7388C349.681 75.7472 349.144 74.0929 348.628 73.1024C348.101 72.0802 347.648 71.6271 347.69 71.585C347.711 71.5744 347.827 71.6798 348.038 71.9011C348.259 72.1224 348.543 72.4806 348.838 72.9864C349.439 73.977 350.082 75.6946 349.755 77.8231C349.471 79.9095 347.985 82.3753 345.329 83.5133C344.033 84.0823 342.484 84.3036 340.956 84.0086C339.429 83.7451 337.943 82.9338 336.815 81.743C335.698 80.5312 335.003 78.9928 334.845 77.4543C334.655 75.9158 334.982 74.3774 335.635 73.1234C336.952 70.5523 339.513 69.2457 341.62 69.1087C343.77 68.9295 345.435 69.6882 346.383 70.3521C346.868 70.6893 347.205 70.9949 347.405 71.2267C347.606 71.4374 347.711 71.5639 347.69 71.585Z" fill="#263238"/>
<path d="M351.441 102.775C351.441 102.775 351.325 102.902 351.072 103.123C350.809 103.366 350.44 103.692 349.955 104.124C348.912 104.925 347.353 106.137 345.045 107.243C342.748 108.339 339.713 109.361 336.025 109.667C332.358 109.941 328.017 109.477 323.654 107.549L323.865 107.517C313.97 116.79 300.798 129.119 285.53 143.418L285.414 143.524L285.266 143.481C281.547 142.554 277.532 141.543 273.433 140.51L273.19 140.447L273.201 140.204C273.348 137.728 273.517 135.02 273.675 132.27L273.686 132.154L273.77 132.069C274.771 131.132 275.877 130.099 276.994 129.056L277.121 128.94L277.289 128.982C278.807 129.403 280.482 129.878 282.168 130.352L281.778 130.689C281.547 129.056 281.283 127.264 281.02 125.462L280.999 125.304L281.115 125.189C282.864 123.555 284.75 121.795 286.668 120.004L286.794 119.888L286.963 119.941C289.492 120.647 292.221 121.416 294.971 122.185L294.571 122.533C294.181 119.814 293.759 116.906 293.338 113.966L293.317 113.798L293.433 113.682C293.97 113.176 294.56 112.628 295.14 112.08C296.731 110.594 298.312 109.119 299.882 107.654L300.008 107.528L300.177 107.581C302.874 108.339 305.54 109.087 308.185 109.825L307.785 110.173C307.374 107.285 306.963 104.43 306.552 101.606L306.531 101.448L306.647 101.332C308.385 99.7091 310.103 98.1074 311.81 96.5162L311.757 96.8956C309.755 93.3023 308.607 89.3192 308.459 85.3466C308.375 83.3655 308.491 81.3845 308.881 79.4772C309.207 77.5594 309.829 75.7154 310.567 73.9556C313.612 66.9061 319.755 61.8376 326.341 59.7934C332.969 57.6964 339.913 58.5289 345.33 61.2264C350.83 63.8819 354.739 68.3497 357.005 72.8914C359.228 77.5067 359.871 82.217 359.502 86.2106C359.176 90.2149 357.974 93.5236 356.657 95.9788C356.499 96.2844 356.341 96.59 356.183 96.885C356.004 97.159 355.825 97.433 355.667 97.6859C355.319 98.2022 355.034 98.708 354.708 99.1295C354.023 99.9514 353.496 100.7 352.98 101.216C352.474 101.722 352.084 102.112 351.81 102.386C351.589 102.66 351.441 102.775 351.441 102.775C351.441 102.775 351.557 102.628 351.81 102.354C352.084 102.069 352.453 101.669 352.938 101.153C353.443 100.626 353.949 99.8777 354.613 99.0452C354.929 98.6237 355.214 98.1179 355.551 97.6016C355.719 97.3381 355.888 97.0747 356.057 96.8007C356.204 96.5057 356.352 96.2106 356.51 95.8945C357.785 93.4393 358.944 90.1622 359.239 86.2001C359.576 82.2591 358.902 77.6121 356.699 73.081C354.434 68.6237 350.588 64.2507 345.171 61.669C339.84 59.0452 333.032 58.2444 326.552 60.3202C320.113 62.3329 314.118 67.3171 311.157 74.198C310.43 75.9156 309.829 77.7175 309.513 79.5932C309.144 81.4583 309.028 83.3972 309.112 85.3255C309.26 89.2033 310.387 93.0916 312.347 96.6005L312.463 96.8113L312.284 96.9799C310.577 98.571 308.86 100.173 307.121 101.795L307.216 101.521C307.627 104.346 308.038 107.201 308.449 110.088L308.522 110.563L308.059 110.436C305.414 109.699 302.737 108.95 300.05 108.192L300.356 108.118C298.786 109.583 297.205 111.058 295.614 112.544C295.024 113.092 294.444 113.64 293.907 114.145L294.002 113.871C294.423 116.811 294.845 119.72 295.235 122.438L295.308 122.923L294.845 122.797C292.095 122.027 289.365 121.258 286.836 120.552L287.131 120.478C285.224 122.259 283.327 124.029 281.578 125.652L281.673 125.378C281.936 127.18 282.189 128.971 282.421 130.605L282.484 131.079L282.031 130.952C280.345 130.478 278.67 130.004 277.152 129.583L277.448 129.509C276.331 130.552 275.214 131.585 274.213 132.523L274.307 132.322C274.139 135.073 273.97 137.781 273.823 140.257L273.601 139.951C277.711 140.984 281.726 142.006 285.435 142.944L285.171 143.007C300.493 128.761 313.707 116.485 323.644 107.243L323.738 107.159L323.854 107.212C328.132 109.13 332.411 109.625 336.046 109.382C339.692 109.108 342.706 108.128 344.992 107.075C347.289 106 348.86 104.83 349.924 104.061C350.419 103.65 350.798 103.334 351.072 103.113C351.304 102.881 351.441 102.775 351.441 102.775Z" fill="#263238"/>
<path d="M350.598 99.9091C360.841 90.3516 361.399 74.2926 351.842 64.0503C342.284 53.8079 326.225 53.2494 315.983 62.8069C307.216 70.9839 305.551 83.9028 311.231 93.8922L311.22 93.9028L306.067 98.7078L307.3 107.275L299.292 105.03L292.832 111.058L294.065 119.625L286.057 117.38L280.503 122.565L281.252 127.791L276.373 126.421L273.138 129.435L272.653 137.37L284.487 140.352L322.895 104.524C331.926 108.56 342.895 107.085 350.598 99.9091ZM346.847 68.7078C349.587 71.6477 349.429 76.2526 346.489 78.9923C343.549 81.732 338.944 81.574 336.204 78.634C333.464 75.6941 333.623 71.0893 336.562 68.3495C339.492 65.6098 344.107 65.7679 346.847 68.7078Z" fill="#0D5785"/>
<path d="M346.847 68.7178C346.805 68.7705 346.373 68.2752 345.404 67.6746C344.455 67.095 342.833 66.4417 340.82 66.6735C338.849 66.8632 336.5 68.1277 335.309 70.5091C334.087 72.8168 334.318 76.1993 336.436 78.4333C338.512 80.6988 341.874 81.173 344.266 80.1087C346.721 79.0866 348.154 76.8316 348.47 74.8716C348.839 72.8801 348.301 71.2257 347.785 70.2352C347.258 69.2236 346.795 68.7599 346.847 68.7178C346.868 68.7072 346.984 68.8126 347.195 69.0339C347.416 69.2552 347.701 69.6135 347.996 70.1193C348.597 71.1098 349.239 72.8274 348.913 74.9559C348.628 77.0423 347.142 79.5081 344.487 80.6461C343.191 81.2151 341.642 81.4364 340.114 81.1414C338.586 80.8779 337.1 80.0666 335.973 78.8758C334.856 77.664 334.16 76.1256 334.002 74.5871C333.813 73.0486 334.139 71.5102 334.793 70.2562C336.11 67.6851 338.67 66.3785 340.778 66.2415C342.927 66.0623 344.592 66.821 345.541 67.4849C346.025 67.8221 346.363 68.1277 346.563 68.3595C346.763 68.5808 346.858 68.7072 346.847 68.7178Z" fill="#263238"/>
<path d="M350.599 99.9122C350.599 99.9122 350.483 100.039 350.23 100.26C349.967 100.502 349.598 100.829 349.113 101.261C348.07 102.062 346.51 103.274 344.203 104.38C341.906 105.476 338.871 106.498 335.183 106.804C331.516 107.078 327.174 106.614 322.812 104.686L323.023 104.654C313.128 113.927 299.956 126.256 284.687 140.555L284.572 140.66L284.424 140.618C280.704 139.691 276.69 138.679 272.591 137.647L272.348 137.583L272.359 137.341C272.506 134.865 272.675 132.157 272.833 129.406L272.843 129.29L272.928 129.206C273.929 128.268 275.035 127.236 276.152 126.192L276.279 126.077L276.447 126.119C277.965 126.54 279.64 127.014 281.326 127.489L280.936 127.826C280.704 126.192 280.441 124.401 280.177 122.599L280.156 122.441L280.272 122.325C282.022 120.692 283.908 118.932 285.825 117.141L285.952 117.025L286.121 117.078C288.65 117.784 291.379 118.553 294.129 119.322L293.729 119.67C293.339 116.951 292.917 114.043 292.496 111.103L292.475 110.934L292.591 110.818C293.128 110.313 293.718 109.765 294.298 109.217C295.889 107.731 297.469 106.256 299.039 104.791L299.166 104.665L299.334 104.717C302.032 105.476 304.698 106.224 307.343 106.962L306.942 107.309C306.532 104.422 306.121 101.567 305.71 98.7425L305.689 98.5844L305.804 98.4685C307.543 96.8458 309.261 95.2441 310.968 93.6529L310.915 94.0323C308.913 90.439 307.764 86.4559 307.617 82.4833C307.533 80.5023 307.648 78.5212 308.038 76.614C308.365 74.6961 308.987 72.8521 309.724 71.0924C312.77 64.0428 318.913 58.9743 325.499 56.9301C332.127 54.8331 339.071 55.6656 344.487 58.3632C349.988 61.0186 353.897 65.4865 356.163 70.0281C358.386 74.6435 359.029 79.3537 358.66 83.3474C358.333 87.3621 357.132 90.6603 355.815 93.1155C355.657 93.4211 355.499 93.7267 355.341 94.0218C355.162 94.2957 354.993 94.5697 354.824 94.8226C354.477 95.3389 354.192 95.8447 353.866 96.2662C353.181 97.0881 352.654 97.8363 352.137 98.3526C351.632 98.8584 351.242 99.2483 350.968 99.5223C350.736 99.7857 350.599 99.9122 350.599 99.9122C350.599 99.9122 350.715 99.7646 350.968 99.4907C351.242 99.2062 351.611 98.8057 352.095 98.2894C352.601 97.7625 353.107 97.0144 353.771 96.1819C354.087 95.7604 354.371 95.2546 354.709 94.7383C354.877 94.4749 355.046 94.2114 355.214 93.9375C355.362 93.6424 355.509 93.3474 355.667 93.0312C356.942 90.576 358.102 87.2989 358.397 83.3368C358.734 79.3958 358.059 74.7488 355.857 70.2283C353.592 65.771 349.745 61.3979 344.329 58.8163C338.997 56.1925 332.19 55.3916 325.71 57.4675C319.271 59.4801 313.275 64.4643 310.314 71.3453C309.587 73.0628 308.987 74.8647 308.671 76.7404C308.302 78.6055 308.186 80.5444 308.27 82.4727C308.418 86.3505 309.545 90.2388 311.505 93.7478L311.621 93.9585L311.442 94.1166C309.735 95.7077 308.017 97.3094 306.279 98.9322L306.373 98.6582C306.784 101.482 307.195 104.338 307.606 107.225L307.68 107.699L307.216 107.573C304.572 106.835 301.895 106.087 299.208 105.328L299.514 105.255C297.944 106.719 296.363 108.195 294.772 109.68C294.182 110.228 293.602 110.776 293.065 111.282L293.16 111.008C293.581 113.948 294.003 116.856 294.392 119.575L294.466 120.06L294.003 119.933C291.252 119.164 288.523 118.395 285.994 117.689L286.289 117.615C284.382 119.396 282.485 121.166 280.736 122.789L280.831 122.515C281.094 124.317 281.347 126.108 281.579 127.741L281.642 128.216L281.189 128.089C279.503 127.615 277.828 127.141 276.31 126.719L276.605 126.646C275.488 127.689 274.371 128.721 273.37 129.659L273.465 129.459C273.297 132.209 273.128 134.917 272.98 137.394L272.759 137.088C276.869 138.121 280.883 139.143 284.593 140.081L284.329 140.144C299.651 125.897 312.864 113.621 322.801 104.38L322.896 104.296L323.012 104.348C327.29 106.266 331.568 106.761 335.204 106.519C338.85 106.245 341.863 105.265 344.15 104.211C346.447 103.137 348.017 101.967 349.082 101.198C349.577 100.787 349.956 100.471 350.23 100.249C350.451 100.007 350.599 99.9122 350.599 99.9122Z" fill="#263238"/>
<path d="M348.27 97.9271C348.186 97.8533 349.756 96.5994 351.674 93.6278C352.654 92.1631 353.581 90.1821 354.287 87.7901C354.972 85.3876 355.341 82.5214 355.014 79.3918C354.677 76.2833 353.686 72.8902 351.674 69.7922C349.661 66.7258 346.784 63.8175 343.054 61.9945C341.22 61.0251 339.187 60.3507 337.058 59.9713C335.994 59.7395 334.898 59.6868 333.802 59.592C332.696 59.6131 331.579 59.592 330.462 59.7606C325.973 60.2348 321.547 62.279 318.028 65.5035C314.561 68.7912 312.211 73.0693 311.431 77.5161C311.189 78.6226 311.126 79.7395 311.031 80.8354C311.052 81.9418 311.02 83.0377 311.178 84.1126C311.41 86.2622 311.948 88.3486 312.78 90.2348C314.35 94.0809 317.048 97.1473 319.967 99.3707C322.917 101.594 326.236 102.816 329.313 103.375C332.411 103.923 335.298 103.754 337.743 103.238C340.188 102.701 342.222 101.921 343.749 101.036C346.837 99.318 348.196 97.8428 348.27 97.9271C348.281 97.9376 348.196 98.0219 348.017 98.18C347.817 98.3591 347.553 98.6015 347.227 98.886C346.879 99.2021 346.437 99.5815 345.867 99.9608C345.309 100.361 344.666 100.835 343.876 101.236C342.348 102.153 340.293 102.985 337.827 103.565C335.351 104.123 332.411 104.334 329.25 103.796C326.099 103.259 322.706 102.037 319.661 99.7711C316.658 97.5161 313.876 94.3865 312.253 90.435C311.389 88.4961 310.831 86.357 310.588 84.1547C310.42 83.0483 310.451 81.9208 310.43 80.7827C310.525 79.6552 310.578 78.5066 310.831 77.3686C311.631 72.8059 314.045 68.3907 317.606 65.0082C321.231 61.6889 325.794 59.592 330.399 59.1073C331.547 58.9387 332.696 58.9598 333.834 58.9492C334.961 59.0441 336.089 59.0967 337.185 59.3391C339.376 59.7395 341.463 60.4455 343.338 61.436C347.164 63.3328 350.093 66.3254 352.137 69.4761C354.181 72.6584 355.172 76.1463 355.488 79.318C355.794 82.5109 355.383 85.4297 354.656 87.8639C353.908 90.2875 352.938 92.279 351.916 93.7437C351.452 94.513 350.936 95.1136 350.504 95.6405C350.082 96.1884 349.682 96.5994 349.345 96.926C349.029 97.2316 348.776 97.474 348.586 97.6742C348.365 97.8533 348.27 97.9376 348.27 97.9271Z" fill="#263238"/>
<path d="M347.237 79.9245C347.184 79.8718 347.764 79.3766 348.47 78.2385C349.166 77.1216 349.935 75.2248 349.671 72.8539C349.534 71.6843 349.155 70.4198 348.396 69.2607C347.638 68.1121 346.552 67.0373 345.161 66.3523C343.791 65.6463 342.127 65.3091 340.451 65.5304C338.776 65.7096 337.121 66.4788 335.815 67.6801C334.519 68.9129 333.644 70.5041 333.349 72.1584C333.022 73.8128 333.243 75.4988 333.844 76.9108C334.424 78.3544 335.435 79.503 336.521 80.346C337.627 81.189 338.86 81.6527 340.019 81.8739C342.369 82.2954 344.308 81.6632 345.477 81.052C346.658 80.4092 347.184 79.8718 347.237 79.9245C347.248 79.9456 347.121 80.072 346.858 80.3249C346.605 80.5778 346.183 80.915 345.593 81.2628C344.434 81.9582 342.432 82.6959 339.945 82.3165C338.723 82.1163 337.395 81.6527 336.215 80.778C335.045 79.9034 333.949 78.6916 333.317 77.1532C332.653 75.6358 332.4 73.8339 332.748 72.0531C333.054 70.2723 334.002 68.5441 335.393 67.2269C336.805 65.9308 338.596 65.1089 340.388 64.9298C342.179 64.7085 343.971 65.0879 345.435 65.8465C346.921 66.5947 348.059 67.7644 348.849 68.9867C349.64 70.2301 350.019 71.5894 350.124 72.8223C350.335 75.3302 349.461 77.2796 348.691 78.3861C348.301 78.9551 347.943 79.345 347.669 79.5873C347.395 79.8191 347.248 79.9351 347.237 79.9245Z" fill="#263238"/>
<path d="M281.389 138.924C281.273 138.798 289.914 130.536 300.704 120.473C311.494 110.41 320.335 102.359 320.451 102.486C320.567 102.612 311.926 110.874 301.136 120.937C290.356 131 281.516 139.061 281.389 138.924Z" fill="#263238"/>
<path d="M286.163 88.643L286.51 87.8633L286.985 88.5798C287.364 89.1594 287.891 89.6125 288.523 89.8865L289.303 90.2342L288.586 90.7084C288.007 91.0877 287.554 91.6146 287.28 92.2468L286.932 93.0266L286.458 92.3101C286.078 91.7305 285.551 91.2774 284.919 91.0034L284.139 90.6557L284.856 90.1815C285.425 89.8127 285.878 89.2753 286.163 88.643Z" fill="#0D5785"/>
<path d="M262.643 82.7851L262.843 82.332L263.117 82.7535C263.338 83.0907 263.644 83.3542 264.013 83.5122L264.466 83.7124L264.044 83.9864C263.707 84.2077 263.444 84.5133 263.286 84.8821L263.085 85.3352L262.811 84.9137C262.59 84.5765 262.285 84.3131 261.916 84.155L261.463 83.9548L261.884 83.6808C262.211 83.4595 262.474 83.1539 262.643 82.7851Z" fill="#0D5785"/>
<path d="M336.689 122.867L336.89 122.414L337.164 122.836C337.385 123.173 337.691 123.436 338.059 123.594L338.512 123.794L338.091 124.068C337.754 124.29 337.49 124.595 337.332 124.964L337.132 125.417L336.858 124.996C336.637 124.659 336.331 124.395 335.962 124.237L335.509 124.037L335.931 123.763C336.268 123.542 336.531 123.225 336.689 122.867Z" fill="#0D5785"/>
<path d="M372.948 102.315L373.296 101.535L373.77 102.252C374.15 102.831 374.677 103.284 375.309 103.558L376.089 103.906L375.372 104.38C374.793 104.76 374.339 105.286 374.065 105.919L373.718 106.698L373.244 105.982C372.864 105.402 372.337 104.949 371.705 104.675L370.925 104.328L371.642 103.853C372.211 103.485 372.664 102.947 372.948 102.315Z" fill="#0D5785"/>
<path d="M368.228 73.5242L368.818 72.207L369.608 73.4083C370.24 74.3777 371.136 75.1364 372.19 75.6106L373.507 76.2007L372.306 76.991C371.336 77.6233 370.577 78.5189 370.103 79.5727L369.513 80.8899L368.723 79.6886C368.091 78.7191 367.195 77.9605 366.141 77.4863L364.824 76.8962L366.025 76.1059C366.995 75.4842 367.753 74.5779 368.228 73.5242Z" fill="#0D5785"/>
<path d="M278.85 64.6492L279.44 63.332L280.23 64.5333C280.862 65.5027 281.758 66.2614 282.812 66.7356L284.129 67.3257L282.928 68.116C281.958 68.7483 281.199 69.6439 280.725 70.6977L280.135 72.0149L279.345 70.8136C278.713 69.8441 277.817 69.0855 276.763 68.6113L275.446 68.0212L276.647 67.2309C277.617 66.5986 278.375 65.7029 278.85 64.6492Z" fill="#0D5785"/>
<rect x="231.353" y="272.211" width="175.5" height="31.5" fill="#0D5785"/>
<path d="M284.076 292.16L282.369 289.768C282.148 289.8 281.916 289.821 281.674 289.821H279.63V292.16H279.113V285.016H281.674C283.476 285.016 284.551 285.911 284.551 287.429C284.551 288.567 283.939 289.346 282.875 289.663L284.666 292.16H284.076ZM281.674 289.368C283.202 289.368 284.024 288.651 284.024 287.429C284.024 286.196 283.202 285.49 281.674 285.49H279.63V289.368H281.674Z" fill="white"/>
<path d="M290.799 289.624H286.215C286.268 290.888 287.195 291.752 288.47 291.752C289.145 291.752 289.766 291.51 290.177 291.004L290.472 291.341C289.998 291.91 289.271 292.205 288.46 292.205C286.847 292.205 285.709 291.078 285.709 289.497C285.709 287.917 286.805 286.789 288.26 286.789C289.714 286.789 290.799 287.895 290.799 289.476C290.81 289.529 290.799 289.571 290.799 289.624ZM286.226 289.223H290.314C290.241 288.075 289.408 287.242 288.27 287.242C287.143 287.242 286.31 288.064 286.226 289.223Z" fill="white"/>
<path d="M291.611 291.52L291.842 291.109C292.253 291.457 292.98 291.752 293.76 291.752C294.888 291.752 295.33 291.352 295.33 290.751C295.33 289.202 291.8 290.34 291.8 288.254C291.8 287.442 292.475 286.789 293.823 286.789C294.498 286.789 295.235 286.989 295.646 287.305L295.415 287.716C294.962 287.39 294.382 287.232 293.813 287.232C292.77 287.232 292.317 287.664 292.317 288.233C292.317 289.834 295.847 288.707 295.847 290.73C295.847 291.594 295.098 292.195 293.739 292.195C292.865 292.205 292.032 291.91 291.611 291.52Z" fill="white"/>
<path d="M301.779 289.624H297.195C297.248 290.888 298.175 291.752 299.45 291.752C300.125 291.752 300.746 291.51 301.157 291.004L301.452 291.341C300.978 291.91 300.251 292.205 299.44 292.205C297.828 292.205 296.689 291.078 296.689 289.497C296.689 287.917 297.785 286.789 299.24 286.789C300.694 286.789 301.779 287.895 301.779 289.476C301.79 289.529 301.779 289.571 301.779 289.624ZM297.206 289.223H301.294C301.221 288.075 300.388 287.242 299.25 287.242C298.112 287.242 297.29 288.064 297.206 289.223Z" fill="white"/>
<path d="M306.015 291.837C305.751 292.09 305.319 292.217 304.919 292.217C303.981 292.217 303.465 291.669 303.465 290.763V287.285H302.485V286.843H303.465V285.684H303.971V286.843H305.667V287.285H303.971V290.72C303.971 291.405 304.308 291.785 304.961 291.785C305.277 291.785 305.572 291.679 305.794 291.49L306.015 291.837Z" fill="white"/>
<path d="M315.668 287.434C315.668 288.93 314.582 289.836 312.791 289.836H310.747V292.176H310.23V285.031H312.791C314.582 285.021 315.668 285.927 315.668 287.434ZM315.141 287.434C315.141 286.201 314.319 285.495 312.791 285.495H310.747V289.362H312.791C314.319 289.362 315.141 288.656 315.141 287.434Z" fill="white"/>
<path d="M321.063 288.794V292.176H320.578V291.228C320.241 291.839 319.587 292.218 318.66 292.218C317.469 292.218 316.742 291.607 316.742 290.701C316.742 289.9 317.248 289.215 318.734 289.215H320.557V288.783C320.557 287.793 320.019 287.266 318.976 287.266C318.238 287.266 317.575 287.54 317.143 287.94L316.89 287.571C317.417 287.097 318.196 286.813 319.029 286.813C320.325 286.802 321.063 287.476 321.063 288.794ZM320.546 290.596V289.595H318.734C317.627 289.595 317.237 290.058 317.237 290.669C317.237 291.365 317.775 291.797 318.723 291.797C319.619 291.797 320.241 291.365 320.546 290.596Z" fill="white"/>
<path d="M322.38 291.52L322.612 291.109C323.023 291.457 323.75 291.752 324.53 291.752C325.657 291.752 326.1 291.352 326.1 290.751C326.1 289.202 322.57 290.34 322.57 288.254C322.57 287.442 323.244 286.789 324.593 286.789C325.267 286.789 326.005 286.989 326.416 287.305L326.184 287.716C325.731 287.39 325.151 287.232 324.582 287.232C323.539 287.232 323.086 287.664 323.086 288.233C323.086 289.834 326.616 288.707 326.616 290.73C326.616 291.594 325.868 292.195 324.508 292.195C323.634 292.205 322.801 291.91 322.38 291.52Z" fill="white"/>
<path d="M327.259 291.52L327.49 291.109C327.901 291.457 328.628 291.752 329.408 291.752C330.536 291.752 330.978 291.352 330.978 290.751C330.978 289.202 327.448 290.34 327.448 288.254C327.448 287.442 328.123 286.789 329.471 286.789C330.146 286.789 330.883 286.989 331.294 287.305L331.063 287.716C330.609 287.39 330.03 287.232 329.461 287.232C328.418 287.232 327.965 287.664 327.965 288.233C327.965 289.834 331.495 288.707 331.495 290.73C331.495 291.594 330.746 292.195 329.387 292.195C328.512 292.205 327.68 291.91 327.259 291.52Z" fill="white"/>
<path d="M340.441 286.84L338.418 292.172H337.933L336.131 287.546L334.329 292.172H333.855L331.832 286.84H332.317L334.098 291.592L335.91 286.84H336.353L338.154 291.582L339.956 286.84H340.441Z" fill="white"/>
<path d="M340.894 289.505C340.894 287.924 342.032 286.797 343.56 286.797C345.088 286.797 346.226 287.924 346.226 289.505C346.226 291.086 345.088 292.213 343.56 292.213C342.032 292.213 340.894 291.086 340.894 289.505ZM345.699 289.505C345.699 288.167 344.782 287.261 343.56 287.261C342.337 287.261 341.41 288.167 341.41 289.505C341.41 290.843 342.327 291.749 343.56 291.749C344.782 291.749 345.699 290.843 345.699 289.505Z" fill="white"/>
<path d="M350.325 286.797V287.292C350.283 287.292 350.241 287.282 350.199 287.282C349.018 287.282 348.312 288.072 348.312 289.389V292.171H347.807V286.839H348.291V287.998C348.618 287.229 349.324 286.797 350.325 286.797Z" fill="white"/>
<path d="M356.426 284.598V292.174H355.931V290.92C355.51 291.742 354.709 292.216 353.75 292.216C352.254 292.216 351.115 291.099 351.115 289.508C351.115 287.906 352.254 286.8 353.75 286.8C354.698 286.8 355.499 287.274 355.921 288.075V284.598H356.426ZM355.91 289.508C355.91 288.17 354.993 287.264 353.771 287.264C352.549 287.264 351.621 288.17 351.621 289.508C351.621 290.846 352.538 291.753 353.771 291.753C354.993 291.753 355.91 290.846 355.91 289.508Z" fill="white"/>
<path d="M424.403 17.4302C424.403 17.5777 375.688 17.7042 315.604 17.7042C255.499 17.7042 206.795 17.5777 206.795 17.4302C206.795 17.2827 255.499 17.1562 315.604 17.1562C375.688 17.1563 424.403 17.2827 424.403 17.4302Z" fill="#263238"/>
<path d="M219.145 8.78161C219.145 10.2463 217.954 11.4265 216.5 11.4265C215.035 11.4265 213.855 10.2358 213.855 8.78161C213.855 7.32745 215.046 6.13672 216.5 6.13672C217.954 6.13672 219.145 7.31691 219.145 8.78161Z" fill="#0D5785"/>
<path d="M226.753 8.78161C226.753 10.2463 225.562 11.4265 224.108 11.4265C222.643 11.4265 221.463 10.2358 221.463 8.78161C221.463 7.32745 222.654 6.13672 224.108 6.13672C225.562 6.13672 226.753 7.31691 226.753 8.78161Z" fill="#7DA9C5"/>
<path d="M234.35 8.78161C234.35 10.2463 233.159 11.4265 231.705 11.4265C230.251 11.4265 229.06 10.2358 229.06 8.78161C229.06 7.32745 230.251 6.13672 231.705 6.13672C233.159 6.13672 234.35 7.31691 234.35 8.78161Z" fill="#B2DAF2"/>
<path d="M424.793 330.838C424.793 328.583 424.687 194.969 424.54 0.606004L424.793 0.858902C358.186 0.869439 284.413 0.869439 206.89 0.879976H206.869L207.143 0.606004C207.122 125.221 207.101 240.111 207.09 330.838L206.869 330.617C339.777 330.754 423.012 330.838 424.793 330.838C423.012 330.838 339.777 330.922 206.869 331.059H206.647V330.838C206.637 240.111 206.616 125.221 206.595 0.606004V0.332031H206.869H206.89C284.413 0.342569 358.186 0.342569 424.793 0.353106H425.046V0.606004C424.898 194.969 424.793 328.583 424.793 330.838Z" fill="#263238"/>
<path d="M231.589 264.967V235.549H405.653V264.967H231.589Z" fill="white" stroke="#AEAEAE" stroke-width="0.472807"/>
<g opacity="0.4">
<path d="M246.983 253.171V253.957H240.914V245.383H246.801V246.169H241.828V249.204H246.252V249.972H241.828V253.153H246.983V253.171Z" fill="#263238"/>
<path d="M248.19 250.246H251.39V251.014H248.19V250.246Z" fill="#263238"/>
<path d="M263.967 250.203V253.933H263.09V250.276C263.09 248.924 262.395 248.211 261.243 248.211C259.927 248.211 259.086 249.07 259.086 250.532V253.915H258.208V250.258C258.208 248.905 257.514 248.192 256.344 248.192C255.027 248.192 254.186 249.052 254.186 250.514V253.896H253.345V247.461H254.186V248.631C254.643 247.863 255.466 247.406 256.545 247.406C257.605 247.406 258.446 247.863 258.83 248.759C259.287 247.918 260.219 247.406 261.371 247.406C262.943 247.443 263.967 248.357 263.967 250.203Z" fill="#263238"/>
<path d="M271.189 249.954V253.939H270.348V252.934C269.964 253.592 269.196 253.994 268.135 253.994C266.673 253.994 265.777 253.226 265.777 252.129C265.777 251.142 266.417 250.301 268.263 250.301H270.311V249.917C270.311 248.82 269.689 248.217 268.483 248.217C267.642 248.217 266.874 248.51 266.344 248.967L265.96 248.327C266.618 247.778 267.569 247.449 268.574 247.449C270.238 247.449 271.189 248.29 271.189 249.954ZM270.311 252.02V250.959H268.282C267.039 250.959 266.636 251.453 266.636 252.111C266.636 252.861 267.24 253.318 268.263 253.318C269.251 253.318 269.982 252.861 270.311 252.02Z" fill="#263238"/>
<path d="M273.346 245.473C273.346 245.144 273.62 244.852 273.986 244.852C274.333 244.852 274.626 245.126 274.626 245.455C274.626 245.802 274.351 246.095 273.986 246.095C273.62 246.095 273.346 245.821 273.346 245.473ZM273.547 247.502H274.425V253.938H273.547V247.502Z" fill="#263238"/>
<path d="M276.838 244.852H277.715V253.938H276.838V244.852Z" fill="#263238"/>
</g>
<path d="M420.81 419.831C420.821 419.831 420.758 419.683 420.631 419.399C420.484 419.093 420.294 418.682 420.052 418.166C419.556 417.081 418.924 415.426 418.355 413.224C417.228 408.83 416.838 402.117 418.503 394.141C419.272 390.147 420.526 385.869 422.043 381.327C423.54 376.775 425.278 371.949 426.701 366.733C428.102 361.527 429.219 355.879 428.998 349.957C428.787 344.025 427.027 338.103 425.089 332.202C423.16 326.301 421.169 320.526 420.568 314.72C419.894 308.925 421.137 303.234 423.771 298.577C426.332 293.867 429.546 289.831 431.959 285.658C434.404 281.496 435.932 277.218 436.88 273.245C438.703 265.226 438.071 258.461 437.196 254.004C436.248 249.525 435.194 247.207 435.194 247.207C435.183 247.207 435.226 247.365 435.31 247.66C435.415 247.987 435.542 248.408 435.721 248.967C436.079 250.115 436.532 251.822 436.964 254.056C437.765 258.503 438.334 265.215 436.469 273.15C435.51 277.081 433.972 281.306 431.537 285.405C429.135 289.525 425.9 293.54 423.297 298.313C420.6 303.024 419.304 308.904 419.988 314.794C420.589 320.695 422.602 326.512 424.52 332.413C426.448 338.303 428.187 344.162 428.408 349.999C428.629 355.827 427.544 361.422 426.163 366.606C424.762 371.801 423.044 376.627 421.569 381.19C420.062 385.742 418.84 390.063 418.092 394.088C416.469 402.117 416.933 408.904 418.144 413.308C418.756 415.511 419.43 417.165 419.967 418.24C420.231 418.756 420.442 419.156 420.6 419.452C420.726 419.694 420.8 419.831 420.81 419.831Z" fill="#263238"/>
<path d="M428.692 289.76C428.692 289.76 433.581 274.123 424.814 264.966C424.508 264.65 423.96 264.797 423.887 265.24C423.413 267.822 422.822 275.682 428.692 289.76Z" fill="#0D5785"/>
<path d="M425.763 270.203C425.679 270.225 425.816 271.32 426.09 273.091C426.416 275.082 426.785 277.411 427.207 279.982C427.618 282.564 427.986 284.893 428.303 286.874C428.566 288.644 428.735 289.729 428.819 289.729C428.903 289.719 428.893 288.612 428.735 286.821C428.576 285.03 428.26 282.574 427.818 279.877C427.375 277.179 426.901 274.745 426.522 272.996C426.132 271.257 425.847 270.182 425.763 270.203Z" fill="#263238"/>
<path d="M422.949 326.65C422.949 326.65 419.956 310.538 407.923 306.555C407.501 306.418 407.09 306.808 407.227 307.23C408.017 309.727 411.179 316.945 422.949 326.65Z" fill="#0D5785"/>
<path d="M411.199 310.721C411.136 310.774 411.768 311.68 412.843 313.113C414.055 314.715 415.478 316.601 417.058 318.687C418.628 320.774 420.04 322.66 421.252 324.272C422.316 325.705 422.97 326.601 423.043 326.548C423.107 326.506 422.58 325.526 421.61 324.019C420.63 322.513 419.208 320.489 417.553 318.308C415.899 316.127 414.35 314.199 413.191 312.839C412.021 311.48 411.263 310.668 411.199 310.721Z" fill="#263238"/>
<path d="M426.195 367.061C426.195 367.061 428.008 350.781 417.66 343.468C417.291 343.215 416.796 343.468 416.796 343.91C416.828 346.523 417.755 354.363 426.195 367.061Z" fill="#0D5785"/>
<path d="M419.587 348.392C419.513 348.424 419.861 349.477 420.462 351.163C421.157 353.049 421.969 355.273 422.875 357.718C423.771 360.173 424.571 362.386 425.267 364.282C425.867 365.968 426.236 367.011 426.321 366.98C426.394 366.959 426.173 365.873 425.678 364.145C425.183 362.417 424.403 360.067 423.454 357.507C422.506 354.946 421.579 352.649 420.873 351.005C420.156 349.351 419.661 348.35 419.587 348.392Z" fill="#263238"/>
<path d="M417.132 407.692C417.132 407.692 418.365 391.359 407.754 384.415C407.385 384.172 406.89 384.446 406.911 384.889C407.038 387.513 408.239 395.3 417.132 407.692Z" fill="#0D5785"/>
<path d="M409.861 389.29C409.788 389.321 410.167 390.365 410.831 392.03C411.59 393.895 412.485 396.076 413.476 398.499C414.456 400.923 415.341 403.104 416.1 404.969C416.763 406.634 417.164 407.657 417.248 407.635C417.322 407.614 417.069 406.529 416.51 404.822C415.952 403.115 415.088 400.797 414.045 398.268C413.002 395.739 412.001 393.484 411.231 391.861C410.462 390.238 409.935 389.258 409.861 389.29Z" fill="#263238"/>
<path d="M435.72 276.019C435.72 276.019 450.241 268.432 450.526 255.756C450.536 255.313 450.041 255.039 449.683 255.292C447.522 256.788 441.537 261.931 435.72 276.019Z" fill="#0D5785"/>
<path d="M447.512 260.119C447.438 260.076 446.764 260.951 445.699 262.384C444.519 264.017 443.139 265.935 441.6 268.043C440.062 270.15 438.671 272.058 437.491 273.691C436.426 275.124 435.773 276.02 435.836 276.072C435.899 276.125 436.679 275.335 437.828 273.954C438.976 272.574 440.494 270.614 442.095 268.401C443.697 266.188 445.078 264.133 446.047 262.627C447.027 261.13 447.575 260.161 447.512 260.119Z" fill="#263238"/>
<path d="M420.125 309.605C420.125 309.605 435.078 302.914 436.132 290.28C436.174 289.837 435.7 289.531 435.32 289.763C433.076 291.123 426.796 295.896 420.125 309.605Z" fill="#0D5785"/>
<path d="M432.866 294.44C432.802 294.387 432.065 295.22 430.927 296.6C429.652 298.16 428.155 299.983 426.501 302.006C424.836 304.018 423.34 305.841 422.054 307.39C420.906 308.76 420.189 309.603 420.263 309.666C420.315 309.719 421.148 308.981 422.381 307.675C423.614 306.368 425.247 304.503 426.975 302.385C428.703 300.267 430.21 298.307 431.274 296.863C432.318 295.42 432.929 294.493 432.866 294.44Z" fill="#263238"/>
<path d="M428.734 347.089C428.734 347.089 438.998 334.328 434.182 322.6C434.013 322.189 433.455 322.137 433.223 322.505C431.843 324.739 428.418 331.842 428.734 347.089Z" fill="#0D5785"/>
<path d="M433.16 327.781C433.075 327.771 432.801 328.846 432.412 330.584C431.98 332.555 431.484 334.862 430.926 337.413C430.367 339.963 429.851 342.27 429.419 344.23C429.019 345.969 428.776 347.054 428.86 347.075C428.934 347.096 429.335 346.064 429.84 344.336C430.346 342.618 430.947 340.215 431.526 337.539C432.106 334.862 432.549 332.428 432.833 330.669C433.128 328.909 433.244 327.802 433.16 327.781Z" fill="#263238"/>
<path d="M418.555 391.145C418.555 391.145 433.392 384.211 434.235 371.556C434.266 371.113 433.781 370.818 433.413 371.05C431.189 372.441 424.993 377.32 418.555 391.145Z" fill="#0D5785"/>
<path d="M431.041 375.78C430.978 375.727 430.251 376.57 429.134 377.971C427.88 379.552 426.415 381.396 424.792 383.451C423.17 385.495 421.694 387.339 420.44 388.909C419.313 390.3 418.618 391.154 418.681 391.217C418.733 391.27 419.555 390.511 420.767 389.194C421.979 387.866 423.581 385.98 425.267 383.83C426.963 381.681 428.438 379.7 429.471 378.235C430.504 376.77 431.104 375.832 431.041 375.78Z" fill="#263238"/>
<path d="M388.998 326.738C388.987 326.738 388.977 326.865 388.977 327.097C388.987 327.381 388.987 327.729 388.998 328.14C389.04 329.12 389.103 330.458 389.177 332.112C389.366 335.6 389.63 340.479 389.957 346.296V346.306V346.327C391.021 352.26 394.035 358.825 398.091 365.21C401.063 369.91 404.182 374.178 406.869 378.161C409.577 382.123 411.864 385.79 413.455 389.046C415.057 392.292 415.994 395.084 416.532 397.033C416.795 398.013 416.985 398.772 417.101 399.299C417.227 399.815 417.301 400.089 417.322 400.089C417.343 400.089 417.312 399.805 417.227 399.278C417.154 398.751 416.996 397.971 416.764 396.981C416.29 395 415.404 392.165 413.845 388.867C412.285 385.558 410.03 381.838 407.343 377.855C404.677 373.851 401.569 369.573 398.608 364.894C394.572 358.551 391.569 352.081 390.473 346.243V346.275C390.062 340.458 389.725 335.59 389.472 332.102C389.335 330.447 389.229 329.12 389.156 328.14C389.114 327.729 389.082 327.381 389.05 327.097C389.029 326.865 389.008 326.738 388.998 326.738Z" fill="#263238"/>
<path d="M397.838 363.98C397.838 363.98 391.558 348.848 399.461 338.943C399.735 338.595 400.293 338.701 400.409 339.122C401.105 341.651 402.401 349.428 397.838 363.98Z" fill="#0D5785"/>
<path d="M398.976 344.234C398.892 344.224 398.702 345.32 398.481 347.101C398.26 348.881 398.007 351.337 397.817 354.066C397.617 356.795 397.532 359.271 397.532 361.063C397.532 362.854 397.627 363.971 397.712 363.96C397.806 363.96 397.859 362.854 397.965 361.073C398.101 359.071 398.26 356.711 398.428 354.108C398.607 351.505 398.776 349.145 398.913 347.143C399.018 345.351 399.06 344.245 398.976 344.234Z" fill="#263238"/>
<g opacity="0.3">
<path d="M397.838 363.98C397.838 363.98 391.558 348.848 399.461 338.943C399.735 338.595 400.293 338.701 400.409 339.122C401.105 341.651 402.401 349.428 397.838 363.98Z" fill="black"/>
</g>
<path d="M417.301 400.46C417.301 400.46 412.264 384.875 420.947 375.634C421.252 375.307 421.8 375.455 421.874 375.897C422.369 378.469 423.033 386.329 417.301 400.46Z" fill="#0D5785"/>
<path d="M420.041 380.863C419.957 380.853 419.672 381.917 419.314 383.677C418.945 385.426 418.503 387.86 418.081 390.568C417.66 393.266 417.375 395.732 417.228 397.523C417.091 399.314 417.091 400.421 417.164 400.431C417.249 400.442 417.407 399.346 417.66 397.576C417.955 395.584 418.302 393.255 418.692 390.674C419.082 388.092 419.441 385.753 419.746 383.772C419.999 381.98 420.125 380.884 420.041 380.863Z" fill="#263238"/>
<g opacity="0.3">
<path d="M417.301 400.46C417.301 400.46 412.264 384.875 420.947 375.634C421.252 375.307 421.8 375.455 421.874 375.897C422.369 378.469 423.033 386.329 417.301 400.46Z" fill="black"/>
</g>
<path d="M389.83 345.525C389.83 345.525 376.406 336.125 377.765 323.522C377.818 323.08 378.334 322.869 378.661 323.164C380.61 324.934 385.879 330.804 389.83 345.525Z" fill="#0D5785"/>
<g opacity="0.3">
<path d="M389.83 345.525C389.83 345.525 376.406 336.125 377.765 323.522C377.818 323.08 378.334 322.869 378.661 323.164C380.61 324.934 385.879 330.804 389.83 345.525Z" fill="black"/>
</g>
<path d="M380.188 328.22C380.114 328.262 380.536 329.284 381.305 330.907C382.074 332.529 383.181 334.742 384.477 337.145C385.773 339.547 387.027 341.686 387.986 343.204C388.955 344.721 389.63 345.606 389.693 345.554C389.767 345.501 389.229 344.542 388.365 342.982C387.406 341.212 386.268 339.147 385.025 336.85C383.782 334.553 382.654 332.477 381.695 330.706C380.831 329.136 380.262 328.188 380.188 328.22Z" fill="#263238"/>
<path d="M411.885 385.005C411.885 385.005 395.699 382.476 391.358 370.568C391.21 370.147 391.579 369.736 392.011 369.852C394.54 370.579 401.853 373.529 411.885 385.005Z" fill="#0D5785"/>
<g opacity="0.3">
<path d="M411.885 385.005C411.885 385.005 395.699 382.476 391.358 370.568C391.21 370.147 391.579 369.736 392.011 369.852C394.54 370.579 401.853 373.529 411.885 385.005Z" fill="black"/>
</g>
<path d="M395.614 373.713C395.561 373.776 396.394 374.514 397.795 375.631C399.197 376.748 401.167 378.244 403.391 379.835C405.614 381.426 407.68 382.796 409.207 383.724C410.746 384.651 411.736 385.157 411.779 385.083C411.821 385.009 410.914 384.377 409.45 383.355C407.806 382.196 405.878 380.836 403.749 379.329C401.621 377.812 399.692 376.453 398.059 375.283C396.594 374.25 395.667 373.639 395.614 373.713Z" fill="#263238"/>
<path d="M431.042 414.793L426.395 445.246L407.859 445.214L401.611 414.793H431.042Z" fill="#263238"/>
<path d="M414.119 424.565C414.593 423.848 414.92 422.974 414.983 422.015C415.057 421.077 414.688 419.949 413.729 419.391C412.77 418.832 411.537 419.033 410.62 419.644C409.672 420.265 409.114 421.34 408.84 422.436C408.576 423.553 408.545 424.702 408.608 425.871C408.682 427.041 408.903 428.242 409.356 429.391C409.809 430.539 410.526 431.625 411.506 432.457C412.475 433.29 413.729 433.88 415.078 433.943C416.427 434.006 417.712 433.543 418.787 432.868C419.872 432.183 420.789 431.33 421.558 430.36C422.317 429.401 422.886 428.242 422.96 427.009C423.023 425.798 422.591 424.544 421.643 423.785C420.684 423.005 419.314 423.058 418.355 423.585C417.364 424.08 416.627 425.028 416.458 426.072C416.1 428.158 417.322 430.044 418.808 430.887C420.325 431.751 421.98 431.783 423.286 431.53C424.614 431.266 425.668 430.75 426.479 430.287C427.291 429.812 427.87 429.38 428.26 429.075C428.65 428.769 428.84 428.601 428.829 428.59C428.819 428.579 428.608 428.716 428.197 428.99C427.786 429.264 427.185 429.665 426.374 430.107C425.562 430.539 424.519 431.024 423.234 431.245C421.969 431.456 420.389 431.393 418.987 430.571C417.628 429.781 416.532 427.989 416.869 426.145C417.027 425.239 417.67 424.417 418.555 423.985C419.419 423.532 420.557 423.5 421.348 424.154C422.138 424.786 422.528 425.903 422.475 426.988C422.412 428.074 421.885 429.148 421.168 430.055C420.441 430.961 419.546 431.793 418.523 432.436C417.501 433.068 416.321 433.49 415.099 433.437C413.887 433.384 412.738 432.847 411.832 432.067C410.926 431.288 410.241 430.287 409.82 429.201C409.377 428.116 409.166 426.967 409.093 425.84C409.019 424.712 409.05 423.585 409.293 422.542C409.535 421.509 410.041 420.539 410.863 420.002C411.664 419.454 412.738 419.296 413.508 419.739C414.298 420.181 414.635 421.119 414.583 421.973C414.54 422.837 414.245 423.669 413.813 424.343C412.897 425.692 411.579 426.514 410.357 426.936C409.124 427.368 407.976 427.42 407.059 427.325C405.215 427.115 404.34 426.44 404.319 426.514C404.319 426.525 404.372 426.556 404.477 426.63C404.583 426.693 404.741 426.799 404.962 426.904C405.404 427.125 406.1 427.389 407.038 427.526C407.976 427.652 409.156 427.631 410.452 427.21C411.727 426.809 413.128 425.987 414.119 424.565Z" fill="#263238"/>
</g>
<defs>
<clipPath id="clip0_1064_2840">
<rect width="450" height="457.555" fill="white" transform="translate(0.525024 0.332031)"/>
</clipPath>
</defs>
</svg>
