<svg width="38" height="38" viewBox="0 0 38 38" fill="none" xmlns="http://www.w3.org/2000/svg">
<g clip-path="url(#clip0_1064_1889)">
<path d="M9.09723 23.1332L7.80931 27.9411L3.102 28.0407C1.6952 25.4314 0.897247 22.4461 0.897247 19.2736C0.897247 16.2059 1.64332 13.3129 2.96578 10.7656H2.96679L7.15762 11.534L8.99345 15.6996C8.60922 16.8198 8.39979 18.0223 8.39979 19.2736C8.39994 20.6316 8.64593 21.9328 9.09723 23.1332Z" fill="#FBBB00"/>
<path d="M37.574 15.8203C37.7865 16.9394 37.8973 18.0952 37.8973 19.2763C37.8973 20.6008 37.758 21.8928 37.4927 23.139C36.5922 27.3798 34.239 31.0828 30.9791 33.7033L30.9781 33.7023L25.6996 33.433L24.9525 28.7693C27.1155 27.5008 28.806 25.5155 29.6964 23.139H19.804V15.8203H37.574Z" fill="#518EF8"/>
<path d="M30.978 33.6991L30.979 33.7001C27.8087 36.2484 23.7813 37.7732 19.3973 37.7732C12.352 37.7732 6.2267 33.8354 3.10201 28.0404L9.09723 23.1328C10.6595 27.3024 14.6818 30.2706 19.3973 30.2706C21.4241 30.2706 23.3229 29.7226 24.9523 28.7661L30.978 33.6991Z" fill="#28B446"/>
<path d="M31.3751 4.93092L25.3819 9.83747C23.6955 8.7834 21.7022 8.17449 19.5666 8.17449C14.7444 8.17449 10.6469 11.2788 9.16286 15.5979L3.13612 10.6639H3.13511C6.21406 4.72764 12.4166 0.671875 19.5666 0.671875C24.0554 0.671875 28.1711 2.27082 31.3751 4.93092Z" fill="#F14336"/>
</g>
<defs>
<clipPath id="clip0_1064_1889">
<rect width="37" height="37" fill="white" transform="translate(0.897339 0.773438)"/>
</clipPath>
</defs>
</svg>
