<svg width="16" height="16" viewBox="0 0 16 16" fill="none" xmlns="http://www.w3.org/2000/svg">
<path d="M13.1162 13.1163L2.88303 2.88344L2.88085 2.88094C2.82545 2.82599 2.75976 2.78249 2.68755 2.75292C2.61534 2.72336 2.53801 2.7083 2.45998 2.70862C2.38195 2.70894 2.30475 2.72463 2.23278 2.75478C2.16081 2.78494 2.09548 2.82898 2.04053 2.88438C1.98558 2.93978 1.94209 3.00546 1.91252 3.07767C1.88295 3.14989 1.8679 3.22721 1.86822 3.30524C1.86886 3.46283 1.93208 3.61371 2.04397 3.72469L2.93991 4.62063C1.85338 5.36477 0.918149 6.30859 0.183972 7.40188C0.0640816 7.57889 0 7.78777 0 8.00156C0 8.21536 0.0640816 8.42424 0.183972 8.60125C2.05803 11.375 5.02897 13 7.99991 12.9797C8.96224 12.9832 9.91817 12.823 10.8268 12.5059L12.2771 13.9563C12.3888 14.0644 12.5385 14.1244 12.694 14.1233C12.8495 14.1223 12.9984 14.0602 13.1087 13.9506C13.2189 13.8409 13.2818 13.6924 13.2837 13.5369C13.2856 13.3814 13.2265 13.2314 13.119 13.1191L13.1162 13.1163ZM7.99991 11.3669C7.43703 11.3667 6.88318 11.2254 6.38898 10.956C5.89477 10.6865 5.47597 10.2976 5.17084 9.82456C4.86571 9.35156 4.68399 8.80964 4.64229 8.24831C4.60058 7.68698 4.70022 7.12415 4.9321 6.61125L5.86803 7.54719C5.79265 7.90244 5.80721 8.27089 5.91041 8.61908C6.01361 8.96727 6.20218 9.28415 6.45897 9.54094C6.71576 9.79774 7.03264 9.9863 7.38083 10.0895C7.72902 10.1927 8.09747 10.2073 8.45272 10.1319L9.38866 11.0678C8.95244 11.2656 8.47888 11.3676 7.99991 11.3669ZM15.8158 7.40031C13.9418 4.625 10.9708 3 7.99991 3.02031C7.03757 3.01683 6.08165 3.17703 5.17303 3.49406L6.61053 4.93156C7.23431 4.64928 7.9293 4.5638 8.60289 4.68652C9.27648 4.80924 9.89667 5.13434 10.3808 5.61848C10.865 6.10262 11.19 6.72281 11.3128 7.39639C11.4355 8.06998 11.35 8.76498 11.0677 9.38875L13.0596 11.3806C14.1463 10.6366 15.0817 9.69276 15.8158 8.59938C15.9357 8.4224 15.9997 8.21357 15.9997 7.99985C15.9997 7.78612 15.9357 7.57729 15.8158 7.40031Z" fill="#BBBBBB"/>
<path d="M7.99993 5.82062C7.84775 5.82064 7.69599 5.83656 7.54712 5.86812L10.1318 8.45249C10.1992 8.13496 10.1948 7.80639 10.119 7.49077C10.0431 7.17515 9.89774 6.88046 9.69342 6.62822C9.4891 6.37599 9.23102 6.17258 8.93803 6.03286C8.64504 5.89313 8.32454 5.82062 7.99993 5.82062Z" fill="#BBBBBB"/>
</svg>
