<svg width="23" height="23" viewBox="0 0 23 23" fill="none" xmlns="http://www.w3.org/2000/svg">
<path d="M5.73553 7.63581H6.78914C7.13175 7.63581 7.41043 7.35714 7.41043 7.01452V5.96091C7.41043 5.6183 7.13175 5.33963 6.78914 5.33963H5.73553C5.39291 5.33963 5.11424 5.6183 5.11424 5.96091V7.01452C5.11424 7.35666 5.39291 7.63581 5.73553 7.63581ZM5.68686 5.96044C5.68686 5.93419 5.70976 5.91176 5.73553 5.91176H6.78914C6.81538 5.91176 6.83781 5.93467 6.83781 5.96044V7.01405C6.83781 7.04029 6.81491 7.06272 6.78914 7.06272H5.73553C5.70928 7.06272 5.68686 7.03981 5.68686 7.01405V5.96044ZM8.30275 5.89983C8.30275 5.74189 8.43111 5.61353 8.58906 5.61353H13.1967C13.3546 5.61353 13.483 5.74189 13.483 5.89983C13.483 6.05778 13.3546 6.18614 13.1967 6.18614H8.58906C8.43111 6.18614 8.30275 6.05826 8.30275 5.89983ZM8.30275 7.07465C8.30275 6.9167 8.43111 6.78834 8.58906 6.78834H13.1967C13.3546 6.78834 13.483 6.9167 13.483 7.07465C13.483 7.23259 13.3546 7.36095 13.1967 7.36095H8.58906C8.43111 7.36095 8.30275 7.23259 8.30275 7.07465ZM5.73553 11.1307H6.78914C7.13175 11.1307 7.41043 10.852 7.41043 10.5094V9.45577C7.41043 9.11315 7.13175 8.83448 6.78914 8.83448H5.73553C5.39291 8.83448 5.11424 9.11315 5.11424 9.45577V10.5094C5.11424 10.852 5.39291 11.1307 5.73553 11.1307ZM5.68686 9.45577C5.68686 9.42952 5.70976 9.4071 5.73553 9.4071H6.78914C6.81538 9.4071 6.83781 9.43 6.83781 9.45577V10.5094C6.83781 10.5356 6.81491 10.5581 6.78914 10.5581H5.73553C5.70928 10.5581 5.68686 10.5351 5.68686 10.5094V9.45577ZM8.30275 9.39517C8.30275 9.23722 8.43111 9.10886 8.58906 9.10886H13.1967C13.3546 9.10886 13.483 9.23722 13.483 9.39517C13.483 9.55311 13.3546 9.68147 13.1967 9.68147H8.58906C8.43111 9.68147 8.30275 9.55311 8.30275 9.39517ZM8.30275 10.57C8.30275 10.412 8.43111 10.2837 8.58906 10.2837H13.1967C13.3546 10.2837 13.483 10.412 13.483 10.57C13.483 10.7279 13.3546 10.8563 13.1967 10.8563H8.58906C8.43111 10.8563 8.30275 10.7279 8.30275 10.57ZM5.73553 14.626H6.78914C7.13175 14.626 7.41043 14.3473 7.41043 14.0047V12.9511C7.41043 12.6085 7.13175 12.3293 6.78914 12.3293H5.73553C5.39291 12.3293 5.11424 12.608 5.11424 12.9511V14.0047C5.11424 14.3473 5.39291 14.626 5.73553 14.626ZM5.68686 12.9511C5.68686 12.9249 5.70976 12.902 5.73553 12.902H6.78914C6.81538 12.902 6.83781 12.9249 6.83781 12.9511V14.0047C6.83781 14.031 6.81491 14.0534 6.78914 14.0534H5.73553C5.70928 14.0534 5.68686 14.0305 5.68686 14.0047V12.9511ZM8.30275 12.8905C8.30275 12.7326 8.43111 12.6042 8.58906 12.6042H13.1967C13.3546 12.6042 13.483 12.7326 13.483 12.8905C13.483 13.0484 13.3546 13.1768 13.1967 13.1768H8.58906C8.43111 13.1768 8.30275 13.0484 8.30275 12.8905ZM8.30275 14.0653C8.30275 13.9074 8.43111 13.779 8.58906 13.779H13.1967C13.3546 13.779 13.483 13.9074 13.483 14.0653C13.483 14.2233 13.3546 14.3516 13.1967 14.3516H8.58906C8.43111 14.3516 8.30275 14.2233 8.30275 14.0653ZM5.73553 18.1213H6.78914C7.13175 18.1213 7.41043 17.8427 7.41043 17.4996V16.446C7.41043 16.1033 7.13175 15.8247 6.78914 15.8247H5.73553C5.39291 15.8247 5.11424 16.1033 5.11424 16.446V17.4996C5.11424 17.8427 5.39291 18.1213 5.73553 18.1213ZM5.68686 16.4464C5.68686 16.4202 5.70976 16.3978 5.73553 16.3978H6.78914C6.81538 16.3978 6.83781 16.4207 6.83781 16.4464V17.5C6.83781 17.5263 6.81491 17.5492 6.78914 17.5492H5.73553C5.70928 17.5492 5.68686 17.5263 5.68686 17.5V16.4464ZM8.30275 16.3858C8.30275 16.2279 8.43111 16.0995 8.58906 16.0995H12.3712C12.5291 16.0995 12.6575 16.2279 12.6575 16.3858C12.6575 16.5438 12.5291 16.6721 12.3712 16.6721H8.58906C8.43111 16.6721 8.30275 16.5438 8.30275 16.3858ZM8.30275 17.5606C8.30275 17.4027 8.43111 17.2743 8.58906 17.2743H12.3712C12.5291 17.2743 12.6575 17.4027 12.6575 17.5606C12.6575 17.7186 12.5291 17.847 12.3712 17.847H8.58906C8.43111 17.847 8.30275 17.7186 8.30275 17.5606ZM21.9768 16.027V16.0213C21.9768 16.0112 21.9758 16.0012 21.9749 15.9917L21.9734 15.9821C21.972 15.9735 21.9706 15.9645 21.9682 15.9559C21.9677 15.9535 21.9672 15.9511 21.9663 15.9487C21.9634 15.9382 21.9596 15.9277 21.9558 15.9172C21.9548 15.9149 21.9539 15.9125 21.9529 15.9106C21.9496 15.9024 21.9453 15.8943 21.9415 15.8867C21.94 15.8838 21.9386 15.8815 21.9372 15.8786C21.9324 15.8705 21.9271 15.8624 21.9214 15.8543C21.9205 15.8528 21.9195 15.8519 21.919 15.8504C21.9119 15.8414 21.9047 15.8328 21.8966 15.8242C21.8952 15.8228 21.8937 15.8218 21.8928 15.8204C21.8861 15.8137 21.879 15.8075 21.8718 15.8018C21.8694 15.7999 21.8665 15.7975 21.8637 15.7956C21.857 15.7904 21.85 15.7856 21.8427 15.7812C21.8409 15.7798 21.839 15.7785 21.837 15.7774C21.836 15.777 21.8351 15.7765 21.8346 15.776C21.8336 15.7755 21.8327 15.7746 21.8312 15.7741L17.6025 13.4183C17.5599 13.3946 17.5119 13.3821 17.4631 13.3821C17.4144 13.3821 17.3664 13.3946 17.3238 13.4183L16.7588 13.7332V2.22413C16.7588 2.06618 16.6305 1.93782 16.4725 1.93782H13.3332C13.3126 1.57087 13.0087 1.27788 12.6365 1.27788H11.6029C11.3891 0.53444 10.7015 0 9.90989 0H8.68735C7.89524 0 7.2081 0.53444 6.99623 1.27788H5.96267C5.59047 1.27788 5.2865 1.57039 5.26599 1.93782H2.12615C1.9682 1.93782 1.83984 2.06618 1.83984 2.22413V21.2363C1.83984 21.3943 1.9682 21.5227 2.12615 21.5227H14.7351L17.3224 22.9637V22.9633C17.3658 22.9871 17.4135 23 17.4617 23C17.5099 23 17.5576 22.9881 17.601 22.9637L21.8298 20.6079C21.8744 20.5831 21.9115 20.5468 21.9373 20.5029C21.9632 20.4589 21.9768 20.4089 21.9768 20.3579V16.027ZM17.4617 13.9966L21.1021 16.0246L20.1215 16.571L16.6448 14.4513L17.4617 13.9966ZM5.32563 4.13857C5.43538 4.38145 5.67922 4.55085 5.96219 4.55085H12.6346C12.9175 4.55085 13.1614 4.38145 13.2711 4.13857H14.5562V14.9595L13.0931 15.7746C13.0922 15.775 13.0912 15.776 13.0898 15.7765C13.0888 15.7769 13.0879 15.7774 13.0874 15.7779C13.0855 15.7789 13.0836 15.7803 13.0817 15.7817C13.0745 15.7865 13.0674 15.7913 13.0607 15.796C13.0578 15.7979 13.0554 15.8003 13.0526 15.8022C13.0454 15.808 13.0383 15.8146 13.0316 15.8209C13.0302 15.8223 13.0287 15.8232 13.0278 15.8247C13.0197 15.8328 13.012 15.8418 13.0053 15.8509C13.0044 15.8523 13.0034 15.8533 13.003 15.8547C12.9972 15.8624 12.992 15.8705 12.9872 15.8791C12.9858 15.8815 12.9843 15.8843 12.9829 15.8872C12.9786 15.8948 12.9748 15.9029 12.9715 15.911C12.9659 15.9233 12.9614 15.9361 12.9581 15.9492C12.9576 15.9516 12.9571 15.954 12.9562 15.9564C12.9543 15.965 12.9524 15.9735 12.9509 15.9826L12.9495 15.9922C12.9486 16.0022 12.9476 16.0122 12.9476 16.0217V19.3224H4.04059V4.13857H5.32563ZM16.0703 14.7715L19.547 16.8912L19.1714 17.1002L15.6594 15.0006L16.0703 14.7715ZM13.5193 16.5118L17.1754 18.5484V22.226L13.5193 20.1889V16.5118ZM13.8213 16.0246L15.082 15.3222L18.5941 17.4218L17.4622 18.0526L13.8213 16.0246ZM19.4697 17.5898L19.8285 17.3898V18.7445L19.4697 18.9521V17.5898ZM16.1848 14.0524L15.1293 14.6403V3.85226C15.1293 3.69432 15.0009 3.56595 14.843 3.56595H13.3336V2.51044H16.1848V14.0524ZM5.83621 1.97647C5.83621 1.90824 5.89395 1.8505 5.96219 1.8505H7.22814C7.37177 1.8505 7.49298 1.74409 7.51206 1.60189C7.59032 1.01496 8.09565 0.572614 8.68735 0.572614H9.90941C10.5016 0.572614 11.0064 1.01496 11.0847 1.60189C11.1038 1.74409 11.225 1.8505 11.3686 1.8505H12.6346C12.7028 1.8505 12.7605 1.90824 12.7605 1.97647V3.85226C12.7605 3.9205 12.7028 3.97824 12.6346 3.97824H5.96219C5.89395 3.97824 5.83621 3.9205 5.83621 3.85226V1.97647ZM2.41246 20.95V2.51044H5.2636V3.56595H3.75428C3.59634 3.56595 3.46798 3.69432 3.46798 3.85226V19.6082C3.46798 19.7662 3.59634 19.8945 3.75428 19.8945H12.9466V20.3579C12.9466 20.4619 13.003 20.5573 13.0936 20.6079L13.7073 20.95H2.41246ZM21.4042 20.1894L17.748 22.226V18.5484L18.8971 17.9085V19.4479C18.897 19.4982 18.9102 19.5476 18.9354 19.5911C18.9605 19.6347 18.9967 19.6709 19.0402 19.696C19.0846 19.7218 19.1337 19.7342 19.1834 19.7342C19.233 19.7342 19.2821 19.7213 19.3265 19.6955L20.258 19.1568C20.3463 19.1057 20.4011 19.0113 20.4011 18.9091V17.0706L21.4042 16.5118V20.1894Z" fill="#0D5785"/>
</svg>
