<svg width="38" height="38" viewBox="0 0 38 38" fill="none" xmlns="http://www.w3.org/2000/svg">
<g clip-path="url(#clip0_1064_1898)">
<path d="M24.1376 6.3928C25.5298 4.90233 26.4715 2.83301 26.2138 0.769531C24.208 0.84111 21.7771 1.9469 20.3374 3.43725C19.0469 4.75663 17.917 6.8653 18.2185 8.88829C20.4566 9.0397 22.7431 7.88085 24.1376 6.3928ZM28.4091 20.6432C28.3663 16.0171 32.0717 13.7953 32.2358 13.6879C30.1526 10.5464 26.9084 10.1166 25.7529 10.0681C22.9904 9.77808 20.3665 11.741 18.964 11.741C17.5672 11.741 15.4066 10.1061 13.1154 10.1501C10.1034 10.1997 7.32808 11.9536 5.78114 14.7334C2.65222 20.3256 4.97917 28.6096 8.02813 33.1456C9.5186 35.3662 11.2932 37.8572 13.6236 37.7671C15.8731 37.677 16.7212 36.2709 19.4352 36.2709C22.1504 36.2709 22.9106 37.7671 25.286 37.7221C27.7031 37.677 29.2328 35.4587 30.7106 33.2311C32.4205 30.6558 33.1253 28.1625 33.1657 28.0366C33.1138 28.0065 28.4587 26.1753 28.4091 20.6432Z" fill="#ABABAB"/>
</g>
<defs>
<clipPath id="clip0_1064_1898">
<rect width="37" height="37" fill="white" transform="translate(0.230606 0.773438)"/>
</clipPath>
</defs>
</svg>
