<svg width="26" height="26" viewBox="0 0 26 26" fill="none" xmlns="http://www.w3.org/2000/svg">
<path d="M13.0003 14.0409C13.8633 14.0409 14.707 13.785 15.4245 13.3055C16.1421 12.8261 16.7014 12.1446 17.0317 11.3473C17.3619 10.55 17.4483 9.67263 17.28 8.82621C17.1116 7.97978 16.6961 7.20229 16.0858 6.59205C15.4756 5.9818 14.6981 5.56622 13.8517 5.39786C13.0052 5.22949 12.1279 5.3159 11.3306 5.64615C10.5333 5.97641 9.8518 6.53568 9.37234 7.25324C8.89287 7.97081 8.63696 8.81443 8.63696 9.67744C8.63826 10.8343 9.09839 11.9434 9.9164 12.7614C10.7344 13.5794 11.8435 14.0396 13.0003 14.0409ZM13.0003 6.53281C13.6223 6.5328 14.2303 6.71723 14.7475 7.06276C15.2646 7.4083 15.6677 7.89943 15.9057 8.47405C16.1437 9.04867 16.206 9.68096 16.0846 10.291C15.9633 10.901 15.6638 11.4613 15.224 11.9011C14.7842 12.3409 14.2239 12.6404 13.6139 12.7617C13.0039 12.8831 12.3716 12.8208 11.797 12.5828C11.2223 12.3448 10.7312 11.9417 10.3857 11.4245C10.0401 10.9074 9.8557 10.2994 9.85571 9.67744C9.85675 8.84376 10.1884 8.04452 10.7779 7.45503C11.3674 6.86554 12.1667 6.53392 13.0003 6.53291V6.53281ZM11.8803 22.5289C12.0124 22.7003 12.1821 22.8391 12.3763 22.9346C12.5705 23.0301 12.784 23.0797 13.0004 23.0797C13.2168 23.0797 13.4303 23.0301 13.6245 22.9346C13.8187 22.8391 13.9884 22.7003 14.1205 22.5289L19.514 15.5312C21.0306 13.5635 21.8987 11.2422 21.9583 8.99499C22.0231 6.55241 21.16 4.36404 19.4623 2.66633C17.7452 0.958607 15.422 0 13.0003 0C10.5787 0 8.25546 0.958607 6.53843 2.66633C4.84071 4.36394 3.97758 6.55231 4.04253 8.99484C4.10214 11.2421 4.97025 13.5634 6.48688 15.5311L11.8803 22.5289ZM7.40018 3.52798C8.88866 2.04881 10.9019 1.21861 13.0003 1.21861C15.0988 1.21861 17.112 2.04881 18.6005 3.52798C21.4687 6.39621 21.4474 11.0261 18.5487 14.7871L13.1552 21.785C13.137 21.8087 13.1135 21.8279 13.0866 21.8411C13.0598 21.8543 13.0303 21.8612 13.0003 21.8612C12.9704 21.8612 12.9409 21.8543 12.914 21.8411C12.8872 21.8279 12.8637 21.8087 12.8455 21.785L7.45198 14.7874C4.55323 11.0261 4.53196 6.39621 7.40018 3.52798ZM3.99561 21.6366C3.99561 20.4511 4.89784 19.3572 6.53619 18.5563C6.68128 18.4861 6.84826 18.4763 7.00058 18.5289C7.15289 18.5816 7.27815 18.6925 7.34894 18.8372C7.41972 18.982 7.43027 19.149 7.37827 19.3015C7.32627 19.454 7.21596 19.5798 7.07148 19.6512C5.89122 20.2282 5.21436 20.9518 5.21436 21.6367C5.21436 23.1239 8.41195 24.7811 13.0003 24.7811C17.5887 24.7811 20.7863 23.1239 20.7863 21.6365C20.7863 20.9517 20.1095 20.2281 18.9292 19.6509C18.7847 19.5795 18.6744 19.4538 18.6224 19.3012C18.5704 19.1487 18.581 18.9818 18.6517 18.837C18.7225 18.6922 18.8478 18.5813 19.0001 18.5287C19.1524 18.476 19.3194 18.4859 19.4645 18.556C21.1028 19.357 22.0051 20.4509 22.0051 21.6363C22.0051 22.8938 21.0037 24.0341 19.1855 24.8471C17.5232 25.5905 15.3266 25.9999 13.0003 25.9999C10.6741 25.9999 8.47741 25.5905 6.81518 24.8471C4.99691 24.0342 3.99561 22.894 3.99561 21.6365V21.6366Z" fill="white"/>
</svg>
