<svg width="23" height="23" viewBox="0 0 23 23" fill="none" xmlns="http://www.w3.org/2000/svg">
<g clip-path="url(#clip0_1053_3316)">
<path d="M12.2685 18.0535C12.3128 18.0535 12.3567 18.0448 12.3976 18.0278C12.4385 18.0109 12.4757 17.9861 12.507 17.9547C12.5383 17.9234 12.5632 17.8862 12.5801 17.8453C12.5971 17.8044 12.6058 17.7605 12.6058 17.7162C12.6058 17.6719 12.5971 17.6281 12.5801 17.5871C12.5632 17.5462 12.5383 17.509 12.507 17.4777C12.4757 17.4464 12.4385 17.4215 12.3976 17.4046C12.3567 17.3876 12.3128 17.3789 12.2685 17.3789H10.733C10.5468 17.3789 10.3958 17.5299 10.3958 17.7162C10.3958 17.9026 10.5468 18.0535 10.733 18.0535H12.2685Z" fill="#C9EBFF"/>
<path d="M21.5246 3.2145H18.6963L19.1686 2.74226C19.3898 2.52102 19.3898 2.16118 19.1686 1.93994L18.3974 1.16876C18.1762 0.947563 17.8164 0.947563 17.5951 1.16876L17.117 1.64693C16.8163 1.4757 16.4954 1.34263 16.1618 1.25078V0.575141C16.1618 0.262355 15.9073 0.0078125 15.5945 0.0078125H14.5039C14.1911 0.0078125 13.9366 0.26231 13.9366 0.575141V1.25073C13.603 1.34259 13.2821 1.47568 12.9814 1.64693L12.5033 1.16876C12.282 0.947563 11.9222 0.947563 11.7009 1.16876L10.9298 1.93994C10.7086 2.16118 10.7086 2.52102 10.9298 2.74226L11.4021 3.2145H1.47694C0.66293 3.2145 0.000732422 3.87674 0.000732422 4.69075V18.0266C0.000732422 18.8406 0.66293 19.5028 1.47694 19.5028H4.60493C4.79121 19.5028 4.94221 19.3518 4.94221 19.1654C4.94221 18.9791 4.79121 18.8282 4.60493 18.8282H1.47694C1.03495 18.8282 0.675334 18.4686 0.675334 18.0266V16.6079H22.3261V18.0266C22.3261 18.4686 21.9666 18.8282 21.5246 18.8282H6.20859C6.11913 18.8282 6.03335 18.8637 5.9701 18.927C5.90684 18.9902 5.87131 19.076 5.87131 19.1654C5.8713 19.2097 5.88002 19.2536 5.89697 19.2945C5.91392 19.3355 5.93876 19.3726 5.97008 19.404C6.0014 19.4353 6.03858 19.4601 6.07951 19.4771C6.12043 19.494 6.16429 19.5028 6.20859 19.5028H8.97728C8.9522 20.2727 8.87545 21.6045 8.70251 22.3262H7.53357C7.34729 22.3262 7.19629 22.4772 7.19629 22.6635C7.19629 22.8498 7.34729 23.0008 7.53357 23.0008H15.4679C15.5122 23.0008 15.5561 22.9921 15.597 22.9751C15.6379 22.9582 15.6751 22.9333 15.7065 22.902C15.7378 22.8707 15.7626 22.8335 15.7796 22.7926C15.7965 22.7517 15.8052 22.7078 15.8052 22.6635C15.8052 22.6192 15.7965 22.5754 15.7796 22.5344C15.7626 22.4935 15.7378 22.4563 15.7065 22.425C15.6751 22.3937 15.638 22.3688 15.597 22.3519C15.5561 22.3349 15.5122 22.3262 15.4679 22.3262H14.299C14.1262 21.6048 14.0494 20.2728 14.0243 19.5028H21.5246C22.3386 19.5028 23.0008 18.8406 23.0008 18.0266V4.69075C23.0007 3.87674 22.3385 3.2145 21.5246 3.2145ZM9.39266 22.3262C9.57108 21.4527 9.63242 20.12 9.65202 19.5028H13.3495C13.369 20.12 13.4304 21.4527 13.6088 22.3262H9.39266ZM11.9437 2.80203L11.4827 2.34112L12.1022 1.72171L12.5631 2.18266C12.7468 2.36629 13.0315 2.40134 13.2556 2.26791C13.5441 2.09596 13.8559 1.96659 14.1813 1.88381C14.4344 1.81936 14.6112 1.59309 14.6112 1.33347V0.682459H15.4873V1.33347C15.4873 1.59309 15.664 1.81941 15.9172 1.88381C16.2426 1.96664 16.5544 2.09597 16.8428 2.26782C17.0669 2.40139 17.3517 2.36638 17.5354 2.18262L17.9963 1.72171L18.6158 2.34112L18.1548 2.80212C17.9712 2.98575 17.9362 3.27049 18.0696 3.49461C18.2415 3.78304 18.3708 4.09479 18.4536 4.4202C18.518 4.6734 18.7443 4.85024 19.004 4.85024H19.655V5.72626H19.004C18.7442 5.72626 18.5179 5.90311 18.4537 6.15617C18.3708 6.48163 18.2414 6.79342 18.0695 7.08189C17.9361 7.30597 17.9712 7.59075 18.1548 7.77438L18.6158 8.23529L17.9963 8.85471L17.5354 8.39375C17.3517 8.21008 17.0669 8.17507 16.8429 8.30845C16.5545 8.48041 16.2427 8.6098 15.9172 8.69261C15.6641 8.75696 15.4873 8.98324 15.4873 9.2429V9.89391H14.6112V9.2429C14.6112 8.98319 14.4344 8.75687 14.1813 8.69261C13.8558 8.60978 13.544 8.48038 13.2555 8.30841C13.0315 8.17512 12.7468 8.21017 12.563 8.39375L12.1022 8.85471L11.4827 8.23529L11.9437 7.77438C12.1273 7.59067 12.1624 7.30588 12.029 7.08185C11.857 6.7934 11.7277 6.48164 11.6449 6.15621C11.5805 5.90306 11.3542 5.72626 11.0945 5.72626H10.4435V4.85024H11.0945C11.3542 4.85024 11.5805 4.6734 11.6449 4.42025C11.7277 4.09483 11.857 3.78306 12.0289 3.49461C12.1623 3.27058 12.1273 2.98584 11.9437 2.80203ZM1.40697 5.59693V15.9333H0.675334V4.69075C0.675334 4.24876 1.0349 3.88914 1.47694 3.88914H11.1024C11.0688 3.98352 11.0385 4.07908 11.0118 4.17564H10.3362C10.0234 4.17564 9.76895 4.43014 9.76895 4.74292V4.76162H2.24232C1.78172 4.76157 1.40697 5.13629 1.40697 5.59693ZM20.9199 15.9332H2.08157V5.59693C2.08163 5.55431 2.09858 5.51346 2.12872 5.48332C2.15885 5.45319 2.1997 5.43623 2.24232 5.43617H9.76891V5.83349C9.76891 6.14628 10.0234 6.40082 10.3362 6.40082H11.0118C11.1036 6.73443 11.2367 7.0553 11.408 7.35599L10.9299 7.83411C10.7087 8.05535 10.7087 8.41519 10.9299 8.63643L11.701 9.40761C11.9223 9.62881 12.282 9.62881 12.5033 9.40761L12.9814 8.92949C13.2821 9.10075 13.603 9.23386 13.9366 9.32573V10.0013C13.9366 10.3141 14.1911 10.5686 14.5039 10.5686H15.5945C15.9073 10.5686 16.1619 10.3141 16.1619 10.0013V9.32568C16.4952 9.23396 16.8158 9.10098 17.117 8.92949L17.5952 9.40761C17.8164 9.62881 18.1762 9.62881 18.3975 9.40761L19.1687 8.63643C19.3899 8.41523 19.3899 8.05535 19.1687 7.83411L18.6905 7.35599C18.8618 7.05531 18.9949 6.73444 19.0867 6.40082H19.7623C20.0751 6.40082 20.3297 6.14632 20.3297 5.83349V5.43617H20.7592C20.8019 5.43623 20.8427 5.45319 20.8728 5.48332C20.903 5.51346 20.9199 5.55431 20.92 5.59693V15.9332H20.9199ZM22.3261 15.9332H21.5945V5.59693C21.5945 5.13629 21.2198 4.76157 20.7592 4.76157H20.3296V4.74288C20.3296 4.43009 20.0751 4.17559 19.7623 4.17559H19.0867C19.06 4.07903 19.0298 3.98347 18.9961 3.8891H21.5246C21.9666 3.8891 22.3261 4.24871 22.3261 4.6907V15.9332Z" fill="#C9EBFF"/>
<path d="M15.0507 7.90501C16.4924 7.90501 17.6653 6.73211 17.6653 5.29042C17.6653 3.84868 16.4924 2.67578 15.0507 2.67578C14.8068 2.67578 14.5652 2.7094 14.3327 2.77564C14.2897 2.78745 14.2495 2.80766 14.2144 2.8351C14.1793 2.86254 14.1499 2.89667 14.1281 2.93552C14.1062 2.97436 14.0923 3.01715 14.0871 3.06141C14.0819 3.10568 14.0855 3.15053 14.0977 3.1934C14.1099 3.23626 14.1305 3.27627 14.1583 3.31113C14.1861 3.34598 14.2205 3.37499 14.2595 3.39647C14.2986 3.41795 14.3415 3.43147 14.3858 3.43627C14.4301 3.44106 14.4749 3.43703 14.5177 3.4244C14.691 3.3751 14.8704 3.35017 15.0507 3.35034C16.1204 3.35034 16.9907 4.22066 16.9907 5.29037C16.9907 6.36009 16.1204 7.23036 15.0507 7.23036C13.9809 7.23036 13.1106 6.36009 13.1106 5.29037C13.1106 4.90155 13.2251 4.52657 13.4418 4.20587C13.4909 4.13173 13.5087 4.04122 13.4913 3.95402C13.474 3.86683 13.423 3.79 13.3493 3.74023C13.2756 3.69047 13.1853 3.6718 13.0979 3.68827C13.0106 3.70475 12.9333 3.75505 12.8828 3.82823C12.5905 4.26083 12.436 4.76641 12.436 5.29033C12.436 6.73215 13.6089 7.90501 15.0507 7.90501Z" fill="#C9EBFF"/>
<path d="M16.4087 5.28968C16.4087 4.53975 15.7986 3.92969 15.0487 3.92969C14.2988 3.92969 13.6887 4.53975 13.6887 5.28968C13.6887 6.0396 14.2988 6.64967 15.0487 6.64967C15.7986 6.64967 16.4087 6.0396 16.4087 5.28968ZM14.3633 5.28968C14.3633 4.91177 14.6708 4.60429 15.0487 4.60429C15.4266 4.60429 15.7341 4.91177 15.7341 5.28968C15.7341 5.66758 15.4266 5.97506 15.0487 5.97506C14.6708 5.97506 14.3633 5.66763 14.3633 5.28968ZM10.4939 10.0785H10.0361C9.97062 9.85679 9.8818 9.64266 9.77113 9.43971L10.0951 9.11573C10.1429 9.06817 10.1808 9.01159 10.2067 8.94927C10.2325 8.88695 10.2457 8.82012 10.2455 8.75266C10.2455 8.61554 10.1921 8.48665 10.0951 8.38958L9.50454 7.79902C9.30438 7.59881 8.97865 7.59876 8.77844 7.79902L8.45446 8.12299C8.25149 8.01232 8.03735 7.9235 7.81564 7.85803V7.40022C7.81564 7.11709 7.58532 6.88682 7.30219 6.88682H6.46697C6.18389 6.88682 5.95353 7.11714 5.95353 7.40022V7.85803C5.73181 7.92349 5.51766 8.01231 5.3147 8.12299L4.99072 7.79902C4.79056 7.59881 4.46483 7.59885 4.26462 7.79902L3.67397 8.38967C3.47389 8.58988 3.47389 8.91561 3.67406 9.11573L3.99803 9.43971C3.88735 9.64266 3.79852 9.85679 3.73302 10.0785H3.27516C2.99204 10.0785 2.76172 10.3089 2.76172 10.5919V11.4272C2.76172 11.7103 2.99204 11.9406 3.27516 11.9406H3.73297C3.79846 12.1623 3.88729 12.3764 3.99799 12.5794L3.67392 12.9034C3.47385 13.1036 3.47385 13.4293 3.67401 13.6295L4.26453 14.22C4.3121 14.2678 4.36869 14.3058 4.43102 14.3316C4.49335 14.3574 4.56018 14.3706 4.62765 14.3704C4.6951 14.3706 4.76193 14.3574 4.82425 14.3316C4.88657 14.3058 4.94315 14.2679 4.99072 14.22L5.3147 13.896C5.51766 14.0068 5.7318 14.0956 5.95353 14.1611V14.6189C5.95353 14.902 6.18385 15.1323 6.46697 15.1323H7.30219C7.58527 15.1323 7.81564 14.902 7.81564 14.6189V14.1611C8.03736 14.0956 8.25151 14.0068 8.45446 13.896L8.77835 14.2199C8.82592 14.2678 8.8825 14.3057 8.94484 14.3315C9.00717 14.3574 9.074 14.3706 9.14147 14.3704C9.20893 14.3706 9.27575 14.3574 9.33807 14.3316C9.40039 14.3058 9.45698 14.2679 9.50454 14.22L10.0951 13.6295C10.1429 13.5819 10.1808 13.5253 10.2067 13.463C10.2325 13.4007 10.2457 13.3339 10.2455 13.2664C10.2455 13.1293 10.1921 13.0004 10.0951 12.9033L9.77113 12.5794C9.88183 12.3764 9.97065 12.1623 10.0361 11.9406H10.4939C10.777 11.9406 11.0074 11.7102 11.0074 11.4272V10.5919C11.0074 10.3088 10.777 10.0785 10.4939 10.0785ZM10.3328 11.266H9.91319C9.67819 11.266 9.4734 11.4258 9.41516 11.6548C9.3536 11.8967 9.25744 12.1284 9.12965 12.3428C9.00903 12.5454 9.0408 12.8031 9.20704 12.9694L9.50414 13.2664L9.14147 13.6291L8.84441 13.332C8.67818 13.1658 8.42049 13.134 8.21781 13.2547C8.00341 13.3825 7.77167 13.4786 7.52977 13.5401C7.30089 13.5983 7.14103 13.8032 7.14103 14.0382V14.4577H6.62813V14.0382C6.62813 13.8031 6.46827 13.5983 6.2393 13.5401C5.99746 13.4786 5.76576 13.3825 5.5514 13.2547C5.34867 13.1339 5.09098 13.1658 4.92479 13.332L4.62765 13.6291L4.26498 13.2664L4.56212 12.9693C4.72827 12.8031 4.76009 12.5455 4.63942 12.3427C4.51163 12.1283 4.41548 11.8967 4.35396 11.6548C4.29581 11.4259 4.09101 11.266 3.85593 11.266H3.43632V10.753H3.85588C4.09097 10.753 4.29576 10.5932 4.35387 10.3643C4.41545 10.1224 4.51163 9.89064 4.63942 9.67623C4.76004 9.47359 4.72827 9.21595 4.56203 9.04967L4.26489 8.75257L4.62756 8.3899L4.92466 8.687C5.09089 8.85328 5.34858 8.8851 5.55126 8.76439C5.76566 8.6366 5.99738 8.54043 6.23926 8.47888C6.46819 8.42068 6.62804 8.21589 6.62804 7.98089V7.56133H7.14094V7.98089C7.14094 8.21589 7.3008 8.42068 7.52968 8.47888C7.77154 8.54042 8.00325 8.63657 8.21763 8.76434C8.4204 8.88514 8.67809 8.85323 8.84423 8.68704L9.14134 8.3899L9.504 8.75257L9.20686 9.04971C9.12606 9.13064 9.07458 9.23622 9.06058 9.34971C9.04658 9.46321 9.07086 9.57813 9.12956 9.67627C9.25735 9.89068 9.35351 10.1224 9.41507 10.3643C9.47327 10.5932 9.67806 10.753 9.9131 10.753H10.3327V11.266H10.3328Z" fill="#C9EBFF"/>
<path d="M6.88566 9.22656C5.90164 9.22656 5.10107 10.0271 5.10107 11.0111C5.10107 11.9952 5.90164 12.7957 6.88566 12.7957C7.86968 12.7957 8.67025 11.9952 8.67025 11.0111C8.67025 10.0271 7.86972 9.22656 6.88566 9.22656ZM6.88566 12.1211C6.27362 12.1211 5.77568 11.6232 5.77568 11.0111C5.77568 10.3991 6.27362 9.90116 6.88566 9.90116C7.49771 9.90116 7.99565 10.3991 7.99565 11.0111C7.99565 11.6232 7.49775 12.1211 6.88566 12.1211Z" fill="#C9EBFF"/>
</g>
<defs>
<clipPath id="clip0_1053_3316">
<rect width="23" height="23" fill="white"/>
</clipPath>
</defs>
</svg>
