<svg width="31" height="30" viewBox="0 0 31 30" fill="none" xmlns="http://www.w3.org/2000/svg">
<circle cx="15.5" cy="15" r="15" fill="white"/>
<g clip-path="url(#clip0_165_270)">
<path d="M15.7732 11.0346C16.7104 11.0346 17.4701 10.2748 17.4701 9.33761C17.4701 8.40039 16.7104 7.64062 15.7732 7.64062C14.8359 7.64062 14.0762 8.40039 14.0762 9.33761C14.0762 10.2748 14.8359 11.0346 15.7732 11.0346Z" fill="#0D5785"/>
<path d="M15.7732 16.9721C16.7104 16.9721 17.4701 16.2123 17.4701 15.2751C17.4701 14.3379 16.7104 13.5781 15.7732 13.5781C14.8359 13.5781 14.0762 14.3379 14.0762 15.2751C14.0762 16.2123 14.8359 16.9721 15.7732 16.9721Z" fill="#0D5785"/>
<path d="M15.7732 22.9135C16.7104 22.9135 17.4701 22.1537 17.4701 21.2165C17.4701 20.2793 16.7104 19.5195 15.7732 19.5195C14.8359 19.5195 14.0762 20.2793 14.0762 21.2165C14.0762 22.1537 14.8359 22.9135 15.7732 22.9135Z" fill="#0D5785"/>
</g>
<defs>
<clipPath id="clip0_165_270">
<rect width="15.2727" height="15.2727" fill="white" transform="translate(8.13672 7.63672)"/>
</clipPath>
</defs>
</svg>
