<svg width="23" height="23" viewBox="0 0 23 23" fill="none" xmlns="http://www.w3.org/2000/svg">
<g clip-path="url(#clip0_1053_3266)">
<path d="M4.04064 12.2965V20.904C4.04064 21.9896 4.92384 22.8728 6.00944 22.8728H20.1112C21.1968 22.8728 22.08 21.9896 22.08 20.904V2.88677C22.08 1.80117 21.1968 0.917969 20.1112 0.917969H6.00944C5.01584 0.917969 4.20256 1.65765 4.0664 2.61445C1.75904 3.02293 0 5.03589 0 7.45733C0 9.87877 1.748 11.877 4.04064 12.2965ZM6.00944 1.65397H20.1112C20.792 1.65397 21.344 2.20597 21.344 2.88677V20.904C21.344 21.5848 20.792 22.1368 20.1112 22.1368H6.00944C5.68248 22.1368 5.36891 22.007 5.13772 21.7758C4.90652 21.5446 4.77664 21.231 4.77664 20.904V12.3738C4.82448 12.3738 4.87232 12.3812 4.92384 12.3812C6.17872 12.3812 7.31952 11.9064 8.188 11.1336C8.19904 11.1263 8.21008 11.1226 8.22112 11.1152C8.23216 11.1079 8.23584 11.0932 8.2432 11.0858C9.22576 10.1842 9.844 8.89621 9.844 7.46101C9.844 4.74885 7.636 2.54085 4.92384 2.54085C4.8944 2.54085 4.86496 2.54453 4.83552 2.54453C4.90963 2.28931 5.06442 2.06497 5.27671 1.90509C5.489 1.74521 5.74736 1.6584 6.01312 1.65765L6.00944 1.65397ZM9.0896 7.82533C9.00496 8.77845 8.60016 9.63957 7.9856 10.302L5.75184 7.82533H9.0896ZM5.29184 7.08933V3.29157C7.3048 3.46821 8.91296 5.07637 9.0896 7.08933H5.29184ZM4.55584 3.29157V7.45733C4.55584 7.47573 4.5632 7.49413 4.56688 7.50885C4.57056 7.53461 4.57424 7.56037 4.5816 7.58613C4.59264 7.61189 4.60736 7.63397 4.62208 7.65605C4.63312 7.67077 4.6368 7.68917 4.64784 7.70021L7.43728 10.7914C6.7344 11.3213 5.86592 11.6415 4.92016 11.6415C2.6128 11.6415 0.736 9.76469 0.736 7.45733C0.736 5.27509 2.41776 3.47925 4.55216 3.29157H4.55584ZM18.0394 12.6792H16.6741C16.0669 12.6792 15.5701 13.176 15.5701 13.7832V16.1348C15.456 16.0943 15.3309 16.0685 15.2021 16.0685H13.8368C13.708 16.0685 13.5829 16.0943 13.4688 16.1348V15.0712C13.4688 14.464 12.972 13.9672 12.3648 13.9672H10.9995C10.3923 13.9672 9.89552 14.464 9.89552 15.0712V16.1348C9.78144 16.0943 9.65632 16.0685 9.52752 16.0685H8.16224C7.55504 16.0685 7.05824 16.5653 7.05824 17.1725V19.7743C7.05824 20.3815 7.55504 20.8783 8.16224 20.8783H9.52752C9.81088 20.8783 10.0685 20.7679 10.2635 20.5912C10.4586 20.7679 10.7162 20.8783 10.9995 20.8783H12.3648C12.6482 20.8783 12.9058 20.7679 13.1008 20.5912C13.2958 20.7679 13.5534 20.8783 13.8368 20.8783H15.2021C15.4854 20.8783 15.743 20.7679 15.9381 20.5912C16.1331 20.7679 16.3907 20.8783 16.6741 20.8783H18.0394C18.6466 20.8783 19.1434 20.3815 19.1434 19.7743V13.7832C19.1434 13.176 18.6466 12.6792 18.0394 12.6792ZM9.8992 19.7743C9.8992 19.9767 9.7336 20.1423 9.5312 20.1423H8.16592C7.96352 20.1423 7.79792 19.9767 7.79792 19.7743V17.1725C7.79792 16.9701 7.96352 16.8045 8.16592 16.8045H9.5312C9.7336 16.8045 9.8992 16.9701 9.8992 17.1725V19.7743ZM12.7365 17.1725V19.7743C12.7365 19.9767 12.5709 20.1423 12.3685 20.1423H11.0032C10.8008 20.1423 10.6352 19.9767 10.6352 19.7743V15.0712C10.6352 14.8688 10.8008 14.7032 11.0032 14.7032H12.3685C12.5709 14.7032 12.7365 14.8688 12.7365 15.0712V17.1725ZM15.5738 19.7743C15.5738 19.9767 15.4082 20.1423 15.2058 20.1423H13.8405C13.6381 20.1423 13.4725 19.9767 13.4725 19.7743V17.1725C13.4725 16.9701 13.6381 16.8045 13.8405 16.8045H15.2058C15.4082 16.8045 15.5738 16.9701 15.5738 17.1725V19.7743ZM18.411 19.7743C18.411 19.9767 18.2454 20.1423 18.043 20.1423H16.6778C16.4754 20.1423 16.3098 19.9767 16.3098 19.7743V13.7832C16.3098 13.5808 16.4754 13.4152 16.6778 13.4152H18.043C18.2454 13.4152 18.411 13.5808 18.411 13.7832V19.7743ZM8.61856 13.7501L11.673 11.1999C11.7243 11.1569 11.7863 11.1286 11.8525 11.1183C11.9186 11.1079 11.9863 11.1157 12.0483 11.141L14.444 12.1236L16.9611 9.67637C17.1083 9.53653 17.3402 9.53653 17.48 9.68373C17.6198 9.83093 17.6198 10.0628 17.4726 10.2026L14.7826 12.8191C14.6758 12.9221 14.5213 12.9516 14.3851 12.8964L11.971 11.9064L9.08592 14.3168C9.016 14.3757 8.93136 14.4015 8.8504 14.4015C8.77472 14.4014 8.7009 14.3781 8.63897 14.3346C8.57704 14.2911 8.53001 14.2295 8.50428 14.1584C8.47855 14.0872 8.47536 14.0098 8.49515 13.9368C8.51494 13.8638 8.55674 13.7986 8.61488 13.7501H8.61856ZM12.0446 4.89605C12.0446 4.69365 12.2102 4.52805 12.4126 4.52805H19.5334C19.7358 4.52805 19.9014 4.69365 19.9014 4.89605C19.9014 5.09845 19.7358 5.26405 19.5334 5.26405H12.4126C12.2102 5.26405 12.0446 5.09845 12.0446 4.89605ZM19.9014 7.45365C19.9014 7.65605 19.7358 7.82165 19.5334 7.82165H14.7715C14.5691 7.82165 14.4035 7.65605 14.4035 7.45365C14.4035 7.25125 14.5691 7.08565 14.7715 7.08565H19.5334C19.7358 7.08565 19.9014 7.25125 19.9014 7.45365Z" fill="#0D5785"/>
</g>
<defs>
<clipPath id="clip0_1053_3266">
<rect width="23" height="23" fill="white"/>
</clipPath>
</defs>
</svg>
