<svg width="23" height="23" viewBox="0 0 23 23" fill="none" xmlns="http://www.w3.org/2000/svg">
<g clip-path="url(#clip0_1053_3255)">
<path d="M3.16417 22.078H19.8362C20.4311 22.0771 21.0014 21.8405 21.422 21.4198C21.8427 20.9992 22.0793 20.4289 22.0802 19.834V3.16197C22.0793 2.56708 21.8427 1.99678 21.422 1.57613C21.0014 1.15547 20.4311 0.918789 19.8362 0.917969H3.16417C2.56927 0.918789 1.99898 1.15547 1.57833 1.57613C1.15767 1.99678 0.920987 2.56708 0.920166 3.16197V19.834C0.920987 20.4289 1.15767 20.9992 1.57833 21.4198C1.99898 21.8405 2.56927 22.0771 3.16417 22.078ZM1.56156 3.16197C1.56219 2.73713 1.73124 2.32987 2.03165 2.02946C2.33206 1.72905 2.73932 1.56 3.16417 1.55936H19.8362C20.261 1.56 20.6683 1.72905 20.9687 2.02946C21.2691 2.32987 21.4381 2.73713 21.4388 3.16197V5.74545H1.56156V3.16197ZM1.56156 6.38684H21.4391V19.834C21.4385 20.2589 21.2694 20.6662 20.9689 20.9666C20.6684 21.267 20.2611 21.436 19.8362 21.4366H3.16417C2.73932 21.4359 2.33206 21.2669 2.03165 20.9665C1.73124 20.6661 1.56219 20.2588 1.56156 19.834V6.38684Z" fill="#0D5785"/>
<path d="M3.97496 2.53125C3.35631 2.53125 2.85278 3.03444 2.85278 3.65342C2.85278 4.27241 3.35631 4.7756 3.97496 4.7756C4.5936 4.7756 5.09713 4.27207 5.09713 3.65342C5.09713 3.03478 4.59394 2.53125 3.97496 2.53125ZM3.97496 4.13421C3.70958 4.13421 3.49417 3.91846 3.49417 3.65342C3.49417 3.38804 3.70992 3.17264 3.97496 3.17264C4.23999 3.17264 4.45609 3.38804 4.45609 3.65342C4.45609 3.9188 4.24034 4.13421 3.97496 4.13421ZM7.41523 2.53125C6.79659 2.53125 6.29306 3.03444 6.29306 3.65342C6.29306 4.27241 6.79659 4.7756 7.41523 4.7756C8.03387 4.7756 8.5374 4.27207 8.5374 3.65342C8.5374 3.03478 8.03422 2.53125 7.41523 2.53125ZM7.41523 4.13421C7.14985 4.13421 6.93445 3.91846 6.93445 3.65342C6.93445 3.38804 7.1502 3.17264 7.41523 3.17264C7.68027 3.17264 7.89636 3.38804 7.89636 3.65342C7.89636 3.9188 7.68061 4.13421 7.41523 4.13421ZM10.8586 2.53125C10.2396 2.53125 9.73678 3.03444 9.73678 3.65342C9.73678 4.27241 10.24 4.7756 10.8586 4.7756C11.4773 4.7756 11.9804 4.27207 11.9804 3.65342C11.9804 3.03478 11.4773 2.53125 10.8586 2.53125ZM10.8586 4.13421C10.7312 4.13402 10.609 4.08331 10.5188 3.99319C10.4287 3.90306 10.378 3.78088 10.3778 3.65342C10.3778 3.38804 10.5936 3.17264 10.8586 3.17264C11.1236 3.17264 11.3394 3.38804 11.3394 3.65342C11.3394 3.9188 11.1236 4.13421 10.8586 4.13421ZM19.7436 3.33256H13.6689C13.5839 3.33256 13.5023 3.36633 13.4422 3.42644C13.3821 3.48654 13.3483 3.56807 13.3483 3.65308C13.3483 3.73809 13.3821 3.81961 13.4422 3.87972C13.5023 3.93983 13.5839 3.9736 13.6689 3.9736H19.7436C19.8286 3.9736 19.9102 3.93983 19.9703 3.87972C20.0304 3.81961 20.0642 3.73809 20.0642 3.65308C20.0642 3.56807 20.0304 3.48654 19.9703 3.42644C19.9102 3.36633 19.8286 3.33256 19.7436 3.33256ZM7.58204 18.1865C10.1893 18.1865 12.3106 16.0652 12.3106 13.458C12.3106 10.8507 10.1893 8.72871 7.58204 8.72871C4.97478 8.72871 2.85278 10.8504 2.85278 13.4576C2.85278 16.0649 4.97444 18.1865 7.58204 18.1865ZM7.58204 9.36975C9.83604 9.36975 11.6696 11.2036 11.6696 13.4576C11.6696 15.7116 9.83604 17.5451 7.58204 17.5451C5.32804 17.5451 3.49383 15.712 3.49383 13.458C3.49383 11.204 5.32735 9.37044 7.58135 9.37044L7.58204 9.36975Z" fill="#0D5785"/>
<path d="M7.58217 15.4554C7.35962 15.4552 7.14627 15.3666 6.98893 15.2092C6.8316 15.0518 6.74313 14.8384 6.74295 14.6159C6.74295 14.5309 6.70918 14.4493 6.64907 14.3892C6.58896 14.3291 6.50744 14.2954 6.42243 14.2954C6.33742 14.2954 6.2559 14.3291 6.19579 14.3892C6.13568 14.4493 6.10191 14.5309 6.10191 14.6159C6.10254 14.9524 6.21769 15.2786 6.42841 15.5409C6.63913 15.8033 6.93287 15.9861 7.2613 16.0593V16.508C7.2613 16.593 7.29507 16.6745 7.35518 16.7346C7.41529 16.7947 7.49682 16.8285 7.58183 16.8285C7.66683 16.8285 7.74836 16.7947 7.80847 16.7346C7.86858 16.6745 7.90235 16.593 7.90235 16.508V16.0593C8.23097 15.9863 8.52495 15.8036 8.73587 15.5412C8.94679 15.2789 9.06209 14.9525 9.06278 14.6159C9.06232 14.2234 8.90617 13.8471 8.62859 13.5696C8.35101 13.292 7.97468 13.136 7.58217 13.1356C7.35962 13.1353 7.14627 13.0468 6.98893 12.8894C6.8316 12.732 6.74313 12.5186 6.74295 12.2961C6.74295 11.8335 7.11931 11.4568 7.58217 11.4568C8.04503 11.4568 8.42139 11.8335 8.42139 12.2961C8.42139 12.3381 8.42968 12.3798 8.44579 12.4187C8.46189 12.4576 8.4855 12.4929 8.51527 12.5227C8.54503 12.5525 8.58036 12.5761 8.61925 12.5922C8.65814 12.6083 8.69982 12.6166 8.74191 12.6166C8.784 12.6166 8.82568 12.6083 8.86457 12.5922C8.90346 12.5761 8.93879 12.5525 8.96855 12.5227C8.99832 12.4929 9.02193 12.4576 9.03803 12.4187C9.05414 12.3798 9.06243 12.3381 9.06243 12.2961C9.06178 11.9595 8.94658 11.6332 8.73579 11.3709C8.52501 11.1085 8.23119 10.9258 7.90269 10.8527V10.4046C7.90269 10.3196 7.86892 10.2381 7.80881 10.178C7.7487 10.1179 7.66718 10.0841 7.58217 10.0841C7.49716 10.0841 7.41564 10.1179 7.35553 10.178C7.29542 10.2381 7.26165 10.3196 7.26165 10.4046V10.853C6.93309 10.9261 6.63919 11.1088 6.42833 11.3711C6.21748 11.6335 6.10223 11.9598 6.10156 12.2964C6.10193 12.689 6.25804 13.0654 6.53563 13.3429C6.81321 13.6205 7.1896 13.7766 7.58217 13.777C7.80466 13.7773 8.01796 13.8658 8.17528 14.0231C8.33261 14.1804 8.42111 14.3937 8.42139 14.6162C8.42111 14.8387 8.33262 15.0521 8.17531 15.2095C8.01799 15.3668 7.80469 15.4551 7.58217 15.4554ZM15.2147 13.2459C15.2611 13.2864 15.3181 13.3126 15.379 13.3215C15.4399 13.3303 15.502 13.3214 15.558 13.2959C15.614 13.2704 15.6616 13.2293 15.6949 13.1775C15.7282 13.1258 15.7459 13.0655 15.7458 13.004V12.2967H19.6983C19.7833 12.2967 19.8648 12.263 19.9249 12.2029C19.985 12.1428 20.0188 12.0612 20.0188 11.9762V10.3092C20.0188 10.2241 19.985 10.1426 19.9249 10.0825C19.8648 10.0224 19.7833 9.98863 19.6983 9.98863H15.7458V9.28142C15.7458 9.2199 15.7281 9.15968 15.6948 9.10796C15.6615 9.05623 15.614 9.01518 15.558 8.98971C15.502 8.96423 15.4399 8.95541 15.379 8.9643C15.3182 8.97318 15.2611 8.9994 15.2147 9.03982L13.0755 10.9009C13.0408 10.9309 13.013 10.9681 12.994 11.0098C12.9749 11.0515 12.9651 11.0968 12.9651 11.1427C12.9651 11.1885 12.9749 11.2339 12.994 11.2756C13.013 11.3173 13.0408 11.3544 13.0755 11.3845L15.2147 13.2459ZM15.1045 9.98553V10.3095C15.1045 10.4867 15.2478 10.63 15.425 10.63H19.3777V11.6557H15.425C15.34 11.6557 15.2584 11.6895 15.1983 11.7496C15.1382 11.8097 15.1045 11.8912 15.1045 11.9762V12.3002L13.7748 11.1429L15.1045 9.98553ZM13.2861 17.8332H17.2382V18.5407C17.2382 18.6022 17.2559 18.6624 17.2891 18.7141C17.3224 18.7658 17.3698 18.8069 17.4257 18.8324C17.4817 18.8579 17.5438 18.8668 17.6046 18.8579C17.6655 18.8491 17.7225 18.823 17.7689 18.7827L19.9085 16.9209C19.9432 16.8909 19.971 16.8537 19.99 16.812C20.0091 16.7703 20.019 16.725 20.019 16.6791C20.019 16.6332 20.0091 16.5879 19.99 16.5462C19.971 16.5045 19.9432 16.4674 19.9085 16.4373L17.7693 14.5759C17.7228 14.5357 17.6658 14.5097 17.605 14.501C17.5442 14.4923 17.4822 14.5012 17.4263 14.5266C17.3704 14.5521 17.323 14.5931 17.2897 14.6447C17.2564 14.6963 17.2387 14.7564 17.2385 14.8178V15.5251H13.2857C13.2007 15.5251 13.1192 15.5588 13.0591 15.6189C12.999 15.679 12.9652 15.7606 12.9652 15.8456V17.5126C12.9652 17.6898 13.1089 17.8332 13.2861 17.8332ZM13.6066 16.1664H17.559C17.644 16.1664 17.7256 16.1327 17.7857 16.0726C17.8458 16.0125 17.8796 15.9309 17.8796 15.8459V15.522L19.2099 16.6793L17.8796 17.8373V17.5126C17.8796 17.4276 17.8458 17.3461 17.7857 17.286C17.7256 17.2259 17.644 17.1921 17.559 17.1921H13.6066V16.1664Z" fill="#0D5785"/>
</g>
<defs>
<clipPath id="clip0_1053_3255">
<rect width="23" height="23" fill="white"/>
</clipPath>
</defs>
</svg>
