<svg width="11" height="6" viewBox="0 0 11 6" fill="none" xmlns="http://www.w3.org/2000/svg">
<path fill-rule="evenodd" clip-rule="evenodd" d="M5.3249 1.61753L9.52023 5.81286C9.64596 5.9343 9.81437 6.00149 9.98916 5.99997C10.164 5.99846 10.3312 5.92834 10.4548 5.80474C10.5784 5.68113 10.6485 5.51392 10.65 5.33913C10.6515 5.16433 10.5843 4.99593 10.4629 4.87019L5.79623 0.203525C5.73437 0.141562 5.6609 0.0924034 5.58003 0.0588632C5.49915 0.0253224 5.41245 0.00805902 5.3249 0.00805902C5.23734 0.00805902 5.15065 0.0253224 5.06977 0.0588632C4.98889 0.0924034 4.91542 0.141562 4.85356 0.203525L0.186897 4.87019C0.0654586 4.99593 -0.00173789 5.16433 -0.000218939 5.33913C0.00130001 5.51392 0.0714128 5.68113 0.195018 5.80474C0.318624 5.92834 0.485832 5.99846 0.66063 5.99997C0.835428 6.00149 1.00383 5.9343 1.12956 5.81286L5.3249 1.61753Z" fill="#0D5785"/>
</svg>
