<svg width="23" height="23" viewBox="0 0 23 23" fill="none" xmlns="http://www.w3.org/2000/svg">
<g clip-path="url(#clip0_1053_3284)">
<path fill-rule="evenodd" clip-rule="evenodd" d="M18.2299 11.129H22.629C22.7274 11.129 22.8218 11.1681 22.8913 11.2377C22.9609 11.3073 23 11.4016 23 11.5V13.0071C23 13.0821 22.9773 13.1553 22.9348 13.2171C22.8924 13.2789 22.8322 13.3264 22.7623 13.3533L21.0988 13.9936C20.8687 14.8815 20.5142 15.7317 20.0501 16.5231L20.7727 18.1546C20.8031 18.223 20.812 18.2991 20.7983 18.3727C20.7845 18.4464 20.7488 18.5141 20.6959 18.5671L18.5671 20.6959C18.5141 20.7488 18.4464 20.7845 18.3727 20.7983C18.2991 20.812 18.223 20.8031 18.1546 20.7727L16.5239 20.0504C15.7345 20.5166 14.8819 20.869 13.9936 21.0988L13.3533 22.7623C13.3264 22.8322 13.2789 22.8924 13.2171 22.9348C13.1553 22.9773 13.0821 23 13.0071 23H9.99591C9.92094 23 9.84773 22.9773 9.78593 22.9348C9.72412 22.8924 9.67663 22.8322 9.64971 22.7623L9.00955 21.0989C8.119 20.8688 7.26842 20.5143 6.47687 20.0501L4.84544 20.7727C4.77697 20.8031 4.7009 20.812 4.62727 20.7983C4.55364 20.7845 4.48588 20.7488 4.43293 20.6959L2.30413 18.5671C2.2511 18.514 2.21539 18.4462 2.20171 18.3725C2.18802 18.2987 2.19701 18.2226 2.22748 18.154L2.95244 16.5236C2.48632 15.7343 2.13395 14.8819 1.90177 13.9938L0.237744 13.3533C0.16777 13.3264 0.107596 13.2789 0.0651543 13.2171C0.0227129 13.1553 -3.47649e-06 13.0821 3.99062e-10 13.0071V9.99591C2.95954e-06 9.92094 0.0227218 9.84773 0.0651625 9.78593C0.107603 9.72412 0.167774 9.67663 0.237744 9.64971L1.90163 9.00932C2.13287 8.12049 2.48656 7.26812 2.95253 6.47668L2.22748 4.84595C2.19701 4.77743 2.18802 4.70128 2.20171 4.62754C2.21539 4.55381 2.2511 4.48595 2.30413 4.43293L4.43293 2.30413C4.48595 2.2511 4.55381 2.21539 4.62754 2.20171C4.70128 2.18802 4.77743 2.19701 4.84595 2.22748C4.84595 2.22748 6.47668 2.95253 6.47663 2.95258C7.26695 2.48685 8.11854 2.13396 9.00663 1.90418L9.6498 0.237419C9.67677 0.167528 9.72428 0.107441 9.78606 0.065063C9.84783 0.0226853 9.92099 2.85013e-06 9.99591 0H11.5004C11.5988 0 11.6931 0.039084 11.7627 0.108654C11.8323 0.178224 11.8713 0.272581 11.8713 0.370968V4.77009C11.8713 4.81881 11.8617 4.86705 11.8431 4.91206C11.8244 4.95707 11.7971 4.99797 11.7627 5.03242C11.7282 5.06687 11.6873 5.09419 11.6423 5.11283C11.5973 5.13147 11.549 5.14106 11.5003 5.14106H11.5C7.99825 5.14106 5.14106 7.99825 5.14106 11.5C5.14106 15.0017 7.99825 17.8589 11.5 17.8589C15.0017 17.8589 17.8589 15.0017 17.8589 11.5C17.8589 11.4016 17.898 11.3073 17.9676 11.2377C18.0372 11.1681 18.1315 11.129 18.2299 11.129ZM11.1294 4.40867V0.741935H10.2504L9.6294 2.35129C9.60771 2.40746 9.57267 2.45752 9.52732 2.49713C9.48197 2.53674 9.42765 2.56471 9.36907 2.57864C8.42509 2.80288 7.52306 3.17668 6.69717 3.68589C6.64583 3.71752 6.58754 3.73615 6.52737 3.74019C6.4672 3.74422 6.40696 3.73352 6.35185 3.70903L4.77732 3.00897L3.00897 4.77732L3.70903 6.35185C3.73352 6.40696 3.74422 6.4672 3.74019 6.52737C3.73615 6.58754 3.71752 6.64583 3.68589 6.69717C3.17581 7.52494 2.80275 8.4256 2.5754 9.37292C2.56137 9.43139 2.53333 9.48557 2.49371 9.5308C2.45409 9.57603 2.40406 9.61095 2.34795 9.63255L0.741935 10.2506V12.7524L2.34795 13.3705C2.40402 13.3921 2.45401 13.427 2.49363 13.4722C2.53324 13.5173 2.56128 13.5715 2.57535 13.6299C2.80266 14.5741 3.17558 15.4776 3.68556 16.3024C3.71733 16.3537 3.73607 16.4121 3.74016 16.4723C3.74425 16.5326 3.73356 16.593 3.70903 16.6482L3.00897 18.2227L4.7776 19.9913L6.35231 19.2938C6.40722 19.2695 6.46722 19.2589 6.52714 19.2628C6.58707 19.2668 6.64513 19.2853 6.69634 19.3167C7.52406 19.8238 8.42463 20.1999 9.37185 20.4243C9.43054 20.4382 9.48496 20.4662 9.53038 20.5059C9.57581 20.5456 9.61088 20.5958 9.63255 20.6521L10.2506 22.2581H12.7524L13.3705 20.6521C13.3922 20.5958 13.4272 20.5457 13.4726 20.506C13.5179 20.4664 13.5723 20.4384 13.6309 20.4244C14.5748 20.2001 15.4779 19.8273 16.3024 19.3174C16.3537 19.2857 16.4119 19.267 16.4721 19.2629C16.5323 19.2588 16.5925 19.2694 16.6477 19.2938L18.2224 19.9913L19.9913 18.2224L19.2938 16.6477C19.2695 16.5928 19.2589 16.5328 19.2628 16.4729C19.2668 16.4129 19.2853 16.3549 19.3167 16.3037C19.8238 15.4759 20.2 14.5753 20.4244 13.6309C20.4384 13.5723 20.4664 13.5179 20.506 13.4726C20.5457 13.4272 20.5958 13.3922 20.6521 13.3705L22.2581 12.7524V11.871H18.5913C18.3971 15.6101 15.2859 18.6009 11.5 18.6009C7.58968 18.6009 4.39912 15.4103 4.39912 11.5C4.39912 7.714 7.39009 4.60264 11.1294 4.40867ZM13.0572 4.90201L14.1398 2.2885C14.1757 2.20197 14.2429 2.1322 14.3281 2.0932C14.4132 2.0542 14.51 2.04886 14.5989 2.07825C15.0101 2.21415 15.4118 2.37699 15.8015 2.56571C15.8867 2.60695 15.9529 2.6792 15.9866 2.76767C16.0202 2.85613 16.0188 2.95412 15.9826 3.04156L14.902 5.6504C14.8824 5.69777 14.8531 5.74056 14.8162 5.77607C14.7792 5.81158 14.7352 5.83903 14.6871 5.8567C14.639 5.87437 14.5877 5.88187 14.5365 5.87873C14.4854 5.87558 14.4354 5.86186 14.3898 5.83843C14.0393 5.65836 13.6727 5.5115 13.2948 5.39976C13.2449 5.38502 13.1987 5.35995 13.1591 5.32619C13.1196 5.29243 13.0876 5.25073 13.0652 5.20379C13.0428 5.15686 13.0305 5.10574 13.0291 5.05375C13.0277 5.00176 13.0373 4.95006 13.0572 4.90201ZM13.8958 4.81623C14.0548 4.87355 14.2117 4.93654 14.3662 5.0051L15.1606 3.08715C15.0058 3.0194 14.8492 2.95596 14.6909 2.89689L13.8958 4.81623ZM20.609 8.56634L18.0026 9.64595C17.9559 9.66529 17.9058 9.67488 17.8553 9.67414C17.8047 9.67339 17.7549 9.66233 17.7088 9.64163C17.6627 9.62094 17.6213 9.59103 17.5871 9.55376C17.553 9.51649 17.5268 9.47264 17.5102 9.4249C17.3808 9.05241 17.2169 8.69282 17.0206 8.35081C16.9944 8.30508 16.9782 8.25428 16.9732 8.20181C16.9681 8.14933 16.9743 8.09638 16.9913 8.04648C17.0083 7.99658 17.0358 7.95088 17.0719 7.91243C17.1079 7.87398 17.1518 7.84365 17.2005 7.82348L19.8181 6.73923C19.9036 6.70381 19.9993 6.70165 20.0863 6.73315C20.1733 6.76466 20.2454 6.82756 20.2885 6.90951C20.4899 7.29292 20.6658 7.68916 20.8152 8.09568C20.8483 8.18558 20.8452 8.28478 20.8068 8.37251C20.7684 8.46023 20.6975 8.52969 20.609 8.56634ZM19.9896 8.01986C19.9251 7.8636 19.8563 7.70915 19.7833 7.55671L17.8626 8.35234C17.9379 8.50373 18.0077 8.65776 18.072 8.81415L19.9896 8.01986ZM15.3992 5.95528L17.3999 3.95461C17.4658 3.88877 17.554 3.8501 17.647 3.84628C17.74 3.84246 17.8311 3.87376 17.9021 3.93397C18.2322 4.21384 18.5438 4.51478 18.8351 4.83492C18.8992 4.90545 18.9338 4.99798 18.9315 5.09331C18.9292 5.18863 18.8904 5.27943 18.8229 5.34685L16.8288 7.34099C16.7929 7.3769 16.7499 7.40506 16.7027 7.4237C16.6554 7.44235 16.6048 7.45109 16.5541 7.44938C16.5033 7.44768 16.4534 7.43557 16.4075 7.41379C16.3616 7.39202 16.3206 7.36105 16.2872 7.32281C16.0276 7.02578 15.7412 6.75325 15.4316 6.50868C15.3905 6.47622 15.3567 6.43544 15.3325 6.389C15.3083 6.34256 15.2942 6.29152 15.2912 6.23925C15.2881 6.18697 15.2962 6.13464 15.3148 6.08569C15.3334 6.03675 15.3622 5.99231 15.3992 5.95528ZM16.2102 6.19363C16.3365 6.30593 16.4589 6.42266 16.577 6.54359L18.0434 5.07716C17.925 4.95659 17.8033 4.83927 17.6785 4.72529L16.2102 6.19363ZM11.5 5.99113C14.5428 5.99113 17.0089 8.45723 17.0089 11.5C17.0089 14.5428 14.5428 17.0089 11.5 17.0089C8.45723 17.0089 5.99113 14.5428 5.99113 11.5C5.99113 8.45723 8.45723 5.99113 11.5 5.99113ZM15.2793 14.4059C15.8987 13.6015 16.2669 12.5938 16.2669 11.5C16.2669 8.86701 14.133 6.73306 11.5 6.73306C8.86701 6.73306 6.73306 8.86701 6.73306 11.5C6.73306 12.5938 7.10134 13.6015 7.72072 14.4059C8.0851 13.2356 8.97779 12.298 10.1194 11.8727C9.62889 11.4712 9.31454 10.8614 9.31454 10.1815C9.31454 8.97914 10.2976 7.99607 11.5 7.99607C12.7024 7.99607 13.6855 8.97914 13.6855 10.1815C13.6855 10.8614 13.3711 11.4712 12.8806 11.8727C14.0222 12.298 14.9149 13.2356 15.2793 14.4059ZM8.32702 15.0578C9.16977 15.8099 10.2814 16.2669 11.5 16.2669C12.7186 16.2669 13.8302 15.8099 14.673 15.0578C14.422 13.5315 13.0965 12.367 11.5 12.367C9.90349 12.367 8.57803 13.5315 8.32702 15.0578ZM11.5 11.625C12.2942 11.625 12.9435 10.9757 12.9435 10.1815C12.9435 9.38734 12.2942 8.73801 11.5 8.73801C10.7058 8.73801 10.0565 9.38734 10.0565 10.1815C10.0565 10.9757 10.7058 11.625 11.5 11.625Z" fill="#0D5785"/>
</g>
<defs>
<clipPath id="clip0_1053_3284">
<rect width="23" height="23" fill="white"/>
</clipPath>
</defs>
</svg>
