<svg width="30" height="30" viewBox="0 0 30 30" fill="none" xmlns="http://www.w3.org/2000/svg">
<path fill-rule="evenodd" clip-rule="evenodd" d="M24.5421 5.67479C22.0815 3.21046 18.808 1.85315 15.3208 1.85156C8.13529 1.85156 2.28748 7.69884 2.2843 14.8865C2.28145 17.1741 2.88177 19.4221 4.02473 21.4037L2.17529 28.159L9.0862 26.3461C10.9974 27.3873 13.1391 27.9329 15.3155 27.9331H15.3208C22.5053 27.9331 28.3542 22.0847 28.3568 14.8971C28.3579 11.4141 27.0032 8.13858 24.5421 5.67479ZM15.3208 25.7312H15.3161C13.3758 25.7314 11.4711 25.2098 9.80163 24.221L9.40581 23.986L5.30478 25.0618L6.40015 21.064L6.14192 20.6539C5.05678 18.9266 4.48257 16.9275 4.48563 14.8876C4.48775 8.91328 9.34866 4.05342 15.3251 4.05342C16.7486 4.05009 18.1587 4.32923 19.4736 4.87468C20.7885 5.42014 21.9821 6.22106 22.9853 7.23106C23.9941 8.23571 24.7938 9.43042 25.3379 10.7461C25.8821 12.0618 26.16 13.4723 26.1555 14.896C26.1534 20.8703 21.2925 25.7312 15.3208 25.7312Z" fill="#0D5785"/>
<path fill-rule="evenodd" clip-rule="evenodd" d="M21.2639 17.6169C20.9385 17.454 19.3367 16.666 19.0383 16.557C18.7398 16.4485 18.5223 16.394 18.3054 16.72C18.0884 17.0465 17.464 17.7799 17.274 17.9974C17.0841 18.2144 16.8941 18.2419 16.5681 18.0789C16.2427 17.9159 15.1928 17.572 13.9487 16.4623C12.9804 15.5987 12.3269 14.5319 12.1369 14.2059C11.9464 13.8794 12.1168 13.7032 12.2798 13.5408C12.4263 13.3947 12.6052 13.1603 12.7682 12.9703C12.9312 12.7798 12.9851 12.6444 13.0941 12.4269C13.2026 12.2099 13.1481 12.0194 13.0666 11.8564C12.9857 11.6935 12.3343 10.0901 12.0628 9.43816C11.7982 8.80316 11.5294 8.88888 11.3299 8.87883C11.1399 8.8693 10.9224 8.86719 10.7055 8.86719C10.4885 8.86719 10.1356 8.94868 9.8366 9.27465C9.53815 9.60061 8.69678 10.3891 8.69678 11.9919C8.69678 13.5953 9.86412 15.1442 10.0266 15.3616C10.1896 15.5786 12.3237 18.869 15.5913 20.2797C16.1977 20.5411 16.8175 20.7702 17.4481 20.966C18.2281 21.2142 18.9383 21.1788 19.4997 21.0952C20.1257 21.0015 21.4269 20.3067 21.6984 19.5463C21.9698 18.7853 21.9698 18.1334 21.8884 17.9974C21.8069 17.8614 21.5899 17.7805 21.2639 17.6169Z" fill="#0D5785"/>
</svg>
